<svg xmlns="http://www.w3.org/2000/svg" width="47" height="47" viewBox="0 0 47 47">
  <g id="icono" transform="translate(-180.289 -2152)">
    <circle id="Elipse_6022" data-name="Elipse 6022" cx="23.5" cy="23.5" r="23.5" transform="translate(180.289 2152)" fill="#0720ac"/>
    <path id="globe-solid" d="M24.228,17.62A43.039,43.039,0,0,1,24,22.025H11.247a41.164,41.164,0,0,1-.227-4.405,43.038,43.038,0,0,1,.227-4.405H24A41.164,41.164,0,0,1,24.228,17.62Zm1.982-4.405h8.473a17.681,17.681,0,0,1,0,8.81H26.21a43.486,43.486,0,0,0,.22-4.405A43.486,43.486,0,0,0,26.21,13.215Zm7.75-2.2H25.928c-.688-4.4-2.051-8.08-3.806-10.434A17.655,17.655,0,0,1,33.953,11.013Zm-10.262,0H11.543A27.74,27.74,0,0,1,13.4,4.495,11.243,11.243,0,0,1,15.707.95,2.844,2.844,0,0,1,17.62,0a2.844,2.844,0,0,1,1.913.95,11.243,11.243,0,0,1,2.306,3.545A27.227,27.227,0,0,1,23.7,11.013Zm-14.385,0H1.28A17.666,17.666,0,0,1,13.119.578C11.364,2.932,10,6.614,9.313,11.013Zm-8.755,2.2H9.03a44.16,44.16,0,0,0,0,8.81H.558a17.681,17.681,0,0,1,0-8.81ZM13.4,30.739a27.26,27.26,0,0,1-1.858-6.511H23.7a27.582,27.582,0,0,1-1.858,6.511,11.243,11.243,0,0,1-2.306,3.545,2.828,2.828,0,0,1-1.913.957,2.844,2.844,0,0,1-1.913-.95A11.243,11.243,0,0,1,13.4,30.746ZM9.313,24.228c.688,4.4,2.051,8.08,3.806,10.434A17.666,17.666,0,0,1,1.28,24.228Zm24.648,0A17.669,17.669,0,0,1,22.128,34.662c1.755-2.354,3.111-6.036,3.806-10.434h8.032Z" transform="translate(186.168 2157.88)" fill="#c9d8ff"/>
  </g>
</svg>
