<svg xmlns="http://www.w3.org/2000/svg" xmlns:xlink="http://www.w3.org/1999/xlink" width="296" height="188.515" viewBox="0 0 296 188.515">
  <defs>
    <clipPath id="clip-path">
      <circle id="Elipse_11557" data-name="Elipse 11557" cx="30.96" cy="30.96" r="30.96" fill="none"/>
    </clipPath>
    <clipPath id="clip-path-2">
      <circle id="Elipse_11560" data-name="Elipse 11560" cx="23.741" cy="23.741" r="23.741" transform="translate(0 33.575) rotate(-45)" fill="none"/>
    </clipPath>
    <clipPath id="clip-path-3">
      <circle id="Elipse_11565" data-name="Elipse 11565" cx="23.741" cy="23.741" r="23.741" transform="matrix(0.235, -0.972, 0.972, 0.235, 0, 46.152)" fill="#4a28db"/>
    </clipPath>
  </defs>
  <g id="img1" transform="translate(-284.332 -3614.485)">
    <rect id="Rectángulo_401121" data-name="Rectángulo 401121" width="295" height="101" rx="30" transform="translate(285.332 3702)" fill="#71ffe9"/>
    <g id="OBJECTS" transform="translate(284.332 3619.837)">
      <g id="Grupo_1102866" data-name="Grupo 1102866" transform="translate(0 -5.611)">
        <path id="Trazado_875757" data-name="Trazado 875757" d="M147.5,174.675A161.98,161.98,0,0,0,0,269.661H295A161.976,161.976,0,0,0,147.5,174.67Z" transform="translate(0 -94.172)" fill="#7457ea"/>
        <path id="Trazado_875758" data-name="Trazado 875758" d="M530.2,281.658l-2.065-7.771-5.806,1.54a14.772,14.772,0,0,0-2.169-2.839l3.017-5.2-6.955-4.038-3.017,5.2a14.8,14.8,0,0,0-3.541-.474l-1.541-5.806-7.771,2.065,1.54,5.807a14.915,14.915,0,0,0-2.839,2.169l-5.2-3.017-4.038,6.955,5.2,3.017a14.8,14.8,0,0,0-.474,3.541l-5.806,1.54,2.065,7.771,5.806-1.54a14.914,14.914,0,0,0,2.169,2.839l-3.017,5.2,6.955,4.038,3.017-5.2a14.8,14.8,0,0,0,3.541.474l1.54,5.806,7.771-2.065-1.54-5.806a14.773,14.773,0,0,0,2.839-2.169l5.2,3.017,4.038-6.955-5.2-3.017a14.8,14.8,0,0,0,.474-3.541Zm-19.042,7.716a6.588,6.588,0,1,1,4.681-8.058,6.583,6.583,0,0,1-4.681,8.058Z" transform="translate(-265.983 -141.846)" fill="#57e5de"/>
        <path id="Trazado_875759" data-name="Trazado 875759" d="M525.308,200.994l-1.03-3.888-2.9.77a7.206,7.206,0,0,0-1.085-1.417l1.509-2.6-3.477-2.019-1.509,2.6a7.413,7.413,0,0,0-1.768-.237l-.77-2.9-3.888,1.03.77,2.9a7.208,7.208,0,0,0-1.417,1.085l-2.6-1.509-2.019,3.477,2.6,1.509a7.415,7.415,0,0,0-.237,1.768l-2.9.77,1.03,3.888,2.9-.77a7.216,7.216,0,0,0,1.085,1.417l-1.508,2.6,3.477,2.019,1.509-2.6a7.41,7.41,0,0,0,1.768.237l.77,2.9L519.5,211l-.77-2.9a7.214,7.214,0,0,0,1.417-1.085l2.6,1.509,2.019-3.478-2.6-1.509a7.409,7.409,0,0,0,.237-1.768Zm-9.521,3.86a3.294,3.294,0,1,1,2.338-4.029A3.293,3.293,0,0,1,515.787,204.855Z" transform="translate(-274.609 -103.222)" fill="#4a28db"/>
        <path id="Trazado_875760" data-name="Trazado 875760" d="M101.008,170.364l-1.03-3.888-2.9.77a7.214,7.214,0,0,0-1.085-1.417l1.509-2.6-3.478-2.019-1.509,2.6a7.416,7.416,0,0,0-1.768-.237l-.77-2.9-3.888,1.03.77,2.9a7.212,7.212,0,0,0-1.417,1.085l-2.6-1.509-2.019,3.478,2.6,1.509a7.412,7.412,0,0,0-.237,1.768l-2.9.77,1.03,3.888,2.9-.77a7.212,7.212,0,0,0,1.085,1.417l-1.509,2.6,3.478,2.019,1.509-2.6a7.411,7.411,0,0,0,1.768.237l.77,2.9,3.888-1.03-.77-2.9a7.21,7.21,0,0,0,1.417-1.085l2.6,1.509,2.019-3.478-2.6-1.509a7.413,7.413,0,0,0,.237-1.768Zm-9.521,3.856a3.294,3.294,0,1,1,2.338-4.029A3.293,3.293,0,0,1,91.487,174.22Z" transform="translate(-43.691 -86.552)" fill="#4a28db"/>
        <g id="Grupo_1102831" data-name="Grupo 1102831" transform="translate(61.857 60.249)">
          <rect id="Rectángulo_403163" data-name="Rectángulo 403163" width="171.355" height="99.088" fill="#2020a8"/>
          <g id="Grupo_1102830" data-name="Grupo 1102830" transform="translate(43.343 88.92)">
            <path id="Trazado_875761" data-name="Trazado 875761" d="M329.3,357.061H302.1L284.53,325.34h27.2Z" transform="translate(-260.051 -325.34)" fill="#2020a8"/>
            <rect id="Rectángulo_403164" data-name="Rectángulo 403164" width="69.254" height="2.21" transform="translate(0 31.721)" fill="#2020a8"/>
          </g>
          <rect id="Rectángulo_403165" data-name="Rectángulo 403165" width="171.355" height="84.476" fill="#141482"/>
          <path id="Trazado_875762" data-name="Trazado 875762" d="M296.89,347.66h27.2l5.515,9.959h-27.2Z" transform="translate(-223.434 -248.567)" fill="#141482"/>
        </g>
        <text id="_" data-name="@" transform="translate(139.457 48.973) rotate(-23.9)" fill="#57e5de" font-size="37" font-family="Montserrat-Black, Montserrat" font-weight="800"><tspan x="0" y="0">@</tspan></text>
        <g id="Grupo_1102834" data-name="Grupo 1102834" transform="translate(54.92 24.699)" clip-path="url(#clip-path)">
          <circle id="Elipse_11552" data-name="Elipse 11552" cx="30.96" cy="30.96" r="30.96" fill="#6cc4ff"/>
          <g id="Grupo_1102832" data-name="Grupo 1102832" transform="translate(-42.195 -24.803)">
            <circle id="Elipse_11553" data-name="Elipse 11553" cx="39.428" cy="39.428" r="39.428" transform="translate(34.797 55.761) rotate(-45)" fill="none" stroke="#141482" stroke-miterlimit="10" stroke-width="1"/>
            <circle id="Elipse_11554" data-name="Elipse 11554" cx="39.428" cy="39.428" r="39.428" transform="translate(0 55.76) rotate(-45)" fill="none" stroke="#141482" stroke-miterlimit="10" stroke-width="1"/>
          </g>
          <g id="Grupo_1102833" data-name="Grupo 1102833" transform="translate(-24.802 -42.199)">
            <circle id="Elipse_11555" data-name="Elipse 11555" cx="39.428" cy="39.428" r="39.428" transform="translate(0.004 90.557) rotate(-45)" fill="none" stroke="#141482" stroke-miterlimit="10" stroke-width="1"/>
            <circle id="Elipse_11556" data-name="Elipse 11556" cx="39.428" cy="39.428" r="39.428" transform="translate(0 55.76) rotate(-45)" fill="none" stroke="#141482" stroke-miterlimit="10" stroke-width="1"/>
          </g>
          <line id="Línea_3235" data-name="Línea 3235" x2="64.6" transform="translate(0.005 30.96)" fill="none" stroke="#141482" stroke-miterlimit="10" stroke-width="1"/>
          <line id="Línea_3236" data-name="Línea 3236" y2="67.526" transform="translate(30.96 -2.37)" fill="none" stroke="#141482" stroke-miterlimit="10" stroke-width="1"/>
        </g>
        <g id="Grupo_1102838" data-name="Grupo 1102838" transform="translate(100.998 80.501)">
          <path id="Trazado_875763" data-name="Trazado 875763" d="M222.183,296.52a.578.578,0,0,1-.415-.169.586.586,0,0,1-.169-.415.568.568,0,0,1,.169-.41.507.507,0,0,1,.187-.128.588.588,0,0,1,.638.128.472.472,0,0,1,.077.087c.018.032.036.064.055.1s.023.068.036.109a1.032,1.032,0,0,1,.014.109.631.631,0,0,1-.046.223.489.489,0,0,1-.128.191.571.571,0,0,1-.187.128.609.609,0,0,1-.223.041Z" transform="translate(-221.6 -240.354)" fill="#664fed"/>
          <g id="Grupo_1102835" data-name="Grupo 1102835" transform="translate(1.869 2.891)">
            <path id="Trazado_875764" data-name="Trazado 875764" d="M225.964,290.064a.582.582,0,0,1-.169-.807h0a.584.584,0,0,1,.807-.178h0a.589.589,0,0,1,.178.807h0a.59.59,0,0,1-.492.269h0a.57.57,0,0,1-.324-.1Z" transform="translate(-225.7 -239.78)" fill="#664fed"/>
            <path id="Trazado_875765" data-name="Trazado 875765" d="M230.088,283.714a.585.585,0,0,1-.178-.807h0a.585.585,0,0,1,.807-.178h0a.584.584,0,0,1,.178.807h0a.573.573,0,0,1-.492.269h0a.555.555,0,0,1-.314-.1Z" transform="translate(-227.941 -236.324)" fill="#664fed"/>
            <path id="Trazado_875766" data-name="Trazado 875766" d="M234.2,277.36a.59.59,0,0,1-.178-.816h0a.591.591,0,0,1,.816-.169h0a.582.582,0,0,1,.169.807h0a.573.573,0,0,1-.492.269h0a.6.6,0,0,1-.314-.1Z" transform="translate(-230.176 -232.864)" fill="#664fed"/>
            <path id="Trazado_875767" data-name="Trazado 875767" d="M238.314,271.011a.582.582,0,0,1-.169-.807h0a.58.58,0,0,1,.807-.169h0a.582.582,0,0,1,.169.807h0a.6.6,0,0,1-.492.269h0A.583.583,0,0,1,238.314,271.011Z" transform="translate(-232.421 -229.413)" fill="#664fed"/>
            <path id="Trazado_875768" data-name="Trazado 875768" d="M242.434,264.656a.582.582,0,0,1-.169-.807h0a.589.589,0,0,1,.807-.178h0a.592.592,0,0,1,.169.816h0a.59.59,0,0,1-.492.264h0A.577.577,0,0,1,242.434,264.656Z" transform="translate(-234.664 -225.952)" fill="#664fed"/>
            <path id="Trazado_875769" data-name="Trazado 875769" d="M246.544,258.306a.582.582,0,0,1-.169-.807h0a.589.589,0,0,1,.807-.178h0a.594.594,0,0,1,.178.816h0a.6.6,0,0,1-.492.264h0A.57.57,0,0,1,246.544,258.306Z" transform="translate(-236.9 -222.496)" fill="#664fed"/>
            <path id="Trazado_875770" data-name="Trazado 875770" d="M250.668,251.953a.584.584,0,0,1-.178-.807h0a.58.58,0,0,1,.807-.178h0a.585.585,0,0,1,.178.807h0a.574.574,0,0,1-.492.269h0A.561.561,0,0,1,250.668,251.953Z" transform="translate(-239.141 -219.038)" fill="#664fed"/>
            <path id="Trazado_875771" data-name="Trazado 875771" d="M254.778,245.6a.584.584,0,0,1-.178-.807h0a.593.593,0,0,1,.816-.178h0a.582.582,0,0,1,.169.807h0a.573.573,0,0,1-.492.269h0a.532.532,0,0,1-.314-.1Z" transform="translate(-241.378 -215.583)" fill="#664fed"/>
            <path id="Trazado_875772" data-name="Trazado 875772" d="M258.894,239.25a.591.591,0,0,1-.169-.816h0a.582.582,0,0,1,.807-.169h0a.582.582,0,0,1,.169.807h0a.573.573,0,0,1-.492.269h0a.542.542,0,0,1-.314-.1Z" transform="translate(-243.622 -212.123)" fill="#f86eff"/>
            <path id="Trazado_875773" data-name="Trazado 875773" d="M263.014,232.9a.58.58,0,0,1-.169-.807h0a.582.582,0,0,1,.807-.169h0a.589.589,0,0,1,.178.807h0a.59.59,0,0,1-.492.269h0A.613.613,0,0,1,263.014,232.9Z" transform="translate(-245.864 -208.672)" fill="#f86eff"/>
            <path id="Trazado_875774" data-name="Trazado 875774" d="M267.128,226.551a.584.584,0,0,1-.178-.807h0a.582.582,0,0,1,.807-.169h0a.584.584,0,0,1,.178.807h0a.6.6,0,0,1-.492.269h0A.56.56,0,0,1,267.128,226.551Z" transform="translate(-248.099 -205.217)" fill="#f86eff"/>
            <path id="Trazado_875775" data-name="Trazado 875775" d="M271.248,220.2a.584.584,0,0,1-.178-.807h0a.6.6,0,0,1,.816-.178h0a.592.592,0,0,1,.169.816h0a.591.591,0,0,1-.492.264h0A.532.532,0,0,1,271.248,220.2Z" transform="translate(-250.342 -201.758)" fill="#664fed"/>
            <path id="Trazado_875776" data-name="Trazado 875776" d="M275.359,213.846a.589.589,0,0,1-.178-.807h0a.6.6,0,0,1,.816-.178h0a.591.591,0,0,1,.169.816h0a.591.591,0,0,1-.492.264h0A.542.542,0,0,1,275.359,213.846Z" transform="translate(-252.58 -198.3)" fill="#664fed"/>
            <path id="Trazado_875777" data-name="Trazado 875777" d="M279.474,207.494a.582.582,0,0,1-.169-.807h0a.585.585,0,0,1,.807-.178h0a.589.589,0,0,1,.178.807h0a.59.59,0,0,1-.492.269h0a.569.569,0,0,1-.324-.1Z" transform="translate(-254.822 -194.842)" fill="#664fed"/>
            <path id="Trazado_875778" data-name="Trazado 875778" d="M283.6,201.144a.584.584,0,0,1-.178-.807h0a.584.584,0,0,1,.807-.178h0a.588.588,0,0,1,.178.807h0a.579.579,0,0,1-.492.269h0a.523.523,0,0,1-.315-.1Z" transform="translate(-257.063 -191.386)" fill="#664fed"/>
            <path id="Trazado_875779" data-name="Trazado 875779" d="M287.706,194.794a.581.581,0,0,1-.178-.807h0a.585.585,0,0,1,.807-.178h0a.585.585,0,0,1,.178.807h0a.573.573,0,0,1-.492.269h0a.523.523,0,0,1-.314-.1Z" transform="translate(-259.298 -187.931)" fill="#664fed"/>
            <path id="Trazado_875780" data-name="Trazado 875780" d="M291.828,188.44a.594.594,0,0,1-.178-.816h0a.582.582,0,0,1,.807-.169h0a.584.584,0,0,1,.178.807h0a.573.573,0,0,1-.492.269h0a.618.618,0,0,1-.314-.1Z" transform="translate(-261.542 -184.47)" fill="#664fed"/>
            <path id="Trazado_875781" data-name="Trazado 875781" d="M295.939,182.091a.588.588,0,0,1-.178-.807h0a.591.591,0,0,1,.816-.169h0a.581.581,0,0,1,.169.807h0a.6.6,0,0,1-.492.269h0A.583.583,0,0,1,295.939,182.091Z" transform="translate(-263.78 -181.02)" fill="#664fed"/>
          </g>
          <path id="Trazado_875782" data-name="Trazado 875782" d="M300.383,175.836a.353.353,0,0,1-.118-.014.771.771,0,0,1-.109-.027c-.036-.018-.064-.036-.1-.059a.573.573,0,0,1-.087-.068.586.586,0,0,1-.169-.415.568.568,0,0,1,.169-.41.6.6,0,0,1,.825,0,.584.584,0,0,1,.178.41.576.576,0,0,1-.178.415.25.25,0,0,1-.087.068.53.53,0,0,1-.1.059.429.429,0,0,1-.109.027.314.314,0,0,1-.109.014Z" transform="translate(-264.159 -174.676)" fill="#664fed"/>
          <g id="Grupo_1102836" data-name="Grupo 1102836" transform="translate(38.851 1.625)">
            <path id="Trazado_875783" data-name="Trazado 875783" d="M427.036,240.2a.583.583,0,0,1-.255-.793h0a.585.585,0,0,1,.784-.26h0a.591.591,0,0,1,.255.793h0a.587.587,0,0,1-.52.324h0A.61.61,0,0,1,427.036,240.2Z" transform="translate(-372.081 -211.353)" fill="#664fed"/>
            <path id="Trazado_875784" data-name="Trazado 875784" d="M419.977,236.619a.579.579,0,0,1-.255-.784h0a.589.589,0,0,1,.789-.26h0a.573.573,0,0,1,.251.784h0a.577.577,0,0,1-.52.324h0A.552.552,0,0,1,419.977,236.619Z" transform="translate(-368.24 -209.41)" fill="#664fed"/>
            <path id="Trazado_875785" data-name="Trazado 875785" d="M412.925,233.043a.592.592,0,0,1-.26-.793h0a.6.6,0,0,1,.793-.26h0a.589.589,0,0,1,.255.793h0a.59.59,0,0,1-.529.324h0a.624.624,0,0,1-.264-.064Z" transform="translate(-364.401 -207.461)" fill="#664fed"/>
            <path id="Trazado_875786" data-name="Trazado 875786" d="M405.877,229.469a.579.579,0,0,1-.255-.784h0a.585.585,0,0,1,.784-.26h0a.575.575,0,0,1,.255.784h0a.577.577,0,0,1-.52.324h0A.552.552,0,0,1,405.877,229.469Z" transform="translate(-360.566 -205.519)" fill="#664fed"/>
            <path id="Trazado_875787" data-name="Trazado 875787" d="M398.832,225.884a.591.591,0,0,1-.255-.788h0a.591.591,0,0,1,.789-.26h0a.6.6,0,0,1,.26.793h0a.59.59,0,0,1-.529.324h0a.625.625,0,0,1-.264-.064Z" transform="translate(-356.734 -203.565)" fill="#664fed"/>
            <path id="Trazado_875788" data-name="Trazado 875788" d="M391.774,222.309a.581.581,0,0,1-.26-.784h0a.585.585,0,0,1,.784-.26h0a.579.579,0,0,1,.255.784h0a.587.587,0,0,1-.52.324h0a.552.552,0,0,1-.264-.064Z" transform="translate(-352.889 -201.622)" fill="#664fed"/>
            <path id="Trazado_875789" data-name="Trazado 875789" d="M384.727,218.718a.589.589,0,0,1-.255-.793h0a.589.589,0,0,1,.789-.26h0a.6.6,0,0,1,.26.793h0a.59.59,0,0,1-.529.324h0A.625.625,0,0,1,384.727,218.718Z" transform="translate(-349.055 -199.663)" fill="#664fed"/>
            <path id="Trazado_875790" data-name="Trazado 875790" d="M377.674,215.149a.581.581,0,0,1-.26-.784h0a.585.585,0,0,1,.784-.26h0a.585.585,0,0,1,.26.784h0a.582.582,0,0,1-.52.324h0A.551.551,0,0,1,377.674,215.149Z" transform="translate(-345.216 -197.725)" fill="#664fed"/>
            <path id="Trazado_875791" data-name="Trazado 875791" d="M370.625,211.558a.592.592,0,0,1-.26-.793h0a.585.585,0,0,1,.784-.26h0a.586.586,0,0,1,.264.788h0a.6.6,0,0,1-.529.324h0a.61.61,0,0,1-.264-.064Z" transform="translate(-341.38 -195.766)" fill="#f86eff"/>
            <path id="Trazado_875792" data-name="Trazado 875792" d="M363.572,207.989a.586.586,0,0,1-.264-.784h0a.59.59,0,0,1,.789-.26h0a.585.585,0,0,1,.26.784h0a.587.587,0,0,1-.52.324h0A.528.528,0,0,1,363.572,207.989Z" transform="translate(-337.54 -193.829)" fill="#f86eff"/>
            <path id="Trazado_875793" data-name="Trazado 875793" d="M356.525,204.4a.6.6,0,0,1-.26-.793h0a.588.588,0,0,1,.788-.26h0a.592.592,0,0,1,.251.793h0a.553.553,0,0,1-.52.315h0a.6.6,0,0,1-.264-.059Z" transform="translate(-333.706 -191.87)" fill="#f86eff"/>
            <path id="Trazado_875794" data-name="Trazado 875794" d="M349.465,200.829a.585.585,0,0,1-.26-.784h0a.6.6,0,0,1,.793-.26h0a.579.579,0,0,1,.255.784h0a.587.587,0,0,1-.52.324h0A.557.557,0,0,1,349.465,200.829Z" transform="translate(-329.864 -189.932)" fill="#664fed"/>
            <path id="Trazado_875795" data-name="Trazado 875795" d="M342.417,197.238a.587.587,0,0,1-.255-.793h0a.585.585,0,0,1,.784-.26h0a.583.583,0,0,1,.255.793h0a.59.59,0,0,1-.52.324h0A.61.61,0,0,1,342.417,197.238Z" transform="translate(-326.029 -187.973)" fill="#664fed"/>
            <path id="Trazado_875796" data-name="Trazado 875796" d="M335.365,193.668a.584.584,0,0,1-.26-.784h0a.587.587,0,0,1,.788-.26h0a.585.585,0,0,1,.26.784h0a.59.59,0,0,1-.529.324h0a.564.564,0,0,1-.264-.064Z" transform="translate(-322.19 -186.034)" fill="#664fed"/>
            <path id="Trazado_875797" data-name="Trazado 875797" d="M328.314,190.078a.591.591,0,0,1-.26-.793h0a.585.585,0,0,1,.784-.26h0a.585.585,0,0,1,.255.788h0a.578.578,0,0,1-.52.315h0a.6.6,0,0,1-.264-.059Z" transform="translate(-318.352 -184.076)" fill="#664fed"/>
            <path id="Trazado_875798" data-name="Trazado 875798" d="M321.267,186.508a.579.579,0,0,1-.255-.784h0a.585.585,0,0,1,.788-.26h0a.573.573,0,0,1,.251.784h0a.577.577,0,0,1-.52.324h0A.609.609,0,0,1,321.267,186.508Z" transform="translate(-314.518 -182.138)" fill="#664fed"/>
            <path id="Trazado_875799" data-name="Trazado 875799" d="M314.214,182.918a.592.592,0,0,1-.251-.793h0a.585.585,0,0,1,.784-.26h0a.593.593,0,0,1,.26.793h0a.6.6,0,0,1-.529.324h0A.625.625,0,0,1,314.214,182.918Z" transform="translate(-310.683 -180.179)" fill="#664fed"/>
            <path id="Trazado_875800" data-name="Trazado 875800" d="M307.165,179.348a.584.584,0,0,1-.26-.784h0a.581.581,0,0,1,.784-.26h0a.586.586,0,0,1,.264.784h0a.59.59,0,0,1-.529.324h0a.625.625,0,0,1-.264-.064Z" transform="translate(-306.843 -178.241)" fill="#664fed"/>
          </g>
          <path id="Trazado_875801" data-name="Trazado 875801" d="M434.343,243.855a.568.568,0,0,1-.41-.169c-.027-.027-.055-.059-.077-.087s-.036-.064-.055-.1a.444.444,0,0,1-.027-.1.353.353,0,0,1-.014-.118.586.586,0,0,1,.7-.574.768.768,0,0,1,.109.036.714.714,0,0,1,.1.055.463.463,0,0,1,.087.077.478.478,0,0,1,.077.087.988.988,0,0,1,.055.1c.014.036.023.068.036.109a1.034,1.034,0,0,1,.014.109.526.526,0,0,1-.014.118c-.014.036-.023.068-.036.1s-.036.068-.055.1a.662.662,0,0,1-.077.087.406.406,0,0,1-.087.068.528.528,0,0,1-.1.059.549.549,0,0,1-.109.027.339.339,0,0,1-.119.014Z" transform="translate(-337.064 -211.69)" fill="#664fed"/>
          <g id="Grupo_1102837" data-name="Grupo 1102837" transform="translate(3.446 31.847)">
            <path id="Trazado_875802" data-name="Trazado 875802" d="M229.179,294.178a.584.584,0,0,1,.428-.711h0a.58.58,0,0,1,.711.428h0a.588.588,0,0,1-.428.711h0a.5.5,0,0,1-.141.018h0A.593.593,0,0,1,229.179,294.178Z" transform="translate(-229.162 -271.163)" fill="#664fed"/>
            <path id="Trazado_875803" data-name="Trazado 875803" d="M236.75,292.3a.6.6,0,0,1,.433-.711h0a.6.6,0,0,1,.711.428h0a.591.591,0,0,1-.428.711h0a.427.427,0,0,1-.146.018h0A.6.6,0,0,1,236.75,292.3Z" transform="translate(-233.282 -270.143)" fill="#664fed"/>
            <path id="Trazado_875804" data-name="Trazado 875804" d="M244.329,290.42a.586.586,0,0,1,.428-.711h0a.584.584,0,0,1,.711.428h0a.582.582,0,0,1-.428.711h0a.5.5,0,0,1-.141.018h0A.588.588,0,0,1,244.329,290.42Z" transform="translate(-237.407 -269.119)" fill="#664fed"/>
            <path id="Trazado_875805" data-name="Trazado 875805" d="M251.917,288.538a.581.581,0,0,1,.428-.711h0a.585.585,0,0,1,.711.424h0a.6.6,0,0,1-.428.716h0a.533.533,0,0,1-.146.018h0a.582.582,0,0,1-.561-.447Z" transform="translate(-241.536 -268.094)" fill="#664fed"/>
            <path id="Trazado_875806" data-name="Trazado 875806" d="M259.489,286.665a.591.591,0,0,1,.428-.716h0a.591.591,0,0,1,.711.428h0a.58.58,0,0,1-.428.711h0a.5.5,0,0,1-.141.018h0a.594.594,0,0,1-.57-.437Z" transform="translate(-245.657 -267.073)" fill="#664fed"/>
            <path id="Trazado_875807" data-name="Trazado 875807" d="M267.067,284.78a.582.582,0,0,1,.428-.711h0a.588.588,0,0,1,.711.428h0a.591.591,0,0,1-.428.711h0a.536.536,0,0,1-.146.018h0a.578.578,0,0,1-.561-.447Z" transform="translate(-249.781 -266.049)" fill="#664fed"/>
            <path id="Trazado_875808" data-name="Trazado 875808" d="M274.64,282.9a.591.591,0,0,1,.428-.711h0a.58.58,0,0,1,.711.428h0a.582.582,0,0,1-.428.711h0a.5.5,0,0,1-.141.018h0A.593.593,0,0,1,274.64,282.9Z" transform="translate(-253.903 -265.024)" fill="#664fed"/>
            <path id="Trazado_875809" data-name="Trazado 875809" d="M282.227,281.011a.586.586,0,0,1,.428-.711h0a.593.593,0,0,1,.711.428h0a.591.591,0,0,1-.428.711h0a.535.535,0,0,1-.146.018h0a.577.577,0,0,1-.561-.447Z" transform="translate(-258.031 -263.998)" fill="#664fed"/>
            <path id="Trazado_875810" data-name="Trazado 875810" d="M289.8,279.131a.593.593,0,0,1,.428-.711h0a.591.591,0,0,1,.711.428h0a.58.58,0,0,1-.428.711h0a.5.5,0,0,1-.141.018h0A.592.592,0,0,1,289.8,279.131Z" transform="translate(-262.154 -262.975)" fill="#f86eff"/>
            <path id="Trazado_875811" data-name="Trazado 875811" d="M297.377,277.258a.58.58,0,0,1,.428-.711h0a.582.582,0,0,1,.711.428h0a.593.593,0,0,1-.428.711h0a.5.5,0,0,1-.141.018h0A.589.589,0,0,1,297.377,277.258Z" transform="translate(-266.277 -261.955)" fill="#f86eff"/>
            <path id="Trazado_875812" data-name="Trazado 875812" d="M304.95,275.375a.6.6,0,0,1,.428-.716h0a.591.591,0,0,1,.711.428h0a.587.587,0,0,1-.428.716h0a.5.5,0,0,1-.141.014h0a.594.594,0,0,1-.57-.438Z" transform="translate(-270.399 -260.929)" fill="#f86eff"/>
            <path id="Trazado_875813" data-name="Trazado 875813" d="M312.537,273.49a.582.582,0,0,1,.428-.711h0a.586.586,0,0,1,.711.428h0a.584.584,0,0,1-.428.711h0a.5.5,0,0,1-.141.018h0A.584.584,0,0,1,312.537,273.49Z" transform="translate(-274.527 -259.905)" fill="#664fed"/>
            <path id="Trazado_875814" data-name="Trazado 875814" d="M320.11,271.61a.591.591,0,0,1,.428-.711h0a.584.584,0,0,1,.711.428h0a.581.581,0,0,1-.424.711h0a.582.582,0,0,1-.146.018h0A.592.592,0,0,1,320.11,271.61Z" transform="translate(-278.649 -258.882)" fill="#664fed"/>
            <path id="Trazado_875815" data-name="Trazado 875815" d="M327.689,269.738a.584.584,0,0,1,.428-.711h0a.582.582,0,0,1,.711.428h0a.588.588,0,0,1-.428.711h0a.5.5,0,0,1-.141.018h0A.589.589,0,0,1,327.689,269.738Z" transform="translate(-282.774 -257.862)" fill="#664fed"/>
            <path id="Trazado_875816" data-name="Trazado 875816" d="M335.277,267.851a.583.583,0,0,1,.424-.711h0a.591.591,0,0,1,.711.428h0a.581.581,0,0,1-.428.711h0a.5.5,0,0,1-.141.018h0a.574.574,0,0,1-.561-.447Z" transform="translate(-286.903 -256.836)" fill="#664fed"/>
            <path id="Trazado_875817" data-name="Trazado 875817" d="M342.849,265.968a.584.584,0,0,1,.428-.711h0a.58.58,0,0,1,.711.428h0a.586.586,0,0,1-.428.711h0a.5.5,0,0,1-.141.018h0A.589.589,0,0,1,342.849,265.968Z" transform="translate(-291.025 -255.811)" fill="#664fed"/>
            <path id="Trazado_875818" data-name="Trazado 875818" d="M350.42,264.089a.584.584,0,0,1,.428-.7h0a.581.581,0,0,1,.711.424h0a.588.588,0,0,1-.424.716h0a.578.578,0,0,1-.146.018h0a.6.6,0,0,1-.57-.451Z" transform="translate(-295.145 -254.793)" fill="#664fed"/>
            <path id="Trazado_875819" data-name="Trazado 875819" d="M358,262.2a.59.59,0,0,1,.428-.711h0a.591.591,0,0,1,.711.428h0a.584.584,0,0,1-.428.711h0a.5.5,0,0,1-.141.018h0A.584.584,0,0,1,358,262.2Z" transform="translate(-299.27 -253.761)" fill="#664fed"/>
            <path id="Trazado_875820" data-name="Trazado 875820" d="M365.587,260.33a.581.581,0,0,1,.424-.711h0a.591.591,0,0,1,.716.428h0a.591.591,0,0,1-.428.711h0a.531.531,0,0,1-.146.018h0a.574.574,0,0,1-.561-.447Z" transform="translate(-303.399 -252.743)" fill="#664fed"/>
            <path id="Trazado_875821" data-name="Trazado 875821" d="M373.159,258.448a.584.584,0,0,1,.428-.711h0a.58.58,0,0,1,.711.428h0a.587.587,0,0,1-.428.711h0a.483.483,0,0,1-.141.018h0A.589.589,0,0,1,373.159,258.448Z" transform="translate(-307.52 -251.718)" fill="#664fed"/>
            <path id="Trazado_875822" data-name="Trazado 875822" d="M380.737,256.561a.582.582,0,0,1,.428-.711h0a.6.6,0,0,1,.711.428h0a.591.591,0,0,1-.428.711h0a.5.5,0,0,1-.141.018h0A.588.588,0,0,1,380.737,256.561Z" transform="translate(-311.644 -250.692)" fill="#664fed"/>
            <path id="Trazado_875823" data-name="Trazado 875823" d="M388.31,254.69a.593.593,0,0,1,.428-.711h0a.584.584,0,0,1,.711.428h0a.58.58,0,0,1-.428.711h0a.48.48,0,0,1-.141.018h0A.592.592,0,0,1,388.31,254.69Z" transform="translate(-315.766 -249.673)" fill="#664fed"/>
            <path id="Trazado_875824" data-name="Trazado 875824" d="M395.9,252.808a.581.581,0,0,1,.428-.711h0a.587.587,0,0,1,.711.428h0a.593.593,0,0,1-.428.711h0a.5.5,0,0,1-.141.018h0A.593.593,0,0,1,395.9,252.808Z" transform="translate(-319.894 -248.648)" fill="#664fed"/>
            <path id="Trazado_875825" data-name="Trazado 875825" d="M403.469,250.921a.588.588,0,0,1,.428-.711h0a.591.591,0,0,1,.711.428h0a.58.58,0,0,1-.428.711h0a.482.482,0,0,1-.141.018h0A.592.592,0,0,1,403.469,250.921Z" transform="translate(-324.016 -247.622)" fill="#664fed"/>
            <path id="Trazado_875826" data-name="Trazado 875826" d="M411.047,249.04a.58.58,0,0,1,.428-.711h0a.586.586,0,0,1,.711.428h0a.591.591,0,0,1-.428.711h0a.5.5,0,0,1-.141.018h0A.588.588,0,0,1,411.047,249.04Z" transform="translate(-328.139 -246.598)" fill="#664fed"/>
            <path id="Trazado_875827" data-name="Trazado 875827" d="M418.62,247.16a.591.591,0,0,1,.428-.711h0a.584.584,0,0,1,.711.428h0a.584.584,0,0,1-.428.711h0a.48.48,0,0,1-.141.018h0A.6.6,0,0,1,418.62,247.16Z" transform="translate(-332.262 -245.575)" fill="#664fed"/>
            <path id="Trazado_875828" data-name="Trazado 875828" d="M426.207,245.285a.587.587,0,0,1,.428-.716h0a.591.591,0,0,1,.711.428h0a.591.591,0,0,1-.428.716h0a.5.5,0,0,1-.141.018h0A.593.593,0,0,1,426.207,245.285Z" transform="translate(-336.39 -244.553)" fill="#664fed"/>
          </g>
        </g>
        <g id="Grupo_1102843" data-name="Grupo 1102843" transform="translate(188.415 80)">
          <circle id="Elipse_11558" data-name="Elipse 11558" cx="23.741" cy="23.741" r="23.741" transform="translate(0 33.575) rotate(-45)" fill="#6cc4ff"/>
          <g id="Grupo_1102842" data-name="Grupo 1102842" transform="translate(0 0)" clip-path="url(#clip-path-2)">
            <g id="Grupo_1102841" data-name="Grupo 1102841" transform="translate(12.852 14.694)">
              <path id="Trazado_875829" data-name="Trazado 875829" d="M445.305,279.137c2.261-2.37,10.688-2.94,13.96-2.753l13.582-.374c15.022.907,17.228,11.663,17.228,11.663l-48.475-.228A13.378,13.378,0,0,1,445.305,279.137Z" transform="translate(-441.6 -244.018)" fill="#6d4df4"/>
              <path id="Trazado_875830" data-name="Trazado 875830" d="M503.77,242.5a3.523,3.523,0,1,0,3.523-3.523A3.523,3.523,0,0,0,503.77,242.5Z" transform="translate(-475.435 -223.865)" fill="#f8e6cf"/>
              <circle id="Elipse_11559" data-name="Elipse 11559" cx="3.122" cy="3.122" r="3.122" transform="translate(8.851 13.875)" fill="#f1cdc3"/>
              <path id="Trazado_875831" data-name="Trazado 875831" d="M490.573,252.34l2.243,10.788s-7.99,6.54-14.525.7v-5.884Z" transform="translate(-461.568 -231.136)" fill="#f8e6cf"/>
              <path id="Trazado_875832" data-name="Trazado 875832" d="M490.865,253.744l-.292-1.4-12.283,5.155v2.653S486.895,263.579,490.865,253.744Z" transform="translate(-461.568 -231.136)" fill="#f1cdc3"/>
              <path id="Trazado_875833" data-name="Trazado 875833" d="M486.083,222.166s1.226,10.67-11.043,12.415c0,0-6.7.848-8.4-1.841l.943-18.03s3.3-9.393,13.641-5.191,4.863,12.652,4.863,12.652Z" transform="translate(-455.228 -207.242)" fill="#f8e6cf"/>
              <path id="Trazado_875834" data-name="Trazado 875834" d="M483.235,205.969c-.556.5-.944,1.1-.47,1.832a2.7,2.7,0,0,0,1.285.921,14.6,14.6,0,0,0,4.836.857,10.723,10.723,0,0,1,2.06.228,3.222,3.222,0,0,1,1.759,1.035,3.371,3.371,0,0,1,.606,2.375,30.84,30.84,0,0,1-.9,3.8,6.725,6.725,0,0,0,.939,5.237.334.334,0,0,0,.182.155c.128.032.242-.087.328-.191.547-.693,1.363-.907,1.613-2.1.406-1.923,1.951-3.268,1.777-5.291a9.1,9.1,0,0,0-3.683-6.021c-2.3-1.837-5.023-2.388-7.871-2.73-.47-.055-.934-.109-1.4-.178-.365-.055-.734-.178-1.062.073" transform="translate(-463.888 -205.817)" fill="#fff"/>
              <g id="Grupo_1102840" data-name="Grupo 1102840" transform="translate(11.408 14.085)">
                <g id="Grupo_1102839" data-name="Grupo 1102839" transform="translate(0.834)">
                  <path id="Trazado_875835" data-name="Trazado 875835" d="M491.9,241.956a.572.572,0,1,0,.588-.556A.574.574,0,0,0,491.9,241.956Z" transform="translate(-481.216 -239.267)" fill="#141482"/>
                  <path id="Trazado_875836" data-name="Trazado 875836" d="M471.26,241.406a.572.572,0,1,0,.588-.556A.574.574,0,0,0,471.26,241.406Z" transform="translate(-469.983 -238.967)" fill="#141482"/>
                  <path id="Trazado_875837" data-name="Trazado 875837" d="M479.562,245.751l.57-.925a.381.381,0,0,1,.656.018l.52.953a.381.381,0,0,1-.342.561l-1.085-.027a.376.376,0,0,1-.31-.574Z" transform="translate(-474.475 -241.034)" fill="#efc0b6"/>
                  <path id="Trazado_875838" data-name="Trazado 875838" d="M492.929,245.429a1.594,1.594,0,1,0,1.636-1.55A1.594,1.594,0,0,0,492.929,245.429Z" transform="translate(-481.776 -240.616)" fill="#f1cdc3"/>
                  <path id="Trazado_875839" data-name="Trazado 875839" d="M468.459,245.379a1.594,1.594,0,1,0,1.636-1.55A1.594,1.594,0,0,0,468.459,245.379Z" transform="translate(-468.459 -240.589)" fill="#f1cdc3"/>
                  <line id="Línea_3237" data-name="Línea 3237" x1="1.969" y1="0.378" transform="translate(10.907 0.223)" fill="none" stroke="#fff" stroke-linecap="round" stroke-miterlimit="10" stroke-width="2"/>
                  <line id="Línea_3238" data-name="Línea 3238" y1="0.269" x2="1.987" transform="translate(0.611)" fill="none" stroke="#fff" stroke-linecap="round" stroke-miterlimit="10" stroke-width="2"/>
                </g>
                <path id="Trazado_875840" data-name="Trazado 875840" d="M466.63,252.045c1.322,2.2,5.314,1.955,5.314,1.955,9.931.4,12.853-5.984,12.853-5.984l.1-4.106-3.587,3.231a2.116,2.116,0,0,1-2.183.4l-1.9-.734a9.361,9.361,0,0,0-3.031-.62l-1.91-.068a9.652,9.652,0,0,0-1.7.1l-3.682.552-.278,5.273Z" transform="translate(-466.63 -240.633)" fill="#fff"/>
                <path id="Trazado_875841" data-name="Trazado 875841" d="M479.79,250.887l3.318-.4S481.609,252.705,479.79,250.887Z" transform="translate(-473.792 -244.214)" fill="#141482"/>
              </g>
            </g>
          </g>
        </g>
        <g id="Grupo_1102851" data-name="Grupo 1102851" transform="translate(99.273 33.739)">
          <circle id="Elipse_11561" data-name="Elipse 11561" cx="23.741" cy="23.741" r="23.741" transform="matrix(0.235, -0.972, 0.972, 0.235, 0, 46.152)" fill="#4a28db"/>
          <g id="Grupo_1102850" data-name="Grupo 1102850" transform="translate(0 0)" clip-path="url(#clip-path-3)">
            <g id="Grupo_1102849" data-name="Grupo 1102849" transform="translate(13.12 9.62)">
              <g id="Grupo_1102848" data-name="Grupo 1102848" transform="translate(0 3.191)">
                <path id="Trazado_875842" data-name="Trazado 875842" d="M270.587,164.977l1.559.465a7.028,7.028,0,0,1,4.321,3.824l1.887,5.8-31.753-.561.761-3.755a7.937,7.937,0,0,1,5.182-5.433l1.819-.561A17.414,17.414,0,0,1,260.2,164l6.2.269a17.4,17.4,0,0,1,4.179.7Z" transform="translate(-246.6 -134.908)" fill="#6cc4ff"/>
                <g id="Grupo_1102845" data-name="Grupo 1102845" transform="translate(4.412)">
                  <path id="Trazado_875843" data-name="Trazado 875843" d="M273.707,146.57l-1.007,9.876s4.147,4.093,8.354.337l-.173-6.636Z" transform="translate(-265.216 -125.429)" fill="#f8e6cf"/>
                  <path id="Trazado_875844" data-name="Trazado 875844" d="M274.4,148.876l.237-2.306,7.174,3.286.041,1.814s-4.024,1.764-7.447-2.794Z" transform="translate(-266.142 -125.429)" fill="#f1cdc3"/>
                  <g id="Grupo_1102844" data-name="Grupo 1102844">
                    <path id="Trazado_875845" data-name="Trazado 875845" d="M262.907,132.253a3.313,3.313,0,1,1-3.313-3.313A3.313,3.313,0,0,1,262.907,132.253Z" transform="translate(-256.28 -115.834)" fill="#f8e6cf"/>
                    <path id="Trazado_875846" data-name="Trazado 875846" d="M304.049,129.31a2.94,2.94,0,1,1-2.94-2.94A2.941,2.941,0,0,1,304.049,129.31Z" transform="translate(-279.078 -114.436)" fill="#f1cdc3"/>
                    <path id="Trazado_875847" data-name="Trazado 875847" d="M263.986,113.108s-1.158,10.041,10.4,11.686c0,0,6.308.8,7.908-1.732l-.889-16.973s-3.108-8.842-12.844-4.886-4.576,11.909-4.576,11.909Z" transform="translate(-259.729 -100.185)" fill="#f8e6cf"/>
                  </g>
                </g>
                <g id="Grupo_1102847" data-name="Grupo 1102847" transform="translate(12.297 13.607)">
                  <circle id="Elipse_11562" data-name="Elipse 11562" cx="0.574" cy="0.574" r="0.574" transform="translate(2.566 1.901)" fill="#141482"/>
                  <path id="Trazado_875848" data-name="Trazado 875848" d="M301.009,134.784a.574.574,0,1,1-.574-.574A.575.575,0,0,1,301.009,134.784Z" transform="translate(-287.882 -132.309)" fill="#141482"/>
                  <path id="Trazado_875849" data-name="Trazado 875849" d="M291.75,138.894l-.542-.939a.38.38,0,0,0-.656,0l-.542.939a.38.38,0,0,0,.328.57h1.085A.379.379,0,0,0,291.75,138.894Z" transform="translate(-282.493 -134.246)" fill="#efc0b6"/>
                  <g id="Grupo_1102846" data-name="Grupo 1102846" transform="translate(5.228 6.226)">
                    <path id="Trazado_875850" data-name="Trazado 875850" d="M285.05,143.7s.725,2.908,3.66.834h0l-3.66-.834" transform="translate(-285.05 -143.7)" fill="#efc0b6"/>
                    <path id="Trazado_875851" data-name="Trazado 875851" d="M285.05,143.7a4.868,4.868,0,0,0,3.66.834l-1.354-.62-.424.118-.314-.333Z" transform="translate(-285.05 -143.7)" fill="#f1cdc3"/>
                  </g>
                  <path id="Trazado_875852" data-name="Trazado 875852" d="M276.77,138.185a1.6,1.6,0,1,1-1.6-1.6A1.6,1.6,0,0,1,276.77,138.185Z" transform="translate(-273.58 -133.605)" fill="#f1cdc3"/>
                  <circle id="Elipse_11563" data-name="Elipse 11563" cx="1.595" cy="1.595" r="1.595" transform="translate(11.148 3.263)" fill="#f1cdc3"/>
                  <line id="Línea_3239" data-name="Línea 3239" y1="0.324" x2="1.978" transform="translate(1.582)" fill="none" stroke="#141482" stroke-linecap="round" stroke-miterlimit="10" stroke-width="0.75"/>
                  <line id="Línea_3240" data-name="Línea 3240" x1="1.978" y1="0.324" transform="translate(11.873)" fill="none" stroke="#141482" stroke-linecap="round" stroke-miterlimit="10" stroke-width="0.75"/>
                </g>
              </g>
              <path id="Trazado_875853" data-name="Trazado 875853" d="M262.14,111.129s9.817-4.763,9.68-9.371c0,0,3.537,6.6,8.117,8.072l.173-5.1a7.884,7.884,0,0,0-1.459-5.082c-1.591-2.179-4.594-4.512-9.94-3.377-9.275,1.964-12.228,10.505-6.568,14.853Z" transform="translate(-253.494 -94.705)" fill="#ceb2fa"/>
              <circle id="Elipse_11564" data-name="Elipse 11564" cx="4.166" cy="4.166" r="4.166" transform="matrix(0.185, -0.983, 0.983, 0.185, 2.88, 8.188)" fill="#ceb2fa"/>
            </g>
          </g>
        </g>
        <g id="Grupo_1102852" data-name="Grupo 1102852" transform="translate(28.086 41.229)" opacity="0.97">
          <path id="Trazado_875854" data-name="Trazado 875854" d="M65.222,101.727a6.549,6.549,0,0,1,2.06.337A9.75,9.75,0,0,1,75.9,96.887c.21,0,.419.009.624.023a12.267,12.267,0,0,1,11.636-8.4,12.43,12.43,0,0,1,11.786,8.883A9.763,9.763,0,0,1,109.113,99a4.576,4.576,0,0,1-2.839,8.163H64.288a2.663,2.663,0,0,1-.665-5.241A6.6,6.6,0,0,1,65.222,101.727Z" transform="translate(-61.623 -88.51)" fill="#e9efff"/>
        </g>
        <g id="Grupo_1102853" data-name="Grupo 1102853" transform="translate(192.814 148.148)" opacity="0.97">
          <path id="Trazado_875855" data-name="Trazado 875855" d="M426.652,336.317a6.548,6.548,0,0,1,2.06.337,9.75,9.75,0,0,1,8.614-5.178c.21,0,.419.009.624.023a12.268,12.268,0,0,1,11.636-8.4,12.43,12.43,0,0,1,11.786,8.883,9.737,9.737,0,0,1,9.17,1.6,4.579,4.579,0,0,1-2.84,8.167H425.718a2.663,2.663,0,0,1-.665-5.241A6.6,6.6,0,0,1,426.652,336.317Z" transform="translate(-423.053 -323.1)" fill="#fff"/>
        </g>
        <g id="Grupo_1102854" data-name="Grupo 1102854" transform="translate(47.363 94.568)">
          <path id="Trazado_875856" data-name="Trazado 875856" d="M103.92,205.54l10.232,1.787,2.589,26.731,24.124,4.207,7.753-18.531" transform="translate(-103.92 -205.54)" fill="none" stroke="#bac2ff" stroke-linecap="round" stroke-linejoin="round" stroke-width="8"/>
          <path id="Trazado_875857" data-name="Trazado 875857" d="M134.682,281.882a3.294,3.294,0,1,1-2.68-3.81A3.3,3.3,0,0,1,134.682,281.882Z" transform="translate(-117.103 -244.988)" fill="#bac2ff"/>
          <path id="Trazado_875858" data-name="Trazado 875858" d="M176.572,289.182a3.294,3.294,0,1,1-2.68-3.81A3.3,3.3,0,0,1,176.572,289.182Z" transform="translate(-139.901 -248.961)" fill="#bac2ff"/>
          <line id="Línea_3241" data-name="Línea 3241" x1="3.076" y2="17.643" transform="translate(18.741 10.205)" fill="none" stroke="#bac2ff" stroke-linecap="round" stroke-linejoin="round" stroke-width="8"/>
          <line id="Línea_3242" data-name="Línea 3242" x1="3.076" y2="17.643" transform="translate(29.839 12.137)" fill="none" stroke="#bac2ff" stroke-linecap="round" stroke-linejoin="round" stroke-width="8"/>
          <line id="Línea_3243" data-name="Línea 3243" x2="33.699" y2="5.875" transform="translate(10.998 8.318)" fill="none" stroke="#bac2ff" stroke-linecap="round" stroke-linejoin="round" stroke-width="8"/>
        </g>
        <g id="Grupo_1102860" data-name="Grupo 1102860" transform="translate(59.972 121.625)">
          <circle id="Elipse_11566" data-name="Elipse 11566" cx="23.741" cy="23.741" r="23.741" transform="translate(0 33.575) rotate(-45)" fill="#ceb2fa"/>
          <g id="Grupo_1102859" data-name="Grupo 1102859" transform="translate(0 0)" clip-path="url(#clip-path-2)">
            <g id="Grupo_1102855" data-name="Grupo 1102855" transform="translate(9.073 14.764)">
              <path id="Trazado_875859" data-name="Trazado 875859" d="M193.557,370.89c-2.124-2.229-10.045-2.762-13.117-2.589l-12.761-.351c-14.12.852-16.189,10.961-16.189,10.961l45.549-.214A12.55,12.55,0,0,0,193.557,370.89Z" transform="translate(-151.49 -335.749)" fill="#14227c"/>
              <path id="Trazado_875860" data-name="Trazado 875860" d="M185.108,336.469a3.309,3.309,0,1,1-3.309-3.309A3.309,3.309,0,0,1,185.108,336.469Z" transform="translate(-166.184 -316.815)" fill="#f8e6cf"/>
              <path id="Trazado_875861" data-name="Trazado 875861" d="M225.33,317.882s3.25,1.737,1.395,4.8-3.555,3.5-3.555,3.5l.515-8.482Z" transform="translate(-190.501 -308.402)" fill="#14227c"/>
              <path id="Trazado_875862" data-name="Trazado 875862" d="M226.181,333.531a2.931,2.931,0,1,1-2.931-2.931A2.931,2.931,0,0,1,226.181,333.531Z" transform="translate(-188.95 -315.422)" fill="#f1cdc3"/>
              <path id="Trazado_875863" data-name="Trazado 875863" d="M189.116,345.71l-2.106,10.141s7.507,6.144,13.65.656v-5.529Z" transform="translate(-170.821 -323.646)" fill="#f8e6cf"/>
              <path id="Trazado_875864" data-name="Trazado 875864" d="M191.03,347.032l.273-1.322,11.545,4.845v2.493S194.763,356.275,191.03,347.032Z" transform="translate(-173.009 -323.646)" fill="#f1cdc3"/>
              <path id="Trazado_875865" data-name="Trazado 875865" d="M186.188,317.348s-1.153,10.022,10.378,11.668c0,0,6.3.8,7.894-1.732l-.889-16.945s-3.1-8.828-12.821-4.881-4.567,11.886-4.567,11.886Z" transform="translate(-169.63 -301.186)" fill="#f8e6cf"/>
              <path id="Trazado_875866" data-name="Trazado 875866" d="M182.363,313.77a2.889,2.889,0,0,0,.679-2.981,7.246,7.246,0,0,0,4.918-4.339,13.936,13.936,0,0,0,2.265.953,16.966,16.966,0,0,0,5.743.889,14.843,14.843,0,0,0,5.4-1.139,7.251,7.251,0,0,0,3.168-2.147,5.186,5.186,0,0,0,.861-4.462,4.087,4.087,0,0,0-1.6-1.992,7.63,7.63,0,0,0-3.842-1.24,17.165,17.165,0,0,0-5.483.953,4.7,4.7,0,0,1-3.24-.214,3.1,3.1,0,0,0-1.29-.419,4.939,4.939,0,0,0-2.94.793,13.555,13.555,0,0,0-2.735,2.475c-.574.62-1.026,1.427-1.91,1.627a6.021,6.021,0,0,0-2.8,1.107,5.343,5.343,0,0,0-1.308,6.089,12.921,12.921,0,0,0,2.484,3.933.979.979,0,0,0,1.636.132Z" transform="translate(-165.828 -297.298)" fill="#14227c"/>
              <path id="Trazado_875867" data-name="Trazado 875867" d="M201.98,372.475l1.527,4.576,1.777-4.941Z" transform="translate(-178.968 -338.013)" fill="#f8e6cf"/>
            </g>
            <g id="Grupo_1102858" data-name="Grupo 1102858" transform="translate(24.687 29.686)">
              <g id="Grupo_1102856" data-name="Grupo 1102856" transform="translate(4.48)">
                <circle id="Elipse_11567" data-name="Elipse 11567" cx="0.574" cy="0.574" r="0.574" transform="translate(2.566 2.812)" fill="#141482"/>
                <path id="Trazado_875868" data-name="Trazado 875868" d="M223.009,336.784a.574.574,0,1,1-.574-.574A.575.575,0,0,1,223.009,336.784Z" transform="translate(-209.882 -333.398)" fill="#141482"/>
                <path id="Trazado_875869" data-name="Trazado 875869" d="M213.75,340.894l-.542-.939a.38.38,0,0,0-.656,0l-.542.939a.38.38,0,0,0,.328.57h1.085A.379.379,0,0,0,213.75,340.894Z" transform="translate(-204.493 -335.334)" fill="#efc0b6"/>
                <path id="Trazado_875870" data-name="Trazado 875870" d="M198.77,340.185a1.6,1.6,0,1,1-1.6-1.6A1.6,1.6,0,0,1,198.77,340.185Z" transform="translate(-195.58 -334.693)" fill="#f1cdc3"/>
                <circle id="Elipse_11568" data-name="Elipse 11568" cx="1.595" cy="1.595" r="1.595" transform="translate(11.148 4.175)" fill="#f1cdc3"/>
                <line id="Línea_3244" data-name="Línea 3244" y1="0.324" x2="1.978" transform="translate(1.582)" fill="none" stroke="#141482" stroke-linecap="round" stroke-miterlimit="10" stroke-width="2"/>
                <line id="Línea_3245" data-name="Línea 3245" x1="1.978" y1="0.324" transform="translate(11.873)" fill="none" stroke="#141482" stroke-linecap="round" stroke-miterlimit="10" stroke-width="2"/>
              </g>
              <path id="Trazado_875871" data-name="Trazado 875871" d="M207.65,345.14l4.3.643S209.113,347.856,207.65,345.14Z" transform="translate(-197.669 -338.258)" fill="#141482"/>
              <g id="Grupo_1102857" data-name="Grupo 1102857" transform="translate(0 1.098)">
                <path id="Trazado_875872" data-name="Trazado 875872" d="M202.178,335.039a2.589,2.589,0,1,1-2.589-2.589A2.587,2.587,0,0,1,202.178,335.039Z" transform="translate(-191.873 -332.45)" fill="none" stroke="#141482" stroke-miterlimit="10" stroke-width="0.5"/>
                <path id="Trazado_875873" data-name="Trazado 875873" d="M222.788,335.039a2.589,2.589,0,1,1-2.589-2.589A2.587,2.587,0,0,1,222.788,335.039Z" transform="translate(-203.089 -332.45)" fill="none" stroke="#141482" stroke-miterlimit="10" stroke-width="0.5"/>
                <line id="Línea_3246" data-name="Línea 3246" x2="5.127" y2="2.265" transform="translate(0 0.324)" fill="none" stroke="#141482" stroke-miterlimit="10" stroke-width="0.5"/>
                <line id="Línea_3247" data-name="Línea 3247" x2="4.211" transform="translate(10.305 2.589)" fill="none" stroke="#141482" stroke-miterlimit="10" stroke-width="0.5"/>
              </g>
            </g>
          </g>
        </g>
        <g id="Grupo_1102862" data-name="Grupo 1102862" transform="translate(109.576 139.994)">
          <path id="Trazado_875874" data-name="Trazado 875874" d="M244.171,312.006v2.58L240.42,318.8h29.716a6.8,6.8,0,0,0,6.8-6.8h0a6.8,6.8,0,0,0-6.8-6.8H250.962a6.8,6.8,0,0,0-6.8,6.8Z" transform="translate(-240.42 -305.21)" fill="#fff"/>
          <g id="Grupo_1102861" data-name="Grupo 1102861" transform="translate(12.967 5.67)">
            <path id="Trazado_875875" data-name="Trazado 875875" d="M271.121,318.776A1.126,1.126,0,1,1,270,317.65,1.125,1.125,0,0,1,271.121,318.776Z" transform="translate(-268.87 -317.65)" fill="#664fed"/>
            <path id="Trazado_875876" data-name="Trazado 875876" d="M284.562,318.776a1.126,1.126,0,1,1-1.126-1.126A1.125,1.125,0,0,1,284.562,318.776Z" transform="translate(-276.185 -317.65)" fill="#664fed"/>
            <path id="Trazado_875877" data-name="Trazado 875877" d="M297.992,318.776a1.126,1.126,0,1,1-1.126-1.126A1.125,1.125,0,0,1,297.992,318.776Z" transform="translate(-283.494 -317.65)" fill="#664fed"/>
          </g>
        </g>
        <g id="Grupo_1102863" data-name="Grupo 1102863" transform="translate(186.869 78.348)">
          <rect id="Rectángulo_403166" data-name="Rectángulo 403166" width="25.742" height="16.07" transform="translate(0.004 7.552) rotate(-17.06)" fill="#fff"/>
          <path id="Trazado_875878" data-name="Trazado 875878" d="M425.684,184.752l-15.674-7.21,24.611-7.552Z" transform="translate(-410.01 -169.973)" fill="#ceb2fa"/>
        </g>
        <g id="Grupo_1102864" data-name="Grupo 1102864" transform="translate(211.083 54.032)">
          <path id="Trazado_875879" data-name="Trazado 875879" d="M492.3,121.112a24.334,24.334,0,0,0-28.23,0,2.221,2.221,0,0,0-.483,3.145l.155.205a2.206,2.206,0,0,0,3.04.465,19.661,19.661,0,0,1,22.8,0,2.206,2.206,0,0,0,3.04-.465l.155-.205a2.221,2.221,0,0,0-.483-3.145Z" transform="translate(-463.138 -116.6)" fill="#57e5de"/>
          <path id="Trazado_875880" data-name="Trazado 875880" d="M493.134,135.2a17.314,17.314,0,0,0-19.744,0,2.2,2.2,0,0,0-.469,3.127l.159.21a2.19,2.19,0,0,0,2.981.51,12.621,12.621,0,0,1,14.4,0,2.19,2.19,0,0,0,2.981-.51l.16-.21A2.2,2.2,0,0,0,493.134,135.2Z" transform="translate(-468.216 -125.041)" fill="#57e5de"/>
          <path id="Trazado_875881" data-name="Trazado 875881" d="M493.84,149.3a10.181,10.181,0,0,0-10.856,0,2.224,2.224,0,0,0-.606,3.222l.16.21a2.244,2.244,0,0,0,2.994.5,5.509,5.509,0,0,1,5.77,0,2.245,2.245,0,0,0,2.994-.5l.16-.21a2.224,2.224,0,0,0-.606-3.222Z" transform="translate(-473.366 -133.542)" fill="#57e5de"/>
        </g>
        <path id="Trazado_875882" data-name="Trazado 875882" d="M332.581,235.463l3.573-3.573L320.07,228.38l3.514,16.079,3.573-3.569,7.538,7.538,5.428-5.424Z" transform="translate(-174.193 -123.402)" fill="#fff"/>
        <g id="Grupo_1102865" data-name="Grupo 1102865" transform="translate(69.751 0.89)">
          <path id="Trazado_875883" data-name="Trazado 875883" d="M176.325,24.06l-6.089,5L162.7,26.763a10.241,10.241,0,0,1-7.347-7.625L153.04,7.456,164.471,0l13.413,2.525L180.2,14.206a10.232,10.232,0,0,1-3.883,9.849Z" transform="translate(-153.04)" fill="#4a28db"/>
          <path id="Trazado_875884" data-name="Trazado 875884" d="M174.63,22.633l4.7,3.045,8.249-13.158" transform="translate(-164.79 -6.814)" fill="none" stroke="#57e5de" stroke-linecap="round" stroke-linejoin="round" stroke-width="8"/>
        </g>
      </g>
    </g>
  </g>
</svg>
