<svg xmlns="http://www.w3.org/2000/svg" xmlns:xlink="http://www.w3.org/1999/xlink" width="295" height="180" viewBox="0 0 295 180">
  <defs>
    <clipPath id="clip-path">
      <rect id="Rectángulo_410357" data-name="Rectángulo 410357" width="295" height="180" transform="translate(915.289 5524)" fill="#fff" stroke="#707070" stroke-width="1"/>
    </clipPath>
    <clipPath id="clip-path-2">
      <rect id="Rectángulo_410356" data-name="Rectángulo 410356" width="273.996" height="284.722" fill="none"/>
    </clipPath>
  </defs>
  <g id="img16" transform="translate(-915.289 -5524)" clip-path="url(#clip-path)">
    <g id="Grupo_1121790" data-name="Grupo 1121790" transform="translate(925.791 5510.815)">
      <g id="Grupo_1121789" data-name="Grupo 1121789" transform="translate(0 -0.004)" clip-path="url(#clip-path-2)">
        <path id="Trazado_910913" data-name="Trazado 910913" d="M879.155,626.235c-.063,0-1.922-.384-5.519-1.143a.159.159,0,1,1,.067-.312c2.118.447,5.323,1.118,5.471,1.137a.152.152,0,0,1,.151.159.17.17,0,0,1-.169.159" transform="translate(-813.406 -581.788)" fill="#1f0f0a"/>
        <path id="Trazado_910914" data-name="Trazado 910914" d="M541.944,335.42a3.919,3.919,0,0,1-1.219-3.308c-1.305,1.828-.87,3.135.871,3.744-2.7,2-3.655,4.876-3.046,9.141a63.4,63.4,0,0,0,2.089,8.879l12.362,2,9.925-11.839a11.571,11.571,0,0,0,1.132-5.049c.348,1.219,1.828.434,1.741-2.612s-4.092-3.135-8.1-3.483-6.181-2.35-9.836-1.741-5.748,1.826-5.923,4.265" transform="translate(-501.33 -308.263)" fill="#1f0f0a"/>
        <path id="Trazado_910915" data-name="Trazado 910915" d="M550.932,429.691c-1.219,3.192-3.888,3.192-5.687,3.482l-.209,4.548L532.3,435.5A42.565,42.565,0,0,0,530.852,424c-1.684,2.031-6.094.29-5.977-3.715s4.121-4.586,5.862-1.741a1.4,1.4,0,0,0,1.974-1.1c1.393.813,2.495,0,2.2-2.437s1.509-7.6-.523-7.545a3.153,3.153,0,0,0,2.554-3.946c1.914,2.264,8.531,3.075,9.112,2.379a2.338,2.338,0,0,0,.465-1.626c1.276.928,3.482,3.017,4.005,5.454s.175,8.126.175,10.215,1.042,7.257.229,9.752" transform="translate(-488.758 -375.752)" fill="#ff8f6e"/>
        <path id="Trazado_910916" data-name="Trazado 910916" d="M793.233,3901.5a25.962,25.962,0,0,0-1.8,11.877H831.4c-1.485-4.348-10.5-10.073-18.451-11.24s-9.649-5.3-9.649-5.3Z" transform="translate(-736.88 -3628.709)" fill="#e68164"/>
        <path id="Trazado_910917" data-name="Trazado 910917" d="M792.778,3961.846c.442.474,1.026,1.154,1.772,2.12h13.479a4.278,4.278,0,0,1,1.053-3.679,20.614,20.614,0,0,0,3.877.936c7.953,1.166,16.965,6.893,18.45,11.24H791.435a25.606,25.606,0,0,1,1.343-10.617" transform="translate(-736.885 -3687.792)" fill="#000724"/>
        <path id="Trazado_910918" data-name="Trazado 910918" d="M641.187,1974.724c-3.237,22.658,8.38,140.312,8.38,140.312l18.936-3.722-.485-3.56-2.751-1.941,1.134-1.619-.647-124.509Z" transform="translate(-596.538 -1838.849)" fill="#000724"/>
        <path id="Trazado_910919" data-name="Trazado 910919" d="M464.986,3901.5a25.962,25.962,0,0,0-1.8,11.877h39.975c-1.485-4.348-10.5-10.073-18.451-11.24s-9.649-5.3-9.649-5.3Z" transform="translate(-431.219 -3628.709)" fill="#ff8f6e"/>
        <path id="Trazado_910920" data-name="Trazado 910920" d="M464.531,3961.846c.442.474,1.026,1.154,1.772,2.12h13.479a4.279,4.279,0,0,1,1.053-3.679,20.613,20.613,0,0,0,3.877.936c7.953,1.166,16.965,6.893,18.451,11.24H463.188a25.607,25.607,0,0,1,1.343-10.617" transform="translate(-431.224 -3687.792)" fill="#000f4e"/>
        <path id="Trazado_910921" data-name="Trazado 910921" d="M491.506,4029.286h28.709a.159.159,0,0,0,.038-.313c-.106-.025-10.667-2.525-12.874-5.352a.159.159,0,1,0-.25.2c1.831,2.345,8.886,4.389,11.8,5.151H491.506a.159.159,0,1,0,0,.317" transform="translate(-457.539 -3746.711)" fill="#2f4394"/>
        <path id="Trazado_910922" data-name="Trazado 910922" d="M761.347,3968.149h.011a.157.157,0,0,0,.148-.169c0-.024-.128-2.324,1.613-3.064a.16.16,0,0,0-.124-.294c-1.95.829-1.808,3.352-1.806,3.378a.158.158,0,0,0,.159.149" transform="translate(-708.811 -3691.817)" fill="#2f4394"/>
        <path id="Trazado_910923" data-name="Trazado 910923" d="M809.89,3982.583h.011a.158.158,0,0,0,.148-.169c0-.024-.128-2.324,1.613-3.065a.159.159,0,1,0-.124-.294c-1.95.829-1.808,3.352-1.806,3.378a.157.157,0,0,0,.159.149" transform="translate(-754.014 -3705.258)" fill="#2f4394"/>
        <path id="Trazado_910924" data-name="Trazado 910924" d="M849.761,3997.044h.011a.158.158,0,0,0,.148-.169c0-.023-.128-2.323,1.613-3.065a.159.159,0,0,0-.124-.293c-1.95.829-1.808,3.353-1.806,3.378a.159.159,0,0,0,.159.15" transform="translate(-791.141 -3718.724)" fill="#2f4394"/>
        <path id="Trazado_910925" data-name="Trazado 910925" d="M427.214,1997.734c-3.237,22.658-.972,138.428-.972,138.428l18.936-3.722-.485-3.56-2.751-1.941,1.132-1.619,10.682-108.164s2.59.972,2.59-.971-.324-18.773-.324-18.773Z" transform="translate(-396.196 -1859.975)" fill="#000f4e"/>
        <path id="Trazado_910926" data-name="Trazado 910926" d="M307.14,866.224l7.65-2.68a3.174,3.174,0,0,0,2.122-3.131,2.306,2.306,0,0,1,3.012-2.293l.595.193a22.885,22.885,0,0,0,10.491.4l.213-.05a2.3,2.3,0,0,1,2.806,1.82,2.575,2.575,0,0,0,1.136,1.691,32.764,32.764,0,0,1,12.131,11.354c.186.294.366.58.543.856l9.634,15.008,4.047-21.2h5.745l3.075,11.086-2.751,25.733-2.751,5.377a6.74,6.74,0,0,1-10.923,1.534l-9.793-10.471,1.294,39.812a50.288,50.288,0,0,1-26.542-.324l.629,5.652-12.937.478-9.132-29.484a49.08,49.08,0,0,1-1.75-16.744c.58-8.515,1.894-21.023,4.788-28.258a11.139,11.139,0,0,1,6.669-6.357" transform="translate(-275.232 -798.969)" fill="#5800ff"/>
        <path id="Trazado_910927" data-name="Trazado 910927" d="M1442.616,1669.364a33.834,33.834,0,0,0-1.379-7c-.954-2.439-4.241-3.181-10.285-3.181h-16.268a1.372,1.372,0,0,0-.957,2.356A7,7,0,0,0,1417.8,1663c4.665.53,11.028-.53,12.937,1.909s3.288,7.1,3.288,7.1l9.968-1.485Z" transform="translate(-1316.063 -1545.02)" fill="#ff8f6e"/>
        <path id="Trazado_910928" data-name="Trazado 910928" d="M2199.621,701.289l-8.7-8.324-.319,8.589,8.166,7.527,1.909-1.59Z" transform="translate(-2039.877 -645.284)" fill="#ff8f6e"/>
        <path id="Trazado_910929" data-name="Trazado 910929" d="M2893.991,2890.64l7,68.923a39.475,39.475,0,0,0-9.543,12.088s-5.991,1.8-5.831,3.075h13.043c3.182-1.75,10-8.792,9.622-7.078-.159.715-.317,7.237-.317,7.237h2.941c.875-2.545,3.9-9.782,3.1-13.36s-1.909-2.783-2.305-4.454,2.226-26.139,3.288-43.528-1.06-24.6-1.06-24.6Z" transform="translate(-2687.064 -2690.163)" fill="#e68164"/>
        <path id="Trazado_910930" data-name="Trazado 910930" d="M2885.592,3912.809h13.043c3.182-1.75,10-8.792,9.622-7.078-.158.716-.317,7.237-.317,7.237h2.942c.874-2.545,3.9-9.782,3.1-13.36-.5-2.255-1.128-2.774-1.624-3.266-7.715,4.411-15.879,15.778-20.937,13.393,0,0-5.989,1.8-5.831,3.075" transform="translate(-2687.04 -3628.246)" fill="#000724"/>
        <path id="Trazado_910931" data-name="Trazado 910931" d="M3176,2890.64l7,68.923a39.489,39.489,0,0,0-9.543,12.088s-5.991,1.8-5.83,3.075h13.043c3.181-1.75,10-8.792,9.622-7.078-.159.715-.318,7.237-.318,7.237h2.942c.874-2.545,3.9-9.782,3.1-13.36s-1.909-2.783-2.306-4.454,2.226-26.139,3.288-43.528-1.06-24.6-1.06-24.6Z" transform="translate(-2949.669 -2690.163)" fill="#ff8f6e"/>
        <path id="Trazado_910932" data-name="Trazado 910932" d="M3167.6,3912.809h13.042c3.181-1.75,10-8.792,9.622-7.078-.159.716-.317,7.237-.317,7.237h2.941c.875-2.545,3.9-9.782,3.1-13.36-.5-2.255-1.128-2.774-1.624-3.266-7.715,4.411-15.879,15.778-20.937,13.393,0,0-5.99,1.8-5.831,3.075" transform="translate(-2949.646 -3628.246)" fill="#000f4e"/>
        <path id="Trazado_910933" data-name="Trazado 910933" d="M2969.428,443.775h14.633c6.68-9.542,3.659-22.9-2.226-31.969s-3.657-9.7-2.863-19.087-3.818-10.339-11.293-13.838c-9.067-4.613-17.972-.317-19.4,6.839s.317,9.384-3.34,19.4a73.648,73.648,0,0,0-3.818,21.154l14.156,14.155c.477.479,14.155,3.342,14.155,3.342" transform="translate(-2738.749 -351.03)" fill="#1f0f0a"/>
        <path id="Trazado_910934" data-name="Trazado 910934" d="M2675.944,1541.821c-20.519,31.89-21.472,93.284-21.472,93.284s68.234,1.114,69.347,0c3.182-34.992-15.269-93.841-15.269-93.841l-25.131-3.818Z" transform="translate(-2471.826 -1431.659)" fill="#000f4e"/>
        <path id="Trazado_910935" data-name="Trazado 910935" d="M2316.882,818.737c3.949,2.81,3.98,5.321,3.949,16.17-.052,19.3-.688,50.792-.688,50.792h-10.895l-.795-17.575H2284.2c-.954-8.827-5.408-17.416-5.727-19.325s1.59-7.316,1.909-8.111l-18.35,5.608a7.8,7.8,0,0,1-7.875-2.021l-20.378-20.924,6.044-9.384,19.4,15.747c8.906-2.386,23.222-10.974,26.933-9.542l2.015,3.023,11.452.954,9.7-.636Z" transform="translate(-2080.079 -757.961)" fill="#5800ff"/>
        <path id="Trazado_910936" data-name="Trazado 910936" d="M2994.262,468.207c-.423,3.181,1.273,9.013,10.6,9.649s13.719-3.884,20.12-11.08c-2.028-.874-5.913.569-9.411,1.961s-1.339-9.478.213-11.823c2.585,1.312,4.7-1.154,6.057-3.976a10.314,10.314,0,0,1-3.659-.993l-1.233,1.392a5.023,5.023,0,0,0,.238-1.988c-5.527-1.909-9.622-9.782-6.879-15.348-4.811,1.617-7.462,4.268-8.628,6.707a29.358,29.358,0,0,0-1.961,6.628c-.478,2.015-1.379,6.467-.53,10.02s3.392,4.878,5.249,4.719c-.052,3.023-.966,6.723-3.181,6.68-2.7-.056-7-2.547-7-2.547" transform="translate(-2788.181 -406)" fill="#ff8f6e"/>
        <path id="Trazado_910937" data-name="Trazado 910937" d="M2513.621,1164.129c2.812,1.669,1.231,7.206-1.494,10.9s-9.755,7.207-9.755,7.207l-11.6-17.665c-.352-4.306,4.746-10.2,5.975-9.842-.263-1.934.966-3.866,2.372-3.866s1.758,2.637,5.538,4.921,9.932,3.513,8.966,8.348" transform="translate(-2319.373 -1071.672)" fill="#1f0f0a"/>
        <path id="Trazado_910938" data-name="Trazado 910938" d="M2654.189,2099.832h-45.953l4.877-67.684h51.322Z" transform="translate(-2428.771 -1892.322)" fill="#f0a355"/>
        <path id="Trazado_910939" data-name="Trazado 910939" d="M1719.607,1711.6l3.818,3.392,10.75,3.282a7.384,7.384,0,0,1,4.531,3.935l17.814,38.138a9.552,9.552,0,0,1-12.288,12.877l-8.294-3.412-.423,8.483-44.641-1.379.849-26.4-10.6,9.376a9.25,9.25,0,0,1-13.96-3.017l-18.232-37.453,14.368-1.459,12.194,20.464,16.844-20.783a5.809,5.809,0,0,1,3.29-2.021l7.861-1.691,5.62-2.122Z" transform="translate(-1535.476 -1593.833)" fill="#66a2fe"/>
        <path id="Trazado_910940" data-name="Trazado 910940" d="M1651.717,1811.316l14.793-1.909-3.208-5.355-14.368,1.458Z" transform="translate(-1535.475 -1679.92)" fill="#fff"/>
        <rect id="Rectángulo_410344" data-name="Rectángulo 410344" width="22.863" height="66.591" transform="translate(69.718 218.079)" fill="#2a345e"/>
        <rect id="Rectángulo_410345" data-name="Rectángulo 410345" width="21.776" height="66.591" transform="translate(92.583 218.079)" fill="#3e4d8c"/>
        <path id="Trazado_910941" data-name="Trazado 910941" d="M3203.79,2093.749l9.382-56.906a5.408,5.408,0,0,1,10.781.863l-9.382,56.906a5.408,5.408,0,0,1-10.781-.864" transform="translate(-2983.331 -1892.061)" fill="#ffd35a"/>
        <path id="Trazado_910942" data-name="Trazado 910942" d="M2315.626,3038.495h-33.294a5.407,5.407,0,1,1,0-10.815h33.294a5.407,5.407,0,1,1,0,10.815" transform="translate(-2120.256 -2819.354)" fill="#f0a355"/>
        <path id="Trazado_910943" data-name="Trazado 910943" d="M1143.888,3901.5a25.964,25.964,0,0,1,1.8,11.877h-39.974c1.485-4.348,10.5-10.073,18.45-11.24s9.649-5.3,9.649-5.3Z" transform="translate(-1029.635 -3628.709)" fill="#e68164"/>
        <path id="Trazado_910944" data-name="Trazado 910944" d="M1144.348,3961.846c-.442.474-1.026,1.154-1.772,2.12H1129.1a4.279,4.279,0,0,0-1.053-3.679,20.609,20.609,0,0,1-3.877.936c-7.953,1.166-16.965,6.893-18.451,11.24h39.975a25.607,25.607,0,0,0-1.343-10.617" transform="translate(-1029.635 -3687.792)" fill="#000724"/>
        <path id="Trazado_910945" data-name="Trazado 910945" d="M1266.917,4029.286h-28.709a.159.159,0,0,1-.038-.313c.106-.025,10.667-2.525,12.874-5.352a.159.159,0,1,1,.25.2c-1.831,2.345-8.886,4.389-11.8,5.151h27.42a.158.158,0,0,1,.159.159.155.155,0,0,1-.157.158" transform="translate(-1152.862 -3746.711)" fill="#152b8a"/>
        <path id="Trazado_910946" data-name="Trazado 910946" d="M1362.428,3968.149h-.011a.157.157,0,0,1-.148-.169c0-.024.128-2.324-1.613-3.064a.16.16,0,0,1,.124-.294c1.951.829,1.808,3.352,1.806,3.378a.159.159,0,0,1-.159.149" transform="translate(-1266.943 -3691.817)" fill="#152b8a"/>
        <path id="Trazado_910947" data-name="Trazado 910947" d="M1313.885,3982.583h-.011a.158.158,0,0,1-.148-.169c0-.024.128-2.324-1.613-3.065a.159.159,0,1,1,.124-.294c1.95.829,1.808,3.352,1.806,3.378a.158.158,0,0,1-.158.149" transform="translate(-1221.74 -3705.258)" fill="#152b8a"/>
        <path id="Trazado_910948" data-name="Trazado 910948" d="M1274.014,3997.044H1274a.158.158,0,0,1-.148-.169c0-.023.128-2.323-1.613-3.065a.159.159,0,0,1,.125-.293c1.95.829,1.808,3.353,1.806,3.378a.159.159,0,0,1-.158.15" transform="translate(-1184.612 -3718.724)" fill="#152b8a"/>
        <path id="Trazado_910949" data-name="Trazado 910949" d="M1463.8,2688.639c.424,12.512-4.028,21.843-10.179,23.329s-35.416,0-35.416,0l-4.878,65.954-21-4.665,3.717-72.658a11.091,11.091,0,0,1,10.8-10.521Z" transform="translate(-1296.534 -2503.642)" fill="#000724"/>
        <path id="Trazado_910950" data-name="Trazado 910950" d="M1712.928,2968.008a.094.094,0,0,1-.023,0l-3.738-.557a.159.159,0,0,1-.134-.18.161.161,0,0,1,.18-.133l3.49.519-1.121-3.736a.159.159,0,1,1,.3-.092l1.193,3.977a.156.156,0,0,1-.032.15.152.152,0,0,1-.119.056" transform="translate(-1591.438 -2759.789)" fill="#152b8a"/>
        <path id="Trazado_910951" data-name="Trazado 910951" d="M1610.822,3901.5a25.964,25.964,0,0,1,1.8,11.877h-39.976c1.485-4.348,10.5-10.073,18.45-11.24s9.649-5.3,9.649-5.3Z" transform="translate(-1464.439 -3628.709)" fill="#ff8f6e"/>
        <path id="Trazado_910952" data-name="Trazado 910952" d="M1611.281,3961.846c-.442.474-1.026,1.154-1.772,2.12h-13.481a4.279,4.279,0,0,0-1.052-3.679,20.62,20.62,0,0,1-3.878.936c-7.953,1.166-16.965,6.893-18.45,11.24h39.974a25.544,25.544,0,0,0-1.341-10.617" transform="translate(-1464.439 -3687.792)" fill="#000f4e"/>
        <path id="Trazado_910953" data-name="Trazado 910953" d="M1733.848,4029.286h-28.709a.159.159,0,0,1-.038-.313c.106-.025,10.667-2.525,12.873-5.352a.159.159,0,1,1,.251.2c-1.832,2.345-8.887,4.389-11.8,5.151h27.42a.158.158,0,0,1,.159.159.154.154,0,0,1-.157.158" transform="translate(-1587.665 -3746.711)" fill="#2f4394"/>
        <path id="Trazado_910954" data-name="Trazado 910954" d="M1829.36,3968.149h-.011a.158.158,0,0,1-.148-.169c0-.024.128-2.324-1.613-3.064a.16.16,0,0,1,.125-.294c1.95.829,1.808,3.352,1.806,3.378a.158.158,0,0,1-.158.149" transform="translate(-1701.747 -3691.817)" fill="#2f4394"/>
        <path id="Trazado_910955" data-name="Trazado 910955" d="M1780.818,3982.583h-.011a.158.158,0,0,1-.148-.169c0-.024.128-2.324-1.613-3.065a.16.16,0,1,1,.125-.294c1.95.829,1.808,3.352,1.806,3.378a.157.157,0,0,1-.158.149" transform="translate(-1656.545 -3705.258)" fill="#2f4394"/>
        <path id="Trazado_910956" data-name="Trazado 910956" d="M1740.946,3997.044h-.011a.158.158,0,0,1-.148-.169c0-.023.128-2.323-1.613-3.065a.159.159,0,0,1,.124-.293c1.95.829,1.808,3.353,1.806,3.378a.159.159,0,0,1-.159.15" transform="translate(-1619.417 -3718.724)" fill="#2f4394"/>
        <path id="Trazado_910957" data-name="Trazado 910957" d="M1930.763,2688.639c.423,12.512-4.029,21.843-10.179,23.329s-35.416,0-35.416,0l-4.877,65.954-21-4.665,3.717-72.658a11.091,11.091,0,0,1,10.8-10.521Z" transform="translate(-1731.363 -2503.642)" fill="#000f4e"/>
        <path id="Trazado_910958" data-name="Trazado 910958" d="M1260.706,2016.115H1213.44a1.392,1.392,0,0,1-1.391-1.392V1984.21a1.393,1.393,0,0,1,1.391-1.392h47.266a1.393,1.393,0,0,1,1.392,1.392v30.512a1.393,1.393,0,0,1-1.392,1.393" transform="translate(-1128.652 -1846.387)" fill="#4b5eab"/>
        <path id="Trazado_910959" data-name="Trazado 910959" d="M1223.717,2016.115h-47.266a1.392,1.392,0,0,1-1.391-1.392V1984.21a1.393,1.393,0,0,1,1.391-1.392h47.266a1.393,1.393,0,0,1,1.392,1.392v30.512a1.393,1.393,0,0,1-1.392,1.393" transform="translate(-1094.208 -1846.387)" fill="#3e4d8c"/>
        <rect id="Rectángulo_410346" data-name="Rectángulo 410346" width="8.987" height="13.519" transform="translate(102.019 166.943)" fill="#4b5eab"/>
        <rect id="Rectángulo_410347" data-name="Rectángulo 410347" width="8.987" height="13.519" transform="translate(101.383 166.943)" fill="#3b4a87"/>
        <path id="Trazado_910960" data-name="Trazado 910960" d="M1473.492,2618.2H1453.61v-2.386h17.5a2.387,2.387,0,0,1,2.387,2.386" transform="translate(-1353.592 -2435.826)" fill="#3e4d8c"/>
        <path id="Trazado_910961" data-name="Trazado 910961" d="M999.4,2654.87h-192a2.186,2.186,0,1,1,0-4.373h192a2.186,2.186,0,1,1,0,4.373" transform="translate(-749.808 -2468.125)" fill="#3e4d8c"/>
        <path id="Trazado_910962" data-name="Trazado 910962" d="M1236.771,2393.541a.795.795,0,1,1-.8-.795.8.8,0,0,1,.8.795" transform="translate(-1150.192 -2228.108)" fill="#4b5eab"/>
        <path id="Trazado_910963" data-name="Trazado 910963" d="M1287.619,2393.541a.795.795,0,1,1-.8-.795.8.8,0,0,1,.8.795" transform="translate(-1197.541 -2228.108)" fill="#4b5eab"/>
        <path id="Trazado_910964" data-name="Trazado 910964" d="M1338.467,2393.541a.795.795,0,1,1-.8-.795.795.795,0,0,1,.8.795" transform="translate(-1244.891 -2228.108)" fill="#4b5eab"/>
        <path id="Trazado_910965" data-name="Trazado 910965" d="M1315.362,2342.694a.795.795,0,1,1-.795-.794.795.795,0,0,1,.795.794" transform="translate(-1223.375 -2180.76)" fill="#4b5eab"/>
        <path id="Trazado_910966" data-name="Trazado 910966" d="M1264.514,2342.694a.795.795,0,1,1-.795-.794.795.795,0,0,1,.795.794" transform="translate(-1176.026 -2180.76)" fill="#4b5eab"/>
        <path id="Trazado_910967" data-name="Trazado 910967" d="M2179.86,2968.008a.09.09,0,0,1-.023,0l-3.739-.557a.159.159,0,0,1-.133-.18.161.161,0,0,1,.18-.133l3.49.519-1.122-3.736a.159.159,0,1,1,.3-.092l1.193,3.977a.157.157,0,0,1-.033.15.151.151,0,0,1-.119.056" transform="translate(-2026.242 -2759.789)" fill="#2f4394"/>
        <path id="Trazado_910968" data-name="Trazado 910968" d="M2736.348,3038.495h-33.294a5.407,5.407,0,1,1,0-10.815h33.294a5.407,5.407,0,0,1,0,10.815" transform="translate(-2512.03 -2819.354)" fill="#ffd35a"/>
        <path id="Trazado_910969" data-name="Trazado 910969" d="M2322.931,3796.792c-15.082,0-29.282,5.6-39.2,15.228l3.861,3.546c8.892-8.7,21.706-13.769,35.335-13.769,13.135,0,25.648,4.778,34.508,12.987l3.565-3.812c-9.86-8.97-23.636-14.179-38.073-14.179" transform="translate(-2126.598 -3535.546)" fill="#4b5eab"/>
        <rect id="Rectángulo_410348" data-name="Rectángulo 410348" width="5.456" height="56.819" transform="translate(192.089 221.787)" fill="#4b5eab"/>
        <rect id="Rectángulo_410349" data-name="Rectángulo 410349" width="9.265" height="9.02" transform="translate(190.184 275.65)" fill="#000f4e"/>
        <path id="Trazado_910970" data-name="Trazado 910970" d="M2742.876,3953.516h0a6.538,6.538,0,0,1-6.538-6.538v-1.99h13.074v1.99a6.535,6.535,0,0,1-6.536,6.538" transform="translate(-2548.059 -3673.546)" fill="#3e4d8c"/>
        <path id="Trazado_910971" data-name="Trazado 910971" d="M2220.073,3960.538a6.064,6.064,0,1,1,0,8.576,6.063,6.063,0,0,1,0-8.576" transform="translate(-2065.664 -3686.372)" fill="#000f4e"/>
        <path id="Trazado_910972" data-name="Trazado 910972" d="M2260.564,4004.375a3.392,3.392,0,0,1,0-6.784.227.227,0,1,1,0,.454,2.936,2.936,0,1,0,2.937,2.937.227.227,0,1,1,.454,0,3.392,3.392,0,0,1-3.39,3.394" transform="translate(-2101.863 -3722.529)" fill="#4b5eab"/>
        <path id="Trazado_910973" data-name="Trazado 910973" d="M3282.546,3963.84a6.064,6.064,0,1,1,4.508,7.294,6.064,6.064,0,0,1-4.508-7.294" transform="translate(-3056.531 -3686.75)" fill="#000724"/>
        <path id="Trazado_910974" data-name="Trazado 910974" d="M3324.654,4004.375a3.392,3.392,0,1,1,0-6.784.227.227,0,0,1,0,.454,2.936,2.936,0,1,0,2.936,2.937.227.227,0,0,1,.454,0,3.393,3.393,0,0,1-3.39,3.394" transform="translate(-3092.735 -3722.529)" fill="#4b5eab"/>
        <path id="Trazado_910975" data-name="Trazado 910975" d="M2600.11,3191.069h-18.569a8.487,8.487,0,0,1-8.488-8.488H2608.6a8.49,8.49,0,0,1-8.49,8.488" transform="translate(-2396.01 -2963.597)" fill="#3e4d8c"/>
        <rect id="Rectángulo_410350" data-name="Rectángulo 410350" width="11.77" height="23.752" transform="translate(72.582 223.382)" fill="#3e4d8c"/>
        <path id="Trazado_910976" data-name="Trazado 910976" d="M1122.7,3681.944a6.786,6.786,0,1,1,5.045,8.164,6.786,6.786,0,0,1-5.045-8.164" transform="translate(-1045.282 -3423.732)" fill="#3e4d8c"/>
        <path id="Trazado_910977" data-name="Trazado 910977" d="M1079.246,3281.036a.636.636,0,1,1-.636-.636.637.637,0,0,1,.636.636" transform="translate(-1003.802 -3054.686)" fill="#4b5eab"/>
        <path id="Trazado_910978" data-name="Trazado 910978" d="M1130.094,3281.036a.636.636,0,1,1-.636-.636.637.637,0,0,1,.636.636" transform="translate(-1051.151 -3054.686)" fill="#4b5eab"/>
        <path id="Trazado_910979" data-name="Trazado 910979" d="M1130.094,3331.885a.636.636,0,1,1-.636-.637.636.636,0,0,1,.636.637" transform="translate(-1051.151 -3102.036)" fill="#4b5eab"/>
        <path id="Trazado_910980" data-name="Trazado 910980" d="M1130.094,3382.733a.636.636,0,1,1-.636-.636.636.636,0,0,1,.636.636" transform="translate(-1051.151 -3149.385)" fill="#4b5eab"/>
        <path id="Trazado_910981" data-name="Trazado 910981" d="M1130.094,3433.607a.636.636,0,1,1-.636-.636.636.636,0,0,1,.636.636" transform="translate(-1051.151 -3196.759)" fill="#4b5eab"/>
        <path id="Trazado_910982" data-name="Trazado 910982" d="M1079.246,3331.885a.636.636,0,1,1-.636-.637.636.636,0,0,1,.636.637" transform="translate(-1003.802 -3102.036)" fill="#4b5eab"/>
        <path id="Trazado_910983" data-name="Trazado 910983" d="M1079.246,3382.733a.636.636,0,1,1-.636-.636.637.637,0,0,1,.636.636" transform="translate(-1003.802 -3149.385)" fill="#4b5eab"/>
        <path id="Trazado_910984" data-name="Trazado 910984" d="M1079.246,3433.607a.636.636,0,1,1-.636-.636.636.636,0,0,1,.636.636" transform="translate(-1003.802 -3196.759)" fill="#4b5eab"/>
        <path id="Trazado_910985" data-name="Trazado 910985" d="M1085.075,2463.229h0a.159.159,0,0,1-.159-.16L1085,2438.7a5.613,5.613,0,0,1,5.6-5.582,5.29,5.29,0,0,0,5.285-5.284v-25.678a.159.159,0,0,1,.317,0v25.678a5.608,5.608,0,0,1-5.6,5.6,5.3,5.3,0,0,0-5.285,5.266l-.087,24.372a.158.158,0,0,1-.159.158" transform="translate(-1010.266 -2236.72)" fill="#4b5eab"/>
        <path id="Trazado_910986" data-name="Trazado 910986" d="M1135.923,2463.254a.158.158,0,0,1-.159-.159v-6.044a5.572,5.572,0,0,1,5.566-5.566,5.254,5.254,0,0,0,5.249-5.249v-44.057a.159.159,0,0,1,.317,0v44.057a5.572,5.572,0,0,1-5.566,5.566,5.254,5.254,0,0,0-5.249,5.249v6.044a.157.157,0,0,1-.158.159" transform="translate(-1057.615 -2236.745)" fill="#4b5eab"/>
        <path id="Trazado_910987" data-name="Trazado 910987" d="M2193.976,1995.233l-4.135-10.127-8.324-.743-4.877,4.029c-.159,1.272,2.067,1.644,3.6.743a12.108,12.108,0,0,0,1.8-1.166l2.333.584-2.651.317s-4.4,3.392-4.507,3.553c-.265,1.06,1.06,1.75,2.174,1.273-.954,2.174,1.589,2.174,2.28,1.909-.424,1.855,1.75,2.121,3.87,2.332s2.491,3.712,2.756,5.514,2.6,2.969,5.462,2.969l7.9,3.684,2.226-10.258Z" transform="translate(-2026.865 -1847.826)" fill="#ff8f6e"/>
        <path id="Trazado_910988" data-name="Trazado 910988" d="M2229.3,2081.028a.156.156,0,0,1-.128-.065.159.159,0,0,1,.034-.222l2.387-1.75a.159.159,0,0,1,.094-.03h2.505a.159.159,0,1,1,0,.317h-2.453l-2.343,1.72a.169.169,0,0,1-.1.03" transform="translate(-2075.759 -1935.914)" fill="#1f0f0a"/>
        <path id="Trazado_910989" data-name="Trazado 910989" d="M2256.467,2122.153a.158.158,0,0,1-.123-.058.161.161,0,0,1,.022-.224l1.55-1.272a.172.172,0,0,1,.1-.036l1.79.04a.158.158,0,0,1,0,.317h0l-1.73-.038-1.505,1.235a.152.152,0,0,1-.1.036" transform="translate(-2101.059 -1974.653)" fill="#1f0f0a"/>
        <path id="Trazado_910990" data-name="Trazado 910990" d="M2338.353,2010.223a.153.153,0,0,1-.125-.061,1.26,1.26,0,0,1-.153-1.41,1.145,1.145,0,0,1,1.215-.516.159.159,0,0,1-.047.314.829.829,0,0,0-.894.36.942.942,0,0,0,.128,1.053.159.159,0,0,1-.027.223.144.144,0,0,1-.1.036" transform="translate(-2177.06 -1870.04)" fill="#1f0f0a"/>
        <path id="Trazado_910991" data-name="Trazado 910991" d="M2335.911,2048.352a.161.161,0,0,1-.137.024,1.256,1.256,0,0,1-.939-1.062,1.144,1.144,0,0,1,.694-1.123.16.16,0,1,1,.144.285.829.829,0,0,0-.521.811.943.943,0,0,0,.712.786.162.162,0,0,1,.108.2.181.181,0,0,1-.061.081" transform="translate(-2174.178 -1905.383)" fill="#1f0f0a"/>
        <path id="Trazado_910992" data-name="Trazado 910992" d="M2336.67,2092.651a.162.162,0,0,1-.137.023,1.257,1.257,0,0,1-.939-1.062,1.145,1.145,0,0,1,.694-1.123.16.16,0,1,1,.144.285.829.829,0,0,0-.521.811.942.942,0,0,0,.712.786.156.156,0,0,1,.047.28" transform="translate(-2174.885 -1946.633)" fill="#1f0f0a"/>
        <path id="Trazado_910993" data-name="Trazado 910993" d="M2814.925,1853.141a.161.161,0,0,1-.159-.146c-.043-.494-.966-12.172,6.644-17.324a.16.16,0,1,1,.179.265c-7.457,5.047-6.547,16.545-6.506,17.032a.161.161,0,0,1-.144.173Z" transform="translate(-2621.039 -1709.338)" fill="#000f4e"/>
        <path id="Trazado_910994" data-name="Trazado 910994" d="M2838.381,2167.536a.159.159,0,0,1-.146-.094l-4.215-9.478a.159.159,0,0,1,.291-.128l4.214,9.477a.16.16,0,0,1-.081.211.19.19,0,0,1-.063.011" transform="translate(-2639.007 -2009.274)" fill="#000f4e"/>
        <path id="Trazado_910995" data-name="Trazado 910995" d="M2543.44,2174.288l-2.783,14.819-5.222-2.466,3.127-14.261Z" transform="translate(-2360.979 -2022.905)" fill="#fff"/>
        <path id="Trazado_910996" data-name="Trazado 910996" d="M2558.678,2196.255a.18.18,0,0,1-.067-.014l-25.025-11.558a.158.158,0,0,1-.088-.178l3.075-14.315a.159.159,0,0,1,.214-.114l27.145,10.708a.16.16,0,0,1-.116.3l-26.972-10.64-3.008,14.007,24.909,11.5a.158.158,0,0,1,.078.211.161.161,0,0,1-.146.092" transform="translate(-2359.172 -2020.748)" fill="#000f4e"/>
        <path id="Trazado_910997" data-name="Trazado 910997" d="M2601.458,2196.847a.715.715,0,1,1-.715.715.715.715,0,0,1,.715-.715" transform="translate(-2421.794 -2045.689)" fill="#000f4e"/>
        <path id="Trazado_910998" data-name="Trazado 910998" d="M1685.049,1853.7a.715.715,0,1,1-.716-.715.716.716,0,0,1,.716.715" transform="translate(-1567.774 -1725.489)" fill="#000f4e"/>
        <path id="Trazado_910999" data-name="Trazado 910999" d="M2436.927,1723.956l1.6,3.764,3.632-2.862,1.193,3.127c2.7-1.59,11.241-12.989,11.241-12.989l-3.817-3.392-10.5.213-5.62,2.122-.53,12.194Z" transform="translate(-2266.647 -1593.833)" fill="#fff"/>
        <path id="Trazado_911000" data-name="Trazado 911000" d="M2441.187,1851.568a.157.157,0,0,1-.147-.1l-2.626-6.9-6.35,5.112a.162.162,0,0,1-.224-.023.158.158,0,0,1,.024-.224l6.521-5.249a.153.153,0,0,1,.141-.029.156.156,0,0,1,.106.1l2.7,7.1a.16.16,0,0,1-.092.205.2.2,0,0,1-.056.009" transform="translate(-2264.479 -1717.256)" fill="#aeb3cc"/>
        <path id="Trazado_911001" data-name="Trazado 911001" d="M2036.737,2107.159a.159.159,0,0,1-.132-.07l-2.791-4.138-.047,3.364a.169.169,0,0,1-.161.157.159.159,0,0,1-.157-.16l.052-3.87a.159.159,0,0,1,.29-.087l3.075,4.561a.16.16,0,0,1-.043.221.191.191,0,0,1-.088.023" transform="translate(-1893.535 -1957.632)" fill="#000f4e"/>
        <path id="Trazado_911002" data-name="Trazado 911002" d="M1194.6,1323.139a.162.162,0,0,0,.063-.139l-.312-5.07,2.122,2.686a.171.171,0,0,0,.227.027.161.161,0,0,0,.027-.227l-2.442-3.091a.16.16,0,0,0-.184-.05.162.162,0,0,0-.1.16l.344,5.586a.163.163,0,0,0,.171.151.147.147,0,0,0,.088-.032" transform="translate(-1111.841 -1226.625)" fill="#000f4e"/>
        <path id="Trazado_911003" data-name="Trazado 911003" d="M2580.461,1051.478a.159.159,0,0,1-.094-.117l-.9-4.91-1.39,3.063a.169.169,0,0,1-.211.079.16.16,0,0,1-.08-.211l1.6-3.524a.159.159,0,0,1,.3.038l.989,5.409a.159.159,0,0,1-.128.186.169.169,0,0,1-.091-.013" transform="translate(-2400.406 -973.809)" fill="#000f4e"/>
        <path id="Trazado_911004" data-name="Trazado 911004" d="M2285.936,1795.742h-.006a.158.158,0,0,1-.153-.164c0-.072.267-7.246,2.562-11.835a.158.158,0,1,1,.283.142c-2.264,4.53-2.525,11.634-2.529,11.7a.154.154,0,0,1-.157.153" transform="translate(-2128.5 -1660.927)" fill="#000f4e"/>
        <path id="Trazado_911005" data-name="Trazado 911005" d="M2429.619,1273.581a21.583,21.583,0,0,1-.952,3.94s-1.772,4.981.469,7.177,10.5-2.329,11.132-7.412a21.932,21.932,0,0,1,1.523-10.033c3.515,1.846,5.8-1.846,5.755-4.175s-2.68-2.066-3.252-1.494-1.537,1.934-2.857,1.011.7-7.075,2.9-9.755c-4.263.571-9.49-3.646-10.2-7.515-2.769.7-5.009,3.383-6.415,6.152a56.735,56.735,0,0,0-3.163,8.921c-1.1,3.472-2.461,7.558-.177,10.458a6.65,6.65,0,0,0,5.231,2.724" transform="translate(-2256.418 -1159.639)" fill="#ff8f6e"/>
        <path id="Trazado_911006" data-name="Trazado 911006" d="M2594.581,1442.025c-.171.582-.564.978-.879.885s-.431-.638-.26-1.22.564-.979.88-.885.431.638.26,1.221" transform="translate(-2414.922 -1341.654)" fill="#1f0f0a"/>
        <path id="Trazado_911007" data-name="Trazado 911007" d="M2590.455,1469.214a1.11,1.11,0,0,1-.415-.079.106.106,0,1,1,.077-.2,1.034,1.034,0,0,0,1.262-.51.106.106,0,1,1,.184.1,1.3,1.3,0,0,1-1.108.682" transform="translate(-2411.765 -1367.34)" fill="#1f0f0a"/>
        <path id="Trazado_911008" data-name="Trazado 911008" d="M2501.346,1406.894c-.171.582-.564.979-.879.885s-.431-.638-.26-1.22.564-.979.88-.885.429.638.259,1.22" transform="translate(-2328.102 -1308.941)" fill="#1f0f0a"/>
        <path id="Trazado_911009" data-name="Trazado 911009" d="M2497.219,1434.084a1.114,1.114,0,0,1-.415-.079.106.106,0,0,1,.078-.2,1.034,1.034,0,0,0,1.262-.51.106.106,0,1,1,.184.1,1.3,1.3,0,0,1-1.108.681" transform="translate(-2324.945 -1334.627)" fill="#1f0f0a"/>
        <path id="Trazado_911010" data-name="Trazado 911010" d="M2475.2,1398.847a.136.136,0,0,1-.069-.018c-1.954-1.1-2.648-2.817-2.431-3.281.114-.243.429-.216.908-.173a6.842,6.842,0,0,0,2-.059c1.406-.271,2.295-1.985,2.435-4.7a.146.146,0,0,1,.148-.133.141.141,0,0,1,.133.148c-.147,2.859-1.117,4.668-2.662,4.964a7.225,7.225,0,0,1-2.082.063c-.267-.023-.6-.052-.629.013-.1.216.38,1.83,2.314,2.917a.139.139,0,0,1,.054.191.145.145,0,0,1-.124.072" transform="translate(-2302.529 -1294.805)" fill="#1f0f0a"/>
        <path id="Trazado_911011" data-name="Trazado 911011" d="M2476.334,1535.4c-.987,0-3.7-.49-4.282-2.295a.14.14,0,1,1,.267-.086c.6,1.862,3.82,2.21,4.242,2.084a.14.14,0,0,1,.081.269,1.168,1.168,0,0,1-.307.029" transform="translate(-2301.951 -1427.448)" fill="#1f0f0a"/>
        <path id="Trazado_911012" data-name="Trazado 911012" d="M2478.179,1562.069a2.167,2.167,0,0,1-1.949-.989.141.141,0,0,1,.074-.186.143.143,0,0,1,.186.074,1.981,1.981,0,0,0,1.892.809.144.144,0,0,1,.155.126.142.142,0,0,1-.125.155c-.078.007-.156.011-.233.011" transform="translate(-2305.838 -1453.483)" fill="#1f0f0a"/>
        <path id="Trazado_911013" data-name="Trazado 911013" d="M2619.85,1400.066a4.506,4.506,0,0,0-2.812-2.314c2.314-1.114,2.929.285,2.812,2.314" transform="translate(-2436.968 -1301.21)" fill="#1f0f0a"/>
        <path id="Trazado_911014" data-name="Trazado 911014" d="M2618.269,1393.241a2.5,2.5,0,0,0-1.231.528c.088-.777.762-.806,1.231-.528" transform="translate(-2436.968 -1297.227)" fill="#1f0f0a"/>
        <path id="Trazado_911015" data-name="Trazado 911015" d="M2500.959,1351.631a3.69,3.69,0,0,1,3.01.494c-.407-1.939-1.771-1.7-3.01-.494" transform="translate(-2328.876 -1257.76)" fill="#1f0f0a"/>
        <path id="Trazado_911016" data-name="Trazado 911016" d="M2539.233,1353.964a2.214,2.214,0,0,1,.379,1.2c.4-.718.16-1.062-.379-1.2" transform="translate(-2364.516 -1260.802)" fill="#1f0f0a"/>
        <path id="Trazado_911017" data-name="Trazado 911017" d="M2534.206,1612.915c-.137,0-.269,0-.4-.012a.141.141,0,0,1,.018-.281c2.536.166,6.066-1.381,6.949-2.706a.141.141,0,0,1,.235.155c-.877,1.316-4.222,2.844-6.8,2.844" transform="translate(-2359.34 -1499.083)" fill="#1f0f0a"/>
        <path id="Trazado_911018" data-name="Trazado 911018" d="M2669.462,1491.838a1.74,1.74,0,0,1-.965-.292.14.14,0,0,1,.169-.224,1.422,1.422,0,0,0,1.391.108,2.1,2.1,0,0,1-.847-.386,1.113,1.113,0,0,1-.5-1.137.143.143,0,0,1,.17-.1.141.141,0,0,1,.1.17.86.86,0,0,0,.4.847,1.353,1.353,0,0,0,1.153.314.14.14,0,0,1,.184.045.142.142,0,0,1-.029.187,1.928,1.928,0,0,1-1.229.472" transform="translate(-2484.835 -1387.29)" fill="#1f0f0a"/>
        <path id="Trazado_911019" data-name="Trazado 911019" d="M2666.506,1520.5a1.177,1.177,0,0,1-.893-.454.141.141,0,0,1,.213-.184.838.838,0,0,0,.764.352.141.141,0,0,1,.063.274.962.962,0,0,1-.147.013" transform="translate(-2482.169 -1415.24)" fill="#1f0f0a"/>
        <path id="Trazado_911020" data-name="Trazado 911020" d="M2711.625,1500.836a1.737,1.737,0,0,0-1.568-1.008h-.012a3.487,3.487,0,0,0-2.666,1.779.141.141,0,0,0,.249.134,3.408,3.408,0,0,1,1.02-1.114c.7-.092,1.166.13,1.28.6a1.5,1.5,0,0,1-1.065,1.606.141.141,0,0,0,.047.274.1.1,0,0,0,.047-.009,1.768,1.768,0,0,0,1.243-1.938,1.1,1.1,0,0,0-1.051-.825,2.181,2.181,0,0,1,.9-.229,1.445,1.445,0,0,1,1.332.863.141.141,0,1,0,.247-.137" transform="translate(-2521.076 -1396.629)" fill="#1f0f0a"/>
        <path id="Trazado_911021" data-name="Trazado 911021" d="M3326.056,684a1.567,1.567,0,0,0-1.418-.912h-.01a3.157,3.157,0,0,0-2.413,1.61.127.127,0,0,0,.052.171.121.121,0,0,0,.059.014.127.127,0,0,0,.112-.067,3.1,3.1,0,0,1,.923-1.008c.633-.083,1.055.117,1.159.548a1.363,1.363,0,0,1-.965,1.455.126.126,0,0,0-.077.162.125.125,0,0,0,.119.085.112.112,0,0,0,.043-.007,1.6,1.6,0,0,0,1.126-1.754,1,1,0,0,0-.952-.748,1.97,1.97,0,0,1,.812-.207,1.312,1.312,0,0,1,1.206.78.129.129,0,0,0,.173.051.128.128,0,0,0,.05-.173" transform="translate(-3093.61 -636.088)" fill="#1f0f0a"/>
        <path id="Trazado_911022" data-name="Trazado 911022" d="M2750.148,1338.8a.106.106,0,0,1-.032-.207,8.385,8.385,0,0,1,3.965-.487.1.1,0,1,1-.043.205,8.376,8.376,0,0,0-3.857.481.054.054,0,0,1-.033.007" transform="translate(-2560.821 -1245.972)" fill="#1f0f0a"/>
        <path id="Trazado_911023" data-name="Trazado 911023" d="M3195.486,579.23a4.988,4.988,0,0,0-4.135-1.671c.636-.993,1.867-1.669,4.135,1.671" transform="translate(-2971.764 -537.063)" fill="#1f0f0a"/>
        <path id="Trazado_911024" data-name="Trazado 911024" d="M3191.057,631.324c.329,0,.6.432.6.964s-.267.964-.6.964-.6-.432-.6-.964.266-.964.6-.964" transform="translate(-2970.935 -587.884)" fill="#1f0f0a"/>
        <path id="Trazado_911025" data-name="Trazado 911025" d="M3105.255,610.021c0,.532-.267.964-.6.964s-.6-.433-.6-.964.266-.964.6-.964.6.432.6.964" transform="translate(-2890.481 -567.149)" fill="#1f0f0a"/>
        <path id="Trazado_911026" data-name="Trazado 911026" d="M3080.4,612.141a.118.118,0,0,1-.054-.013,5.483,5.483,0,0,1-1.713-1.739.488.488,0,0,1-.007-.489.526.526,0,0,1,.445-.268,3.678,3.678,0,0,0,3.428-3.984.128.128,0,0,1,.256,0,3.97,3.97,0,0,1-3.677,4.238.267.267,0,0,0-.229.137.235.235,0,0,0,0,.236,5.263,5.263,0,0,0,1.6,1.637.129.129,0,0,1-.054.245" transform="translate(-2866.737 -563.856)" fill="#1f0f0a"/>
        <path id="Trazado_911027" data-name="Trazado 911027" d="M3106.778,731.858a4.263,4.263,0,0,1-2.774-1.031.13.13,0,0,1-.013-.18.128.128,0,0,1,.18-.013,4.012,4.012,0,0,0,4.935.229.127.127,0,1,1,.142.211,4.38,4.38,0,0,1-2.471.784" transform="translate(-2890.387 -680.332)" fill="#1f0f0a"/>
        <path id="Trazado_911028" data-name="Trazado 911028" d="M3093.689,559.234a3.194,3.194,0,0,1,2.823.517c-.4-1.55-1.392-1.431-2.823-.517" transform="translate(-2880.822 -520.129)" fill="#1f0f0a"/>
        <path id="Trazado_911029" data-name="Trazado 911029" d="M3291.11,727.678a1.379,1.379,0,1,1-.746,1.8,1.379,1.379,0,0,1,.746-1.8" transform="translate(-3063.866 -677.511)" fill="#fff"/>
        <path id="Trazado_911030" data-name="Trazado 911030" d="M3157.251,780.136a.126.126,0,0,1-.125-.1.128.128,0,0,1,.1-.152,17.157,17.157,0,0,0,7.531-4.18.127.127,0,1,1,.182.178,17.445,17.445,0,0,1-7.659,4.25.133.133,0,0,1-.027,0" transform="translate(-2939.892 -722.294)" fill="#1f0f0a"/>
        <path id="Trazado_911031" data-name="Trazado 911031" d="M3183.455,1856.471s.317,6.15-1.7,5.937-7.846.849-9.012,1.8-1.7,5.514-1.06,6.574a1.132,1.132,0,0,0,2.068-.106c.477,1.273,1.909,1.114,2.439-.052.423,1.485,2.067,1.06,2.386-.158.213,1.22,1.431,1.59,1.909.371s.53-2.387,1.166-2.387,8.535,1.008,10.073-1.379,1.06-10.5,1.06-10.5Z" transform="translate(-2953.198 -1728.733)" fill="#ff8f6e"/>
        <path id="Trazado_911032" data-name="Trazado 911032" d="M3201.166,1995.456h-.013a.129.129,0,0,1-.116-.138c0-.022.2-2.17.48-3.63a.126.126,0,0,1,.249.047c-.274,1.449-.474,3.586-.476,3.607a.124.124,0,0,1-.124.115" transform="translate(-2980.784 -1854.548)" fill="#1f0f0a"/>
        <path id="Trazado_911033" data-name="Trazado 911033" d="M3241.221,2000.852h-.012a.128.128,0,0,1-.115-.139c0-.022.2-2.17.479-3.63a.126.126,0,1,1,.249.047c-.274,1.449-.474,3.585-.476,3.607a.124.124,0,0,1-.125.115" transform="translate(-3018.084 -1859.573)" fill="#1f0f0a"/>
        <path id="Trazado_911034" data-name="Trazado 911034" d="M3276.3,2007.192h-.013a.129.129,0,0,1-.115-.139,23.007,23.007,0,0,1,.341-2.819.126.126,0,1,1,.249.047,22.9,22.9,0,0,0-.338,2.8.123.123,0,0,1-.124.115" transform="translate(-3050.747 -1866.233)" fill="#1f0f0a"/>
        <path id="Trazado_911035" data-name="Trazado 911035" d="M3338.707,1942.407h-.012c-2.783-.274-4.582-.278-4.6-.278a.128.128,0,0,1,0-.256c.019,0,1.828,0,4.626.279a.126.126,0,0,1,.114.139.129.129,0,0,1-.126.115" transform="translate(-3104.567 -1808.259)" fill="#1f0f0a"/>
        <path id="Trazado_911036" data-name="Trazado 911036" d="M3202.892,1967.393a.924.924,0,0,1-.345-.061.535.535,0,0,1-.341-.444.127.127,0,0,1,.111-.142.129.129,0,0,1,.142.11.284.284,0,0,0,.186.242,1.394,1.394,0,0,0,1.163-.287.127.127,0,0,1,.155.2,1.914,1.914,0,0,1-1.071.38" transform="translate(-2981.872 -1831.419)" fill="#1f0f0a"/>
        <path id="Trazado_911037" data-name="Trazado 911037" d="M3234.276,1972.187a.92.92,0,0,1-.344-.062.532.532,0,0,1-.34-.444.125.125,0,0,1,.11-.142.13.13,0,0,1,.142.11.283.283,0,0,0,.186.241,1.391,1.391,0,0,0,1.162-.287.127.127,0,1,1,.155.2,1.9,1.9,0,0,1-1.071.38" transform="translate(-3011.097 -1835.882)" fill="#1f0f0a"/>
        <path id="Trazado_911038" data-name="Trazado 911038" d="M3265.686,1978.369a.919.919,0,0,1-.344-.061.535.535,0,0,1-.341-.444.126.126,0,0,1,.11-.142.13.13,0,0,1,.142.11.282.282,0,0,0,.186.241,1.392,1.392,0,0,0,1.163-.286.127.127,0,1,1,.155.2,1.911,1.911,0,0,1-1.071.38" transform="translate(-3040.346 -1841.639)" fill="#1f0f0a"/>
        <path id="Trazado_911039" data-name="Trazado 911039" d="M3299.768,1987.8a.919.919,0,0,1-.344-.062.534.534,0,0,1-.34-.443.127.127,0,0,1,.11-.143.13.13,0,0,1,.143.11.283.283,0,0,0,.186.242,1.392,1.392,0,0,0,1.163-.287.127.127,0,0,1,.155.2,1.908,1.908,0,0,1-1.071.38" transform="translate(-3072.083 -1850.421)" fill="#1f0f0a"/>
        <path id="Trazado_911040" data-name="Trazado 911040" d="M2917.376,1047.259a.169.169,0,0,1-.081-.021.159.159,0,0,1-.056-.218c.029-.049,2.954-5.006,3.264-9.472a.156.156,0,0,1,.169-.148.16.16,0,0,1,.148.169c-.317,4.544-3.279,9.564-3.309,9.613a.155.155,0,0,1-.135.078" transform="translate(-2716.492 -966.019)" fill="#000f4e"/>
        <path id="Trazado_911041" data-name="Trazado 911041" d="M3351.936,915.552h-.011a.16.16,0,0,1-.15-.169c.008-.1.716-10.2,7.082-13.6a.158.158,0,1,1,.15.279c-6.21,3.311-6.909,13.236-6.915,13.337a.156.156,0,0,1-.156.15" transform="translate(-3121.15 -839.719)" fill="#000f4e"/>
        <path id="Trazado_911042" data-name="Trazado 911042" d="M3312.227,1391.757a.159.159,0,0,1-.159-.155l-.317-14.633a.159.159,0,0,1,.155-.162.166.166,0,0,1,.162.155l.318,14.633a.159.159,0,0,1-.156.162Z" transform="translate(-3083.88 -1282.073)" fill="#000f4e"/>
        <path id="Trazado_911043" data-name="Trazado 911043" d="M1784.555,663.609v31.048a2.238,2.238,0,0,0,2.237,2.237H1797.1a5.549,5.549,0,0,1-.362-2.668,5.613,5.613,0,0,1,11.193.606,5.554,5.554,0,0,1-.4,2.06h10.307a2.238,2.238,0,0,0,2.237-2.237V663.609a2.238,2.238,0,0,0-2.237-2.237h-31.049a2.235,2.235,0,0,0-2.237,2.237" transform="translate(-1661.766 -615.865)" fill="#ffd35a"/>
        <path id="Trazado_911044" data-name="Trazado 911044" d="M1334.639,672.876a5.482,5.482,0,0,0-2.6.651v-9.986a2.17,2.17,0,0,0-2.17-2.17h-30.12a2.17,2.17,0,0,0-2.17,2.17v30.122a2.17,2.17,0,0,0,2.17,2.17h30.122a2.17,2.17,0,0,0,2.17-2.17v-10.41a5.514,5.514,0,1,0,2.6-10.377" transform="translate(-1208.299 -615.864)" fill="#ff852f"/>
        <path id="Trazado_911045" data-name="Trazado 911045" d="M1309.062,1047.133a5.482,5.482,0,0,0,.651,2.6h-9.986a2.17,2.17,0,0,0-2.17,2.17v30.122a2.17,2.17,0,0,0,2.17,2.17h30.122a2.17,2.17,0,0,0,2.17-2.17V1051.9a2.17,2.17,0,0,0-2.17-2.17h-10.41a5.514,5.514,0,1,0-10.377-2.6" transform="translate(-1208.275 -969.948)" fill="#ffd35a"/>
        <path id="Trazado_911046" data-name="Trazado 911046" d="M1969.566,620.64s.317,7.078-.636,7.794a1.43,1.43,0,0,1-2.226-.795c-.875,1.671-2.7,1.193-2.942.159-.8,1.59-2.7.478-2.862-.238-.557,1.671-2.147.636-2.545-.317s-.415-6.94-.317-7.794c.2-1.752,11.291-3.262,11.529,1.192" transform="translate(-1823.264 -575.212)" fill="#ff8f6e"/>
        <path id="Trazado_911047" data-name="Trazado 911047" d="M2088.829,644.146a1.282,1.282,0,0,1-1.047-.629.16.16,0,1,1,.265-.178.91.91,0,0,0,.9.478.417.417,0,0,0,.348-.315.159.159,0,0,1,.312.063.734.734,0,0,1-.6.564.958.958,0,0,1-.181.018" transform="translate(-1944.103 -599.007)" fill="#1f0f0a"/>
        <path id="Trazado_911048" data-name="Trazado 911048" d="M2051.629,642.207a1.282,1.282,0,0,1-1.047-.629.16.16,0,0,1,.265-.178.91.91,0,0,0,.9.478.418.418,0,0,0,.348-.315.159.159,0,1,1,.311.063.733.733,0,0,1-.6.564.81.81,0,0,1-.181.018" transform="translate(-1909.462 -597.201)" fill="#1f0f0a"/>
        <path id="Trazado_911049" data-name="Trazado 911049" d="M2007.907,643.753a1.282,1.282,0,0,1-1.047-.629.16.16,0,0,1,.265-.178.91.91,0,0,0,.9.477.417.417,0,0,0,.348-.315.159.159,0,0,1,.312.063.734.734,0,0,1-.6.564.82.82,0,0,1-.18.018" transform="translate(-1868.749 -598.641)" fill="#1f0f0a"/>
        <path id="Trazado_911050" data-name="Trazado 911050" d="M1968.612,645.115a1.282,1.282,0,0,1-1.047-.629.16.16,0,1,1,.265-.178.91.91,0,0,0,.9.478.417.417,0,0,0,.348-.315.159.159,0,1,1,.312.063.735.735,0,0,1-.6.564.945.945,0,0,1-.181.018" transform="translate(-1832.157 -599.909)" fill="#1f0f0a"/>
        <path id="Trazado_911051" data-name="Trazado 911051" d="M2083.3,677.332h0a.158.158,0,0,1-.159-.16l.052-5.249a.15.15,0,0,1,.16-.157.158.158,0,0,1,.157.16l-.052,5.249a.159.159,0,0,1-.158.157" transform="translate(-1939.811 -625.543)" fill="#1f0f0a"/>
        <path id="Trazado_911052" data-name="Trazado 911052" d="M2039.765,676.572h0a.158.158,0,0,1-.159-.16l.052-5.249a.151.151,0,0,1,.161-.157.158.158,0,0,1,.157.16l-.052,5.249a.16.16,0,0,1-.159.157" transform="translate(-1899.268 -624.835)" fill="#1f0f0a"/>
        <path id="Trazado_911053" data-name="Trazado 911053" d="M1998.532,678.641h0a.155.155,0,0,1-.159-.153l.052-5.024a.149.149,0,0,1,.16-.151.155.155,0,0,1,.157.153l-.052,5.023a.155.155,0,0,1-.158.151" transform="translate(-1860.872 -626.984)" fill="#1f0f0a"/>
        <path id="Trazado_911054" data-name="Trazado 911054" d="M1459.671,1666.08c-2.508,0-4.074-.37-4.5-1.085a.775.775,0,0,1,.042-.854c.559-.856,3.346-.8,6.294-.733.46.011.916.019,1.355.025a.159.159,0,0,1,0,.317h0c-.44-.006-.9-.016-1.359-.025-2.477-.052-5.559-.119-6.022.589a.461.461,0,0,0-.034.517c.188.313,1.264,1.294,7.245.788a.156.156,0,0,1,.171.144.158.158,0,0,1-.144.171c-1.128.1-2.145.146-3.042.146" transform="translate(-1354.943 -1548.923)" fill="#1f0f0a"/>
        <path id="Trazado_911055" data-name="Trazado 911055" d="M486.227,2145.4s.159,4.214,1.352,4.771,4.613.636,4.613,1.83-1.431,4.293-1.352,6.918c.159.478-1.83.636-1.83.636s.317,5.25-.795,5.566a3.041,3.041,0,0,1-3.1-.478c-1.59.954-3.023.4-3.261-.079-.874,1.353-3.261.079-3.5-.636-.795.795-2.942.079-3.34-1.59a34.615,34.615,0,0,1,.159-11.451,34.374,34.374,0,0,0,.874-5.091Z" transform="translate(-441.957 -1997.778)" fill="#ff8f6e"/>
        <path id="Trazado_911056" data-name="Trazado 911056" d="M680.208,2277.935a.159.159,0,0,1-.157-.137,13.572,13.572,0,0,1,.559-4.553.16.16,0,0,1,.31.076,13.648,13.648,0,0,0-.553,4.435.16.16,0,0,1-.135.18h-.023" transform="translate(-633.234 -2116.716)" fill="#1f0f0a"/>
        <path id="Trazado_911057" data-name="Trazado 911057" d="M617.493,2356.288a.158.158,0,0,1-.157-.139c-.353-2.637-.516-4.245-.517-4.26a.159.159,0,0,1,.317-.032c0,.016.162,1.618.516,4.248a.159.159,0,0,1-.137.179.13.13,0,0,1-.022,0" transform="translate(-574.377 -2189.9)" fill="#1f0f0a"/>
        <path id="Trazado_911058" data-name="Trazado 911058" d="M569.475,2363.3a.16.16,0,0,1-.157-.132,26.041,26.041,0,0,1-.479-3.765.159.159,0,1,1,.317,0,26.632,26.632,0,0,0,.474,3.711.159.159,0,0,1-.13.184l-.025,0" transform="translate(-529.699 -2196.908)" fill="#1f0f0a"/>
        <path id="Trazado_911059" data-name="Trazado 911059" d="M520.845,2367.011a.16.16,0,0,1-.157-.13c-.315-1.738-.4-2.83-.4-2.839a.159.159,0,0,1,.317-.025c0,.011.083,1.087.395,2.807a.159.159,0,0,1-.128.186l-.027,0" transform="translate(-484.488 -2201.219)" fill="#1f0f0a"/>
        <path id="Trazado_911060" data-name="Trazado 911060" d="M632.884,2320.831a1.247,1.247,0,0,1-1.036-.616.159.159,0,1,1,.268-.171.907.907,0,0,0,.865.461,1,1,0,0,0,.757-.782.159.159,0,1,1,.3.094,1.294,1.294,0,0,1-1.018,1,.691.691,0,0,1-.139.013" transform="translate(-588.349 -2160.006)" fill="#1f0f0a"/>
        <path id="Trazado_911061" data-name="Trazado 911061" d="M578.866,2323.425a1.247,1.247,0,0,1-1.036-.616.159.159,0,1,1,.268-.171.907.907,0,0,0,.865.461,1,1,0,0,0,.757-.782.159.159,0,0,1,.2-.1.157.157,0,0,1,.1.2,1.3,1.3,0,0,1-1.018,1,.635.635,0,0,1-.139.012" transform="translate(-538.047 -2162.421)" fill="#1f0f0a"/>
        <path id="Trazado_911062" data-name="Trazado 911062" d="M528.595,2327.485a1.247,1.247,0,0,1-1.036-.616.159.159,0,0,1,.269-.171.906.906,0,0,0,.865.461,1,1,0,0,0,.757-.782.159.159,0,0,1,.2-.1.157.157,0,0,1,.1.2,1.3,1.3,0,0,1-1.018,1,.755.755,0,0,1-.139.012" transform="translate(-491.235 -2166.202)" fill="#1f0f0a"/>
        <path id="Trazado_911063" data-name="Trazado 911063" d="M483.8,2333.249a1.248,1.248,0,0,1-1.036-.616.159.159,0,1,1,.269-.171.907.907,0,0,0,.865.461,1,1,0,0,0,.757-.782.159.159,0,0,1,.2-.1.157.157,0,0,1,.1.2,1.3,1.3,0,0,1-1.018,1,.6.6,0,0,1-.139.012" transform="translate(-449.521 -2171.569)" fill="#1f0f0a"/>
        <path id="Trazado_911064" data-name="Trazado 911064" d="M474.7,995.828a.162.162,0,0,1-.162-.162c0-3.329-2.32-10.579-9.494-11.736a.161.161,0,0,1-.133-.186.159.159,0,0,1,.186-.133c7.38,1.19,9.766,8.636,9.766,12.055a.162.162,0,0,1-.162.162" transform="translate(-432.921 -915.929)" fill="#000f4e"/>
        <path id="Trazado_911065" data-name="Trazado 911065" d="M564.026,1382.136a.161.161,0,0,1-.159-.133c-.195-1.071-4.777-26.23-4.856-26.874s2.17-19.86,2.428-22.049a.162.162,0,1,1,.323.038c-.7,5.919-2.486,21.407-2.428,21.973.079.635,4.806,26.594,4.854,26.856a.16.16,0,0,1-.13.187l-.032,0" transform="translate(-520.545 -1241.221)" fill="#000f4e"/>
        <path id="Trazado_911066" data-name="Trazado 911066" d="M1001.348,1157.722h-.005a.163.163,0,0,1-.157-.167c.007-.191.64-19.128,0-23.193a.162.162,0,0,1,.321-.051c.642,4.1.009,23.063,0,23.254a.163.163,0,0,1-.162.157" transform="translate(-932.297 -1056.135)" fill="#000f4e"/>
        <path id="Trazado_911067" data-name="Trazado 911067" d="M1252.97,795.712c-.081-.972-.243-11.814.4-13.191a6.506,6.506,0,0,1,2.347-2.347l.081,1.619a59.343,59.343,0,0,0,8.162-.16,1.2,1.2,0,0,1,1.283,1.285,2.753,2.753,0,0,1-2.81,2.6c-3.075.324-5.584,0-5.826,3.4s-.809,6.878-.809,6.878Z" transform="translate(-1166.683 -726.492)" fill="#ff8f6e"/>
        <path id="Trazado_911068" data-name="Trazado 911068" d="M558.446,632.167c-.016-.02-.042-.065-.079-.126-1.141-1.882-2.5-2.516-4.039-1.884a.174.174,0,0,0,.132.323,2.308,2.308,0,0,1,2.455.342,1.465,1.465,0,0,0-1.235.613,1.169,1.169,0,0,0,.207,1.5.174.174,0,0,0,.245.011.174.174,0,0,0,.011-.245.835.835,0,0,1-.173-1.071,1.157,1.157,0,0,1,1.336-.389.183.183,0,0,0,.061.009,6.187,6.187,0,0,1,.7.975c.049.081.085.137.1.164a.172.172,0,0,0,.135.065.176.176,0,0,0,.137-.285" transform="translate(-516.085 -586.577)" fill="#1f0f0a"/>
        <path id="Trazado_911069" data-name="Trazado 911069" d="M731.547,536.414A9.049,9.049,0,0,1,736.1,534.3c-1.566-1.017-3.771-.552-4.555,2.118" transform="translate(-681.212 -497.07)" fill="#1f0f0a"/>
        <path id="Trazado_911070" data-name="Trazado 911070" d="M778.36,530a3.01,3.01,0,0,1,1.336.681c-.045-.636-.654-.912-1.336-.681" transform="translate(-724.803 -493.46)" fill="#1f0f0a"/>
        <path id="Trazado_911071" data-name="Trazado 911071" d="M861.431,538.706a4.8,4.8,0,0,1,2.727,1.509,1.848,1.848,0,0,0-2.727-1.509" transform="translate(-802.159 -501.451)" fill="#1f0f0a"/>
        <path id="Trazado_911072" data-name="Trazado 911072" d="M862.457,534.955a1.987,1.987,0,0,0-1,.362c.042-.58.725-.48,1-.362" transform="translate(-802.183 -498.063)" fill="#1f0f0a"/>
        <path id="Trazado_911073" data-name="Trazado 911073" d="M786.856,736.654a2.948,2.948,0,0,1-2.134-.932.174.174,0,0,1,.261-.229,2.5,2.5,0,0,0,2.505.707.175.175,0,1,1,.124.326,2.159,2.159,0,0,1-.757.128" transform="translate(-730.687 -684.831)" fill="#1f0f0a"/>
        <path id="Trazado_911074" data-name="Trazado 911074" d="M621.143,706.864a.174.174,0,0,1-.117-.045,9.086,9.086,0,0,1-2.491-4.5.174.174,0,0,1,.341-.074,8.869,8.869,0,0,0,2.385,4.317.172.172,0,0,1,.013.245.169.169,0,0,1-.13.06" transform="translate(-575.972 -653.796)" fill="#1f0f0a"/>
        <path id="Trazado_911075" data-name="Trazado 911075" d="M716.076,811.059a8.9,8.9,0,0,1-5.543-1.538.174.174,0,1,1,.223-.267c.022.018,2.156,1.75,6.433,1.411a.173.173,0,0,1,.187.16.175.175,0,0,1-.161.188c-.4.032-.78.045-1.141.045" transform="translate(-661.586 -753.534)" fill="#1f0f0a"/>
        <path id="Trazado_911076" data-name="Trazado 911076" d="M766,605.13c-.021.652.247,1.19.6,1.2s.654-.508.676-1.159-.247-1.19-.6-1.2-.654.506-.676,1.159" transform="translate(-713.297 -562.413)" fill="#1f0f0a"/>
        <path id="Trazado_911077" data-name="Trazado 911077" d="M760.84,631.629a1.211,1.211,0,0,0,.451.06.113.113,0,0,0-.013-.225,1.113,1.113,0,0,1-1.118-.946.113.113,0,0,0-.222.045,1.387,1.387,0,0,0,.9,1.067" transform="translate(-707.648 -587.048)" fill="#1f0f0a"/>
        <path id="Trazado_911078" data-name="Trazado 911078" d="M862.357,601.41c-.022.652.247,1.19.6,1.2s.654-.508.676-1.159-.247-1.19-.6-1.2-.654.507-.676,1.159" transform="translate(-803.02 -558.949)" fill="#1f0f0a"/>
        <path id="Trazado_911079" data-name="Trazado 911079" d="M857.192,627.883a1.214,1.214,0,0,0,.451.06.113.113,0,0,0-.013-.225,1.113,1.113,0,0,1-1.118-.946.113.113,0,0,0-.222.045,1.385,1.385,0,0,0,.9,1.067" transform="translate(-797.37 -583.56)" fill="#1f0f0a"/>
        <path id="Trazado_911080" data-name="Trazado 911080" d="M694.272,577.209a4.562,4.562,0,1,1,4.562-4.562,4.568,4.568,0,0,1-4.562,4.562m0-8.784a4.221,4.221,0,1,0,4.222,4.22,4.226,4.226,0,0,0-4.222-4.22" transform="translate(-642.253 -528.997)" fill="#1f0f0a"/>
        <path id="Trazado_911081" data-name="Trazado 911081" d="M846.525,576.072a3.993,3.993,0,1,1,3.836,2.88,4.028,4.028,0,0,1-.84-.088l.141-.278a3.694,3.694,0,1,0-2.994-3.627,3.691,3.691,0,0,0,.267,1.379Z" transform="translate(-788.132 -531.68)" fill="#1f0f0a"/>
        <path id="Trazado_911082" data-name="Trazado 911082" d="M841.648,613.821a.175.175,0,0,1,0-.35,5.944,5.944,0,0,0,3.086-1.193,6.752,6.752,0,0,0-.7-.514,8.627,8.627,0,0,1-2.026-1.7,3,3,0,0,1-.588-2.85.189.189,0,0,1,.2-.166.161.161,0,0,1,.151.18l0,.033a2.679,2.679,0,0,0,.524,2.6,8.358,8.358,0,0,0,1.939,1.619c.685.465.9.622.88.826-.049.444-2.071,1.491-3.448,1.519l-.007,0" transform="translate(-783.419 -565.278)" fill="#1f0f0a"/>
        <path id="Trazado_911083" data-name="Trazado 911083" d="M2282.306,65.882l-25.475-13.915.3-.557,25,13.654L2303.6,37.285l.5.389Z" transform="translate(-2101.546 -16.16)" fill="#85b5ff"/>
        <path id="Trazado_911084" data-name="Trazado 911084" d="M2220.769,206.73a2.756,2.756,0,1,1-1.492,3.6,2.756,2.756,0,0,1,1.492-3.6" transform="translate(-2066.379 -173.751)" fill="#85b5ff"/>
        <path id="Trazado_911085" data-name="Trazado 911085" d="M2588.516,406.9a2.756,2.756,0,1,1-2.757,2.756,2.756,2.756,0,0,1,2.757-2.756" transform="translate(-2407.841 -360.34)" fill="#85b5ff"/>
        <path id="Trazado_911086" data-name="Trazado 911086" d="M2901.919.207a2.756,2.756,0,1,1-1.492,3.6,2.756,2.756,0,0,1,1.492-3.6" transform="translate(-2700.663 18.562)" fill="#85b5ff"/>
        <rect id="Rectángulo_410351" data-name="Rectángulo 410351" width="6.601" height="1.431" transform="translate(108.391 27.334) rotate(-45)" fill="#000f4e"/>
        <rect id="Rectángulo_410352" data-name="Rectángulo 410352" width="1.431" height="6.601" transform="translate(108.391 23.679) rotate(-45)" fill="#000f4e"/>
        <path id="Trazado_911088" data-name="Trazado 911088" d="M85.559,932.235a1.166,1.166,0,1,1-1.166-1.166,1.167,1.167,0,0,1,1.166,1.166" transform="translate(-77.5 -867.005)" fill="#85b5ff"/>
        <path id="Trazado_911089" data-name="Trazado 911089" d="M164.15,932.235a1.166,1.166,0,1,1-1.166-1.166,1.167,1.167,0,0,1,1.166,1.166" transform="translate(-150.684 -867.005)" fill="#85b5ff"/>
        <path id="Trazado_911090" data-name="Trazado 911090" d="M238.13,932.235a1.166,1.166,0,1,1-1.166-1.166,1.167,1.167,0,0,1,1.166,1.166" transform="translate(-219.573 -867.005)" fill="#85b5ff"/>
        <path id="Trazado_911092" data-name="Trazado 911092" d="M85.559,858.255a1.166,1.166,0,1,1-1.166-1.166,1.167,1.167,0,0,1,1.166,1.166" transform="translate(-77.5 -798.115)" fill="#85b5ff"/>
        <path id="Trazado_911093" data-name="Trazado 911093" d="M164.15,858.255a1.166,1.166,0,1,1-1.166-1.166,1.167,1.167,0,0,1,1.166,1.166" transform="translate(-150.684 -798.115)" fill="#85b5ff"/>
        <path id="Trazado_911094" data-name="Trazado 911094" d="M238.13,858.255a1.166,1.166,0,1,1-1.166-1.166,1.167,1.167,0,0,1,1.166,1.166" transform="translate(-219.573 -798.115)" fill="#85b5ff"/>
        <path id="Trazado_911096" data-name="Trazado 911096" d="M85.559,1015.436a1.166,1.166,0,1,1-1.166-1.166,1.167,1.167,0,0,1,1.166,1.166" transform="translate(-77.5 -944.481)" fill="#85b5ff"/>
        <path id="Trazado_911097" data-name="Trazado 911097" d="M164.15,1015.436a1.166,1.166,0,1,1-1.166-1.166,1.167,1.167,0,0,1,1.166,1.166" transform="translate(-150.684 -944.481)" fill="#85b5ff"/>
        <path id="Trazado_911098" data-name="Trazado 911098" d="M238.13,1015.436a1.166,1.166,0,1,1-1.166-1.166,1.167,1.167,0,0,1,1.166,1.166" transform="translate(-219.573 -944.481)" fill="#85b5ff"/>
        <rect id="Rectángulo_410353" data-name="Rectángulo 410353" width="8.906" height="8.906" transform="translate(257.744 109.791)" fill="#66a2fe"/>
        <rect id="Rectángulo_410355" data-name="Rectángulo 410355" width="5.831" height="5.831" transform="translate(12.707 175.507)" fill="#5800ff"/>
        <path id="Trazado_911099" data-name="Trazado 911099" d="M2126.4,1467.316a2.545,2.545,0,1,1,0,3.6,2.544,2.544,0,0,1,0-3.6" transform="translate(-1979.393 -1365.66)" fill="#8a6bfe"/>
        <path id="Trazado_911100" data-name="Trazado 911100" d="M2180.719,1420.478h-5.884l2.942-6.68Z" transform="translate(-2025.191 -1316.518)" fill="#ffd35a"/>
        <path id="Trazado_911101" data-name="Trazado 911101" d="M3844.953,3070.852h-5.885l2.943-6.68Z" transform="translate(-3574.914 -2853.335)" fill="#8a6bfe"/>
        <path id="Trazado_911102" data-name="Trazado 911102" d="M3744.945,3109a4.375,4.375,0,1,1,0,6.187,4.374,4.374,0,0,1,0-6.187" transform="translate(-3488.259 -2929.295)" fill="#ffd35a"/>
        <path id="Trazado_911103" data-name="Trazado 911103" d="M812.137,629.812a.16.16,0,0,1-.148-.1,1.237,1.237,0,0,0-.975-.818,1.892,1.892,0,0,0-1.669.8.159.159,0,0,1-.249-.2,2.2,2.2,0,0,1,1.963-.921,1.544,1.544,0,0,1,1.224,1.015.16.16,0,0,1-.088.207.154.154,0,0,1-.058.011" transform="translate(-753.393 -585.313)" fill="#1f0f0a"/>
        <path id="Trazado_911104" data-name="Trazado 911104" d="M615.064,615.835c-.063,0-1.922-.384-5.519-1.143a.159.159,0,1,1,.067-.312c2.118.447,5.323,1.117,5.471,1.137a.152.152,0,0,1,.151.159.171.171,0,0,1-.169.159" transform="translate(-567.487 -572.103)" fill="#1f0f0a"/>
      </g>
    </g>
  </g>
</svg>
