<svg id="img19" xmlns="http://www.w3.org/2000/svg" xmlns:xlink="http://www.w3.org/1999/xlink" width="85" height="71.383" viewBox="0 0 85 71.383">
  <defs>
    <clipPath id="clip-path">
      <rect id="Rectángulo_410554" data-name="Rectángulo 410554" width="85" height="71.383" fill="none"/>
    </clipPath>
  </defs>
  <g id="Grupo_1122256" data-name="Grupo 1122256" clip-path="url(#clip-path)">
    <path id="Trazado_911428" data-name="Trazado 911428" d="M141.957,118.989,113.09,74.828a6.718,6.718,0,0,0-11.247,0L72.976,118.989a6.719,6.719,0,0,0,5.624,10.4h57.733a6.719,6.719,0,0,0,5.624-10.4m-34.493,1.944A3.633,3.633,0,1,1,111.1,117.3a3.633,3.633,0,0,1-3.632,3.633m4.814-30.577L110.489,107.2a3.043,3.043,0,0,1-6.052,0l-1.788-16.844a4.841,4.841,0,1,1,9.628,0" transform="translate(-64.966 -64.893)" fill="#2364a5"/>
    <path id="Trazado_911429" data-name="Trazado 911429" d="M82.759,50.325,53.893,6.165a13.611,13.611,0,0,0-22.786,0L2.241,50.325A13.61,13.61,0,0,0,13.634,71.383H71.367A13.611,13.611,0,0,0,82.759,50.325M79.953,62.417a9.628,9.628,0,0,1-8.586,5.117H13.634a9.761,9.761,0,0,1-8.171-15.1L34.329,8.27a9.762,9.762,0,0,1,16.342,0L79.538,52.431a9.628,9.628,0,0,1,.415,9.986" transform="translate(0 -0.001)" fill="#2364a5"/>
  </g>
</svg>
