<svg xmlns="http://www.w3.org/2000/svg" xmlns:xlink="http://www.w3.org/1999/xlink" width="146" height="146" viewBox="0 0 146 146">
  <defs>
    <clipPath id="clip-path">
      <rect id="Rectángulo_400938" data-name="Rectángulo 400938" width="137" height="137" transform="translate(-0.028 -0.028)" fill="none"/>
    </clipPath>
    <clipPath id="clip-path-2">
      <rect id="Rectángulo_401742" data-name="Rectángulo 401742" width="146" height="146" transform="translate(-0.028 -0.028)" fill="none"/>
    </clipPath>
    <clipPath id="clip-path-3">
      <rect id="Rectángulo_402229" data-name="Rectángulo 402229" width="56.828" height="51.392" fill="#5800ff"/>
    </clipPath>
  </defs>
  <g id="img12" transform="translate(-411.288 -4348.563)">
    <g id="Grupo_1102298" data-name="Grupo 1102298" transform="translate(411.316 4348.59)">
      <g id="Grupo_1099379" data-name="Grupo 1099379" transform="translate(0 0)">
        <rect id="Rectángulo_401103" data-name="Rectángulo 401103" width="146" height="146" transform="translate(-0.028 -0.028)" fill="none"/>
        <path id="Trazado_873425" data-name="Trazado 873425" d="M59.772,0c33.011,0,59.772,28.667,59.772,64.029s-26.761,64.029-59.772,64.029S0,99.391,0,64.029,26.761,0,59.772,0Z" transform="translate(19.066 15.303)" fill="#87e0d2"/>
        <g id="Enmascarar_grupo_1100032" data-name="Enmascarar grupo 1100032" transform="translate(0 0)" clip-path="url(#clip-path-2)">
          <g id="Grupo_1102285" data-name="Grupo 1102285" transform="translate(0.409)" clip-path="url(#clip-path-3)" style="isolation: isolate">
            <g id="Grupo_1102284" data-name="Grupo 1102284" transform="translate(0 0)">
              <g id="Grupo_1102283" data-name="Grupo 1102283" clip-path="url(#clip-path-3)">
                <g id="Grupo_1102282" data-name="Grupo 1102282" transform="translate(0 0)" style="mix-blend-mode: screen;isolation: isolate">
                  <g id="Grupo_1102281" data-name="Grupo 1102281" transform="translate(0 0)">
                    <g id="Grupo_1102280" data-name="Grupo 1102280" clip-path="url(#clip-path-3)">
                      <path id="Trazado_875470" data-name="Trazado 875470" d="M0,28.419,28.42,0l28.408,28.42-4.045,4.045L28.42,8.1,4.047,32.464Z" transform="translate(0 0)" fill="#5800ff"/>
                      <path id="Trazado_875471" data-name="Trazado 875471" d="M0,41.146,28.42,12.728,56.828,41.146l-4.045,4.047L28.42,20.828,4.047,45.193Z" transform="translate(0 6.2)" fill="#5800ff"/>
                    </g>
                  </g>
                </g>
              </g>
            </g>
          </g>
        </g>
        <circle id="Elipse_11503" data-name="Elipse 11503" cx="62.5" cy="62.5" r="62.5" transform="translate(9.972 10.972)" fill="#fff"/>
      </g>
    </g>
    <g id="Grupo_1102299" data-name="Grupo 1102299" transform="translate(444.154 4378.995)">
      <g id="Grupo_1099389" data-name="Grupo 1099389" transform="translate(0 0)">
        <rect id="Rectángulo_401104" data-name="Rectángulo 401104" width="81" height="83" transform="translate(0.135 -0.432)" fill="none"/>
      </g>
      <g id="Grupo_1122270" data-name="Grupo 1122270" transform="translate(1.134 1.448)">
        <circle id="Elipse_11614" data-name="Elipse 11614" cx="40" cy="40" r="40" transform="translate(0 -0.443)" fill="#15aeac"/>
        <path id="Trazado_911449" data-name="Trazado 911449" d="M130.394,188.22a39.708,39.708,0,0,0,39.328-45.092L155.4,128.8l-16.281,3,7.25,7.25v22.174l-31.477-30.857-7.545,1.275,9.027,9.027v44.994A39.6,39.6,0,0,0,130.394,188.22Z" transform="translate(-90.699 -108.662)" fill="#178c78"/>
        <path id="Trazado_911450" data-name="Trazado 911450" d="M100.405,328.395c-7.6-4.891-20.33-8.1-34.757-8.1-15,0-28.167,3.468-35.638,8.691a39.708,39.708,0,0,0,70.4-.591Z" transform="translate(-25.357 -270.463)" fill="#090909"/>
        <path id="Trazado_911451" data-name="Trazado 911451" d="M89.471,167.992a39.522,39.522,0,0,0,2.318-4.851,105.968,105.968,0,0,0-17.842-3.975V135.835a4.031,4.031,0,0,1,4.031-4.031h1.9v-3H63.594v3h1.9a4.031,4.031,0,0,1,4.031,4.031v22.78l-.062-.007L42.017,128.8h-10.2v2.845h4.031l1.9,2.177V159a132.343,132.343,0,0,0-19.787,4.159,39.508,39.508,0,0,0,2.351,4.906,132.446,132.446,0,0,1,17.436-3.5v.828a4.031,4.031,0,0,1-4.031,4.031h-1.9v3H48.1v-3h-1.9a4.031,4.031,0,0,1-4.031-4.031v-1.332A129.129,129.129,0,0,1,89.471,167.992Zm-47.3-29.09,16.555,19a134.52,134.52,0,0,0-16.555.592V138.9Z" transform="translate(-15.178 -108.661)" fill="#fff"/>
        <path id="Trazado_911452" data-name="Trazado 911452" d="M275.074,159.166V135.835a4.031,4.031,0,0,1,4.031-4.031H281v-3H264.721v3h1.9a4.031,4.031,0,0,1,4.031,4.031v22.78l-.062-.007L256,142.764v10.71l3.858,4.428q-1.89-.049-3.858-.044v5.569a125.6,125.6,0,0,1,34.6,4.566,39.519,39.519,0,0,0,2.318-4.851A105.966,105.966,0,0,0,275.074,159.166Z" transform="translate(-216.305 -108.661)" fill="#e0e0e0"/>
      </g>
    </g>
  </g>
</svg>
