<svg xmlns="http://www.w3.org/2000/svg" width="74.148" height="74.148" viewBox="0 0 74.148 74.148">
  <g id="img18" transform="translate(0 0)">
    <path id="Trazado_911108" data-name="Trazado 911108" d="M133.084,92.581l-3.133,5.069a17.908,17.908,0,0,1-2.359,8.884l-6.629,11.6H108.6l1.538-2.856,5.26-9.769a6.717,6.717,0,0,0,.724-4.2l-1.221-7.939a17.9,17.9,0,0,1,.812-8.681l3.371-12.15a3.7,3.7,0,0,1,7.256,1.21l-.579,9.612a3.581,3.581,0,0,1,4.185,3.529Z" transform="translate(-92.877 -59.713)" fill="#ffbb9f"/>
    <path id="Trazado_911109" data-name="Trazado 911109" d="M130.131,78.207l-1.686,10.084a13.428,13.428,0,0,0,0,4.442l1.03,6.127a13.43,13.43,0,0,1-1.066,7.888l-5.293,11.385-.264.569s-.225-.206-.618-.569c-.643-.6-1.735-1.619-3.008-2.856l5.26-9.769a6.717,6.717,0,0,0,.724-4.2l-1.221-7.939a17.9,17.9,0,0,1,.812-8.681l3.371-12.15a3.7,3.7,0,0,1,6.6-1.12C133.644,71.836,130.769,73.368,130.131,78.207Z" transform="translate(-101.961 -59.714)" fill="#eb8268"/>
    <path id="Trazado_911110" data-name="Trazado 911110" d="M196.39,147.84l-.134,2.234a2.467,2.467,0,0,0-2.029,2.108l-.964,7.718a1.119,1.119,0,1,1-2.222-.278l.965-7.718A4.345,4.345,0,0,1,196.39,147.84Z" transform="translate(-163.367 -126.43)" fill="#eb8268"/>
    <path id="Trazado_911111" data-name="Trazado 911111" d="M47.14,12.449l-.087,1.194a3.58,3.58,0,0,1,2.3,4.969L44.8,28.364a17.921,17.921,0,0,1-5.9,7.052l-8.453,5.97-3.486-5.231-2.6-3.9,3.927-2.925a6.715,6.715,0,0,0,2.434-3.5l2.252-7.71a17.931,17.931,0,0,1,4.409-7.523L46.853.951a3.174,3.174,0,0,1,5.055,3.738l-3.775,6.962Z" transform="translate(-20.837)" fill="#db9e82"/>
    <path id="Trazado_911112" data-name="Trazado 911112" d="M52.024,1.9a7.541,7.541,0,0,0-4.731,2.551L40.1,12.377a13.429,13.429,0,0,0-3.266,6.613l-.877,4.8a13.429,13.429,0,0,1-3.714,7.084l-5.276,5.277-2.6-3.9,3.927-2.925a6.715,6.715,0,0,0,2.434-3.5l2.252-7.71a17.931,17.931,0,0,1,4.409-7.523L46.854.951a3.174,3.174,0,0,1,5.17.946Z" transform="translate(-20.838 0)" fill="#c8866a"/>
    <path id="Trazado_911113" data-name="Trazado 911113" d="M129.468,78.792l-1.08,1.992a2.437,2.437,0,0,0-2.707,1.053l-4.141,6.588a1.119,1.119,0,1,1-1.895-1.192l4.141-6.586A4.774,4.774,0,0,1,129.468,78.792Z" transform="translate(-102.172 -67.142)" fill="#c8866a"/>
    <path id="Trazado_911114" data-name="Trazado 911114" d="M76.258,330.183l-8.106,17.844a2.241,2.241,0,0,1-2.038,1.311H52.236a2.237,2.237,0,0,1-2.037-3.163L60.683,323.1a2.239,2.239,0,0,1,2.963-1.112l.879.4,1.2.8,2.6.924.007,0,6.822,3.1A2.236,2.236,0,0,1,76.258,330.183Z" transform="translate(-42.755 -275.19)" fill="#fd7a6e"/>
    <path id="Trazado_911115" data-name="Trazado 911115" d="M68.317,324.116a1.324,1.324,0,0,0-1.64.825l-11.049,24.4H52.236a2.237,2.237,0,0,1-2.037-3.163L60.683,323.1a2.239,2.239,0,0,1,2.963-1.112Z" transform="translate(-42.755 -275.19)" fill="#f85647"/>
    <path id="Trazado_911116" data-name="Trazado 911116" d="M14.306,211.556l-10.634,8.87A2.239,2.239,0,0,1,0,218.708v-16.45a2.241,2.241,0,0,1,.8-1.719l2.542-2.12A2.238,2.238,0,0,1,6.5,198.7l.3.357.6,1.217,1.975,1.868h0l5.219,6.256A2.24,2.24,0,0,1,14.306,211.556Z" transform="translate(0 -169.239)" fill="#fad989"/>
    <path id="Trazado_911117" data-name="Trazado 911117" d="M6.5,198.7l2.871,3.442a2.354,2.354,0,0,0-2.477.169L0,208.152v-5.894a2.241,2.241,0,0,1,.8-1.719l2.542-2.12A2.238,2.238,0,0,1,6.5,198.7Z" transform="translate(-0.001 -169.239)" fill="#fdc072"/>
    <path id="Trazado_911118" data-name="Trazado 911118" d="M277.346,118.133H264.988l-.7-1.23-5.927-10.37A17.909,17.909,0,0,1,256,97.65l1.241-4.663L256,86.886a3.582,3.582,0,0,1,4.018-3.554l.167.025.376-1.1-.512-1.164-.451-7.577a3.7,3.7,0,0,1,7.263-.983l3.371,12.15a17.9,17.9,0,0,1,.812,8.681l-1.221,7.939a6.717,6.717,0,0,0,.724,4.2Z" transform="translate(-218.926 -59.713)" fill="#db9e82"/>
    <path id="Trazado_911119" data-name="Trazado 911119" d="M267.774,195.459s-1.676.527-3.488,1.034l-5.927-10.37A17.909,17.909,0,0,1,256,177.239V166.475a3.582,3.582,0,0,1,4.018-3.554c-.44.386-1.152,1.341-1.006,3.408l.63,9A17.916,17.916,0,0,0,261.3,181.7Z" transform="translate(-218.926 -139.302)" fill="#c8866a"/>
    <path id="Trazado_911120" data-name="Trazado 911120" d="M288.336,160.68a1.109,1.109,0,0,1-.14.009,1.121,1.121,0,0,1-1.109-.98l-.965-7.72a2.469,2.469,0,0,0-2.032-2.108l-.137-2.266a4.636,4.636,0,0,1,4.391,4.1l.965,7.72A1.12,1.12,0,0,1,288.336,160.68Z" transform="translate(-242.83 -126.236)" fill="#c8866a"/>
    <path id="Trazado_911121" data-name="Trazado 911121" d="M322.719,32.255,318.95,37.91l-2.316,3.475-8.453-5.97a17.9,17.9,0,0,1-3.776-3.6L298.39,15.929l1.482-2.238c.052-.018.106-.033.16-.048V11.8l-1.05-.094-3.8-7.016A3.174,3.174,0,0,1,300.232.951l9.466,9.643a17.93,17.93,0,0,1,4.409,7.523l2.252,7.71a6.716,6.716,0,0,0,2.434,3.5Z" transform="translate(-252.1 0)" fill="#ffbb9f"/>
    <path id="Trazado_911122" data-name="Trazado 911122" d="M334.321,118.752l-2.316,3.475-8.453-5.97a17.921,17.921,0,0,1-5.9-7.052L313.1,99.453a3.581,3.581,0,0,1,2.14-4.921,5.3,5.3,0,0,0,.664,3.888l4.431,7.86a17.9,17.9,0,0,0,4.761,5.461Z" transform="translate(-267.471 -80.842)" fill="#eb8268"/>
    <path id="Trazado_911123" data-name="Trazado 911123" d="M333.121,88.386a1.119,1.119,0,0,1-1.543-.352l-4.141-6.586a2.38,2.38,0,0,0-2.665-1.061l-1.05-1.938a4.341,4.341,0,0,1,5.61,1.808l4.141,6.586A1.12,1.12,0,0,1,333.121,88.386Z" transform="translate(-276.84 -66.744)" fill="#eb8268"/>
    <path id="Trazado_911124" data-name="Trazado 911124" d="M303.5,349.338H289.62a2.241,2.241,0,0,1-2.038-1.311l-8.107-17.844a2.236,2.236,0,0,1,1.112-2.963l.518-.236h0l1.874-.252,1.849-1.44,7.258-3.3a2.239,2.239,0,0,1,2.963,1.112l10.483,23.071A2.237,2.237,0,0,1,303.5,349.338Z" transform="translate(-238.829 -275.19)" fill="#ace094"/>
    <path id="Trazado_911125" data-name="Trazado 911125" d="M294.486,370H289.62a2.241,2.241,0,0,1-2.038-1.311l-8.107-17.844a2.236,2.236,0,0,1,1.112-2.963l4.242-1.928s-.827.773-.167,2.5Z" transform="translate(-238.829 -295.855)" fill="#8dd470"/>
    <path id="Trazado_911126" data-name="Trazado 911126" d="M422.771,202.258v16.45a2.239,2.239,0,0,1-3.672,1.719l-10.634-8.87a2.24,2.24,0,0,1-.285-3.153l.68-.815,1.6-1.127,1.192-2.217a0,0,0,0,0,0,0l4.621-5.539a2.238,2.238,0,0,1,3.153-.285l2.542,2.12a2.24,2.24,0,0,1,.8,1.719Z" transform="translate(-348.623 -169.24)" fill="#00c9df"/>
    <path id="Trazado_911127" data-name="Trazado 911127" d="M422.771,252.081v4.1A2.239,2.239,0,0,1,419.1,257.9l-10.634-8.87a2.24,2.24,0,0,1-.285-3.153l3.469-4.158a2.032,2.032,0,0,0,.788,2.383Z" transform="translate(-348.623 -206.716)" fill="#00bad5"/>
  </g>
</svg>
