<svg xmlns="http://www.w3.org/2000/svg" width="60.883" height="54.865" viewBox="0 0 60.883 54.865">
  <g id="img14" transform="translate(-37.3 -52.5)">
    <path id="Trazado_875886" data-name="Trazado 875886" d="M48.279,88.868H57.8a13.362,13.362,0,1,1,19.887,0h9.533A5.6,5.6,0,0,1,92.8,94.455v4.114a5.6,5.6,0,0,1-5.587,5.587H48.279a5.6,5.6,0,0,1-5.587-5.587V94.455A5.6,5.6,0,0,1,48.279,88.868Zm11.91,0h2.64a18.56,18.56,0,0,1-.889-2.654c-1.543-.153-3.057-.361-4.447-.639A11.411,11.411,0,0,0,60.188,88.868Zm4.475,0h6.17a14.2,14.2,0,0,0,.959-2.515,65.441,65.441,0,0,1-8.088,0A13.2,13.2,0,0,0,64.663,88.868Zm7.991,0h2.64a11.882,11.882,0,0,0,2.7-3.294c-1.39.278-2.9.486-4.447.639A18.559,18.559,0,0,1,72.654,88.868Zm1.57-31.157a.834.834,0,0,1,0-1.668h16.76a.834.834,0,0,1,0,1.668ZM72.181,84.658a26.5,26.5,0,0,0,.014-9.422,59.563,59.563,0,0,0-8.908,0,26.182,26.182,0,0,0,0,9.422A59.377,59.377,0,0,0,72.181,84.658ZM71.82,73.54c-1.543-5.614-4.933-7.435-7.365-2.1a15.385,15.385,0,0,0-.764,2.1A61.042,61.042,0,0,1,71.82,73.54ZM61.578,84.5a27.875,27.875,0,0,1,0-9.116,41.072,41.072,0,0,0-4.906.806,11.7,11.7,0,0,0,0,7.518A43.183,43.183,0,0,0,61.578,84.5Zm.361-10.826a14.1,14.1,0,0,1,2.1-4.822,11.682,11.682,0,0,0-6.545,5.462C58.882,74.04,60.4,73.832,61.939,73.679Zm9.436-4.85a14.389,14.389,0,0,1,2.154,4.85A43.33,43.33,0,0,1,78,74.318,11.737,11.737,0,0,0,71.375,68.829Zm2.515,6.559A27.132,27.132,0,0,1,73.9,84.5,41.074,41.074,0,0,0,78.81,83.7a11.8,11.8,0,0,0,0-7.518A43.97,43.97,0,0,0,73.891,75.388Zm-17.9-17.677a.834.834,0,1,1,0-1.668h.222a.834.834,0,0,1,0,1.668Zm-6.212,0a.834.834,0,1,1,0-1.668h.236a.834.834,0,0,1,0,1.668Zm-6.226,0a.834.834,0,1,1,0-1.668h.222a.834.834,0,1,1,0,1.668Zm54.629,5.336H37.314V104.53a2.847,2.847,0,0,0,2.835,2.835H95.334a2.85,2.85,0,0,0,2.849-2.835ZM37.3,61.38H98.169V55.349A2.853,2.853,0,0,0,95.32,52.5H40.149a2.85,2.85,0,0,0-2.835,2.849V61.38Z" fill="#1a3d6d"/>
    <path id="Trazado_875887" data-name="Trazado 875887" d="M48.279,88.868H57.8a13.362,13.362,0,1,1,19.887,0h9.533A5.6,5.6,0,0,1,92.8,94.455v4.114a5.6,5.6,0,0,1-5.587,5.587H48.279a5.6,5.6,0,0,1-5.587-5.587V94.455A5.6,5.6,0,0,1,48.279,88.868Zm11.91,0h2.64a18.56,18.56,0,0,1-.889-2.654c-1.543-.153-3.057-.361-4.447-.639A11.411,11.411,0,0,0,60.188,88.868Zm4.475,0h6.17a14.2,14.2,0,0,0,.959-2.515,65.441,65.441,0,0,1-8.088,0A13.2,13.2,0,0,0,64.663,88.868Zm7.991,0h2.64a11.882,11.882,0,0,0,2.7-3.294c-1.39.278-2.9.486-4.447.639A18.559,18.559,0,0,1,72.654,88.868Zm1.57-31.157a.834.834,0,0,1,0-1.668h16.76a.834.834,0,0,1,0,1.668ZM72.181,84.658a26.5,26.5,0,0,0,.014-9.422,59.563,59.563,0,0,0-8.908,0,26.182,26.182,0,0,0,0,9.422A59.377,59.377,0,0,0,72.181,84.658ZM71.82,73.54c-1.543-5.614-4.933-7.435-7.365-2.1a15.385,15.385,0,0,0-.764,2.1A61.042,61.042,0,0,1,71.82,73.54ZM61.578,84.5a27.875,27.875,0,0,1,0-9.116,41.072,41.072,0,0,0-4.906.806,11.7,11.7,0,0,0,0,7.518A43.183,43.183,0,0,0,61.578,84.5Zm.361-10.826a14.1,14.1,0,0,1,2.1-4.822,11.682,11.682,0,0,0-6.545,5.462C58.882,74.04,60.4,73.832,61.939,73.679Zm9.436-4.85a14.389,14.389,0,0,1,2.154,4.85A43.33,43.33,0,0,1,78,74.318,11.737,11.737,0,0,0,71.375,68.829Zm2.515,6.559A27.132,27.132,0,0,1,73.9,84.5,41.074,41.074,0,0,0,78.81,83.7a11.8,11.8,0,0,0,0-7.518A43.97,43.97,0,0,0,73.891,75.388Zm-17.9-17.677a.834.834,0,1,1,0-1.668h.222a.834.834,0,0,1,0,1.668Zm-6.212,0a.834.834,0,1,1,0-1.668h.236a.834.834,0,0,1,0,1.668Zm-6.226,0a.834.834,0,1,1,0-1.668h.222a.834.834,0,1,1,0,1.668Zm54.629,5.336H37.314V104.53a2.847,2.847,0,0,0,2.835,2.835H95.334a2.85,2.85,0,0,0,2.849-2.835ZM37.3,61.38H98.169V55.349A2.853,2.853,0,0,0,95.32,52.5H40.149a2.85,2.85,0,0,0-2.835,2.849V61.38Z" fill="#0720ac"/>
    <path id="Trazado_875888" data-name="Trazado 875888" d="M91.158,325.2H130.1a4.072,4.072,0,0,1,4.058,4.058v4.114a4.081,4.081,0,0,1-4.058,4.058H91.158a4.072,4.072,0,0,1-4.058-4.058v-4.114A4.072,4.072,0,0,1,91.158,325.2Zm17.83,8.839,1.626-3.6,1.64,3.711a.7.7,0,0,0,1.279-.014l2.085-5.128a.692.692,0,0,0-1.279-.528l-1.459,3.613-1.612-3.627a.7.7,0,0,0-1.265-.014l-1.654,3.655-1.431-3.613a.692.692,0,0,0-.9-.389.7.7,0,0,0-.389.9l2.043,5.128a.7.7,0,0,0,1.279.028Zm12.049,0,1.626-3.6,1.64,3.711a.7.7,0,0,0,1.279-.014l2.085-5.128a.692.692,0,0,0-1.279-.528l-1.473,3.613-1.612-3.627a.7.7,0,0,0-1.265-.014l-1.64,3.641-1.431-3.613a.7.7,0,0,0-1.292.514l2.043,5.128a.7.7,0,0,0,1.279.028Zm-24.083,0,1.626-3.6,1.64,3.711a.7.7,0,0,0,1.279-.014l2.085-5.128a.7.7,0,0,0-1.292-.528l-1.473,3.613L99.2,328.466a.7.7,0,0,0-1.265-.014l-1.64,3.641-1.431-3.613a.7.7,0,0,0-1.292.514l2.043,5.128a.7.7,0,0,0,1.279.028Z" transform="translate(-42.879 -234.803)" fill="#005c64" fill-rule="evenodd"/>
  </g>
</svg>
