<svg xmlns="http://www.w3.org/2000/svg" xmlns:xlink="http://www.w3.org/1999/xlink" width="295" height="185.437" viewBox="0 0 295 185.437">
  <defs>
    <clipPath id="clip-path">
      <rect id="Rectángulo_410315" data-name="Rectángulo 410315" width="286" height="185" transform="translate(294.332 3617.563)" fill="#fff" stroke="#707070" stroke-width="1"/>
    </clipPath>
  </defs>
  <g id="img2" transform="translate(-285.332 -3617.563)">
    <rect id="Rectángulo_401121" data-name="Rectángulo 401121" width="295" height="101" rx="30" transform="translate(285.332 3702)" fill="#71ffe9"/>
    <g id="Enmascarar_grupo_1100035" data-name="Enmascarar grupo 1100035" clip-path="url(#clip-path)">
      <g id="OBJECTS" transform="translate(315.963 3606.083)">
        <g id="Grupo_1121687" data-name="Grupo 1121687" transform="translate(0 11.838)">
          <g id="Grupo_1121645" data-name="Grupo 1121645">
            <g id="Grupo_1121627" data-name="Grupo 1121627" transform="translate(6.82)">
              <path id="Trazado_910624" data-name="Trazado 910624" d="M105.8,108.585c-.24-9.16-1.556-52.095-1.575-52.095C53.048,58.382,14.2,67.6,14.2,78.7c0,8.684,24.217,39.808,58.694,33.257v-1.1c10.139-1.1,21.215-1.873,32.916-2.267Z" transform="translate(-14.2 -43.853)" fill="#b5a392"/>
              <path id="Trazado_910625" data-name="Trazado 910625" d="M80.96,135.774v-1.1c9.952-1.076,20.812-1.84,32.267-2.243C112.79,118,112.3,102.32,112.3,102.32c-37.844,1.4-68.939,6.806-82.575,14.015,9.7,11.345,28.175,23.823,51.24,19.443Z" transform="translate(-22.266 -67.67)" fill="#2d2d30" opacity="0.15"/>
              <g id="Grupo_1121621" data-name="Grupo 1121621" transform="translate(45.802)">
                <rect id="Rectángulo_410304" data-name="Rectángulo 410304" width="31.941" height="39.328" rx="2.51" fill="#111"/>
                <g id="Grupo_1121620" data-name="Grupo 1121620" transform="translate(16.792 3.828)">
                  <path id="Trazado_910626" data-name="Trazado 910626" d="M150.586,45.766V39.7a6.066,6.066,0,1,0,6.066,6.066h-6.066Z" transform="translate(-144.52 -38.956)" fill="#f6eee3"/>
                  <path id="Trazado_910627" data-name="Trazado 910627" d="M164.723,43.333a5.182,5.182,0,0,0-5.183-5.183v5.183Z" transform="translate(-152.326 -38.15)" fill="#eb8d2e"/>
                </g>
                <path id="Trazado_910628" data-name="Trazado 910628" d="M127.376,42.56H117.64a.24.24,0,0,1,0-.48h9.736a.24.24,0,1,1,0,.48Z" transform="translate(-113.634 -36.364)" fill="#f6eee3"/>
                <path id="Trazado_910629" data-name="Trazado 910629" d="M151.137,99.5H143.01a.24.24,0,0,1,0-.48h8.127a.24.24,0,0,1,0,.48Z" transform="translate(-126.819 -65.955)" fill="#f6eee3"/>
                <path id="Trazado_910630" data-name="Trazado 910630" d="M126.372,54.96H117.64a.24.24,0,0,1,0-.48h8.732a.24.24,0,1,1,0,.48Z" transform="translate(-113.634 -42.808)" fill="#f6eee3"/>
                <path id="Trazado_910631" data-name="Trazado 910631" d="M128.8,64.94H117.64a.24.24,0,0,1,0-.48H128.8a.24.24,0,1,1,0,.48Z" transform="translate(-113.634 -47.995)" fill="#f6eee3"/>
                <path id="Trazado_910632" data-name="Trazado 910632" d="M137.953,75.01H117.64a.24.24,0,0,1,0-.48h20.312a.24.24,0,0,1,0,.48Z" transform="translate(-113.634 -53.228)" fill="#f6eee3"/>
                <path id="Trazado_910633" data-name="Trazado 910633" d="M137.953,85.9H117.64a.24.24,0,0,1,0-.48h20.312a.24.24,0,0,1,0,.48Z" transform="translate(-113.634 -58.888)" fill="#f6eee3"/>
              </g>
              <g id="Grupo_1121622" data-name="Grupo 1121622" transform="translate(28.413 8.017)">
                <path id="Trazado_910634" data-name="Trazado 910634" d="M74.073,101.367a.709.709,0,0,1-.519-.221.725.725,0,0,1,.019-1.018L96.4,78.255a.908.908,0,0,1,.73-.25.921.921,0,0,1,.663.389l4.784,6.926,17.757-22.8a.923.923,0,0,1,.865-.346.913.913,0,0,1,.72.586l3,8L141.8,50.012a.721.721,0,0,1,1.119.908L125.466,72.371a.92.92,0,0,1-1.575-.259L120.9,64.134,103.276,86.761a.94.94,0,0,1-.754.355.922.922,0,0,1-.73-.4L96.95,79.71,74.568,101.161a.713.713,0,0,1-.5.2Z" transform="translate(-73.355 -48.366)" fill="#5800ff"/>
                <path id="Trazado_910635" data-name="Trazado 910635" d="M211.191,54.594a.522.522,0,0,1-.086,0,.72.72,0,0,1-.629-.8l.629-5.245-5.086,1.667a.72.72,0,1,1-.447-1.369l5.86-1.921a.907.907,0,0,1,.869.163.917.917,0,0,1,.331.821l-.725,6.057a.721.721,0,0,1-.716.634Z" transform="translate(-141.808 -46.871)" fill="#5800ff"/>
              </g>
              <g id="Grupo_1121626" data-name="Grupo 1121626" transform="translate(33.67 26.143)">
                <g id="Grupo_1121623" data-name="Grupo 1121623">
                  <rect id="Rectángulo_410305" data-name="Rectángulo 410305" width="22.114" height="19.64" rx="2.76" transform="translate(0.235 0.24)" fill="#5800ff"/>
                  <path id="Trazado_910636" data-name="Trazado 910636" d="M105.323,104.73H85.866a1.566,1.566,0,0,1-1.566-1.566V86.176a1.566,1.566,0,0,1,1.566-1.566h19.457a1.566,1.566,0,0,1,1.566,1.566v16.989a1.566,1.566,0,0,1-1.566,1.566ZM85.861,85.09a1.084,1.084,0,0,0-1.085,1.086v16.989a1.084,1.084,0,0,0,1.085,1.086h19.457a1.084,1.084,0,0,0,1.086-1.086V86.176a1.084,1.084,0,0,0-1.086-1.086Z" transform="translate(-84.3 -84.61)" fill="#5800ff"/>
                </g>
                <g id="Grupo_1121625" data-name="Grupo 1121625" transform="translate(4.093 4.477)">
                  <path id="Trazado_910637" data-name="Trazado 910637" d="M94.045,94.08h12.647a.725.725,0,0,1,.725.725v8.53a.725.725,0,0,1-.725.725H94.045a.725.725,0,0,1-.725-.725v-8.53A.725.725,0,0,1,94.045,94.08Z" transform="translate(-93.08 -94.008)" fill="#f6eee3"/>
                  <path id="Trazado_910638" data-name="Trazado 910638" d="M93.061,109.362a.23.23,0,0,1-.183-.086.237.237,0,0,1,.029-.336l6.868-5.749a.233.233,0,0,1,.3,0l7.051,5.682a.239.239,0,1,1-.3.375l-6.9-5.557-6.72,5.624a.236.236,0,0,1-.154.058Z" transform="translate(-92.821 -98.713)" fill="#5800ff"/>
                  <g id="Grupo_1121624" data-name="Grupo 1121624">
                    <path id="Trazado_910639" data-name="Trazado 910639" d="M93.32,94.478l5.3,4.217a2.651,2.651,0,0,0,3.314-.01l5.307-4.265" transform="translate(-93.08 -94.185)" fill="#f6eee3"/>
                    <path id="Trazado_910640" data-name="Trazado 910640" d="M100.011,99.267a2.883,2.883,0,0,1-1.8-.634l-5.3-4.217a.239.239,0,0,1,.3-.375l5.3,4.217a2.4,2.4,0,0,0,3.016-.01l5.307-4.265a.239.239,0,0,1,.3.375l-5.307,4.265a2.894,2.894,0,0,1-1.816.644Z" transform="translate(-92.821 -93.931)" fill="#5800ff"/>
                  </g>
                </g>
              </g>
            </g>
            <g id="Grupo_1121639" data-name="Grupo 1121639" transform="translate(27.147 3.934)">
              <g id="Grupo_1121628" data-name="Grupo 1121628" transform="translate(129.097 9.928)">
                <path id="Trazado_910641" data-name="Trazado 910641" d="M394.695,80.025c0-9.529-28.646-17.675-69.15-20.985-.163-.014-.255,38.089-.245,49.578,11.9.961,22.786,2.344,32.229,4.054C380.136,106.98,394.695,86.759,394.695,80.025Z" transform="translate(-325.299 -59.04)" fill="#b5a392"/>
                <path id="Trazado_910642" data-name="Trazado 910642" d="M385.986,121.413c-11.441-5.524-33.257-9.914-60.4-12.133-.1-.01-.163,12.565-.207,25.447,11.888.961,22.757,2.344,32.19,4.049a58.929,58.929,0,0,0,28.415-17.368Z" transform="translate(-325.341 -85.149)" fill="#2d2d30" opacity="0.15"/>
              </g>
              <g id="Grupo_1121630" data-name="Grupo 1121630" transform="translate(142.888 25.197)">
                <rect id="Rectángulo_410306" data-name="Rectángulo 410306" width="19.621" height="19.621" rx="2.51" fill="#111"/>
                <g id="Grupo_1121629" data-name="Grupo 1121629" transform="translate(2.473 2.891)">
                  <path id="Trazado_910643" data-name="Trazado 910643" d="M369.018,109.419a.459.459,0,0,1-.317-.13.469.469,0,0,1-.144-.336v-5.576h-5.586a.459.459,0,0,1-.461-.471,6.287,6.287,0,1,1,6.523,6.513h-.019Zm-.226-6.527h.24v6.057a5.877,5.877,0,0,0,4.16-2.027,5.758,5.758,0,0,0,1.369-4.452,5.806,5.806,0,0,0-11.571.447l5.8-.029Z" transform="translate(-360.901 -96.85)" fill="#f6eee3"/>
                  <path id="Trazado_910644" data-name="Trazado 910644" d="M365.649,118.809h-.019a6.792,6.792,0,0,1-6.47-6.465h0a.5.5,0,0,1,.139-.365.51.51,0,0,1,.365-.159h5.98a.5.5,0,0,1,.5.5V118.3a.525.525,0,0,1-.154.365.5.5,0,0,1-.346.139Zm-5.985-6.508-.024.019a6.3,6.3,0,0,0,6.009,6.009l.019-6.009Z" transform="translate(-359.159 -104.63)" fill="#eb8d2e"/>
                </g>
              </g>
              <g id="Grupo_1121633" data-name="Grupo 1121633" transform="translate(159.545 1.33)">
                <g id="Grupo_1121631" data-name="Grupo 1121631">
                  <path id="Trazado_910645" data-name="Trazado 910645" d="M390.516,41.64H418.09a1.328,1.328,0,0,1,1.326,1.326V68.009a1.328,1.328,0,0,1-1.326,1.326H390.516a1.328,1.328,0,0,1-1.326-1.326V42.966a1.328,1.328,0,0,1,1.326-1.326Z" transform="translate(-388.95 -41.4)" fill="#5800ff"/>
                  <path id="Trazado_910646" data-name="Trazado 910646" d="M417.83,69.315H390.256a1.566,1.566,0,0,1-1.566-1.566V42.706a1.566,1.566,0,0,1,1.566-1.566H417.83a1.566,1.566,0,0,1,1.566,1.566V67.749A1.566,1.566,0,0,1,417.83,69.315ZM390.256,41.62a1.084,1.084,0,0,0-1.085,1.086V67.749a1.084,1.084,0,0,0,1.085,1.085H417.83a1.084,1.084,0,0,0,1.086-1.085V42.706a1.084,1.084,0,0,0-1.086-1.086Z" transform="translate(-388.69 -41.14)" fill="#5800ff"/>
                </g>
                <g id="Grupo_1121632" data-name="Grupo 1121632" transform="translate(6.513 5.245)">
                  <circle id="Elipse_11575" data-name="Elipse 11575" cx="8.843" cy="8.843" r="8.843" fill="#f6eee3"/>
                  <path id="Trazado_910647" data-name="Trazado 910647" d="M423.441,65.118H420.16V59.95a.24.24,0,1,1,.48,0v4.688h2.8a.24.24,0,1,1,0,.48Z" transform="translate(-411.558 -56.036)" fill="#5800ff"/>
                </g>
              </g>
              <g id="Grupo_1121634" data-name="Grupo 1121634" transform="translate(126.485 27.354)">
                <circle id="Elipse_11576" data-name="Elipse 11576" cx="6.182" cy="6.182" r="6.182" fill="#eb8d2e"/>
                <path id="Trazado_910648" data-name="Trazado 910648" d="M329.56,104.944a.582.582,0,0,1-.413-.173l-2.2-2.2a.241.241,0,1,1,.341-.341l2.2,2.2a.1.1,0,0,0,.149,0l5.778-5.778a.241.241,0,0,1,.341.341l-5.778,5.778a.582.582,0,0,1-.413.173Z" transform="translate(-323.503 -97.014)" fill="#111"/>
              </g>
              <g id="Grupo_1121636" data-name="Grupo 1121636" transform="translate(132.671)">
                <path id="Trazado_910649" data-name="Trazado 910649" d="M334.431,38.37a1.693,1.693,0,0,0-1.691,1.691v11.59a1.693,1.693,0,0,0,1.691,1.691h3.093a2.418,2.418,0,0,1,2.416,2.416v2.752a.8.8,0,0,0,.509.759.812.812,0,0,0,.9-.178l5.043-5.043a2.425,2.425,0,0,1,1.71-.706h6.206a1.7,1.7,0,0,0,1.7-1.691V40.061a1.694,1.694,0,0,0-1.7-1.691Z" transform="translate(-332.74 -38.37)" fill="#eb8d2e"/>
                <g id="Grupo_1121635" data-name="Grupo 1121635" transform="translate(4.813 6.335)">
                  <path id="Trazado_910650" data-name="Trazado 910650" d="M344.388,54.817a1.628,1.628,0,1,1,1.628-1.628A1.63,1.63,0,0,1,344.388,54.817Zm0-2.776a1.148,1.148,0,1,0,1.148,1.148A1.148,1.148,0,0,0,344.388,52.04Z" transform="translate(-342.76 -51.56)" fill="#111"/>
                  <path id="Trazado_910651" data-name="Trazado 910651" d="M355.138,54.817a1.628,1.628,0,1,1,1.628-1.628A1.63,1.63,0,0,1,355.138,54.817Zm0-2.776a1.148,1.148,0,1,0,1.148,1.148A1.148,1.148,0,0,0,355.138,52.04Z" transform="translate(-348.347 -51.56)" fill="#111"/>
                  <path id="Trazado_910652" data-name="Trazado 910652" d="M365.758,54.817a1.628,1.628,0,1,1,1.628-1.628A1.63,1.63,0,0,1,365.758,54.817Zm0-2.776a1.148,1.148,0,1,0,1.148,1.148A1.148,1.148,0,0,0,365.758,52.04Z" transform="translate(-353.866 -51.56)" fill="#111"/>
                </g>
              </g>
              <g id="Grupo_1121638" data-name="Grupo 1121638" transform="translate(0 11.052)">
                <path id="Trazado_910653" data-name="Trazado 910653" d="M57.5,61.38a.981.981,0,0,0-.98.98v6.72a.981.981,0,0,0,.98.98h3.6a1.392,1.392,0,0,1,.989.413L65.012,73.4a.474.474,0,0,0,.812-.336V71.467a1.4,1.4,0,0,1,1.4-1.4h1.8a.981.981,0,0,0,.98-.98v-6.72a.981.981,0,0,0-.98-.98H57.5Z" transform="translate(-56.52 -61.38)" fill="#eb8d2e"/>
                <g id="Grupo_1121637" data-name="Grupo 1121637" transform="translate(2.752 3.578)">
                  <path id="Trazado_910654" data-name="Trazado 910654" d="M75.692,70.915a1.042,1.042,0,1,1,1.042-1.042A1.044,1.044,0,0,1,75.692,70.915Zm0-1.609a.562.562,0,1,0,.562.562A.563.563,0,0,0,75.692,69.306Z" transform="translate(-68.694 -68.83)" fill="#111"/>
                  <path id="Trazado_910655" data-name="Trazado 910655" d="M69.462,70.915A1.042,1.042,0,1,1,70.5,69.872,1.044,1.044,0,0,1,69.462,70.915Zm0-1.609a.562.562,0,1,0,.562.562A.563.563,0,0,0,69.462,69.306Z" transform="translate(-65.456 -68.83)" fill="#111"/>
                  <path id="Trazado_910656" data-name="Trazado 910656" d="M63.292,70.915a1.042,1.042,0,1,1,1.042-1.042A1.044,1.044,0,0,1,63.292,70.915Zm0-1.609a.562.562,0,1,0,.562.562A.563.563,0,0,0,63.292,69.306Z" transform="translate(-62.25 -68.83)" fill="#111"/>
                </g>
              </g>
            </g>
            <g id="Grupo_1121644" data-name="Grupo 1121644" transform="translate(0 2.594)">
              <circle id="Elipse_11577" data-name="Elipse 11577" cx="1.345" cy="1.345" r="1.345" transform="translate(5.202 114.924)" fill="#eb8d2e"/>
              <path id="Trazado_910658" data-name="Trazado 910658" d="M404.25,285.255a1.345,1.345,0,1,1-1.345-1.345A1.346,1.346,0,0,1,404.25,285.255Z" transform="translate(-208.686 -164.634)" fill="#eb8d2e"/>
              <g id="Grupo_1121640" data-name="Grupo 1121640" transform="translate(231.481 22.07)">
                <path id="Trazado_910660" data-name="Trazado 910660" d="M483.785,82.712a.672.672,0,1,1-.672-.672A.674.674,0,0,1,483.785,82.712Z" transform="translate(-482.2 -81.795)" fill="#5800ff"/>
                <path id="Trazado_910661" data-name="Trazado 910661" d="M482.853,83.355a.913.913,0,1,1,.913-.913A.912.912,0,0,1,482.853,83.355Zm0-1.34a.432.432,0,1,0,.432.432A.43.43,0,0,0,482.853,82.015Z" transform="translate(-481.94 -81.53)" fill="#5800ff"/>
              </g>
              <g id="Grupo_1121641" data-name="Grupo 1121641" transform="translate(44.837 120.38)">
                <path id="Trazado_910662" data-name="Trazado 910662" d="M95.185,287.382a.672.672,0,1,1-.672-.672A.674.674,0,0,1,95.185,287.382Z" transform="translate(-93.605 -286.47)" fill="#5800ff"/>
                <path id="Trazado_910663" data-name="Trazado 910663" d="M94.263,288.035a.913.913,0,1,1,.913-.913A.912.912,0,0,1,94.263,288.035Zm0-1.345a.432.432,0,1,0,.432.432A.43.43,0,0,0,94.263,286.69Z" transform="translate(-93.35 -286.21)" fill="#5800ff"/>
              </g>
              <g id="Grupo_1121642" data-name="Grupo 1121642" transform="translate(0.432 2.69)">
                <circle id="Elipse_11578" data-name="Elipse 11578" cx="1.186" cy="1.186" r="1.186" transform="translate(0.24 0.24)" fill="#5800ff"/>
                <path id="Trazado_910664" data-name="Trazado 910664" d="M2.327,44.033a1.427,1.427,0,1,1,1.427-1.427,1.427,1.427,0,0,1-1.427,1.427Zm0-2.373a.946.946,0,1,0,.946.946.945.945,0,0,0-.946-.946Z" transform="translate(-0.9 -41.18)" fill="#5800ff"/>
              </g>
              <path id="Trazado_910667" data-name="Trazado 910667" d="M84.535,36.252a.672.672,0,1,1-.672-.672A.674.674,0,0,1,84.535,36.252Z" transform="translate(-43.233 -35.58)" fill="#111"/>
              <path id="Trazado_910668" data-name="Trazado 910668" d="M1.345,162.392a.672.672,0,1,1-.672-.672A.674.674,0,0,1,1.345,162.392Z" transform="translate(0 -101.134)" fill="#111"/>
              <path id="Trazado_910670" data-name="Trazado 910670" d="M485.185,254.012a.672.672,0,1,1-.672-.672A.674.674,0,0,1,485.185,254.012Z" transform="translate(-251.446 -148.747)" fill="#111"/>
            </g>
          </g>
          <g id="Grupo_1121677" data-name="Grupo 1121677" transform="translate(64.033 21.071)">
            <g id="Grupo_1121646" data-name="Grupo 1121646" transform="translate(11.736 144.228)">
              <path id="Trazado_910671" data-name="Trazado 910671" d="M253.121,417.837a44.01,44.01,0,0,0-10.111-30.649l-3.924-4.87-3.746-4.649-2.69-3.338-26.638,1.59-26.638-1.59-2.69,3.338-3.746,4.649-3.924,4.87a45.27,45.27,0,0,0-9.77,21.893c-.053.355-.658,7.085-1.494,15.307h95.188l.187-6.547Z" transform="translate(-157.75 -374.33)" fill="#111"/>
              <path id="Trazado_910672" data-name="Trazado 910672" d="M184.252,438.244H184.2a.48.48,0,0,1-.428-.528c.543-5.312.985-9.966,1.244-12.752.163-1.734.231-2.445.25-2.574a45.939,45.939,0,0,1,9.87-22.123.482.482,0,1,1,.749.605,44.972,44.972,0,0,0-9.669,21.657c-.014.115-.11,1.124-.245,2.526-.264,2.786-.706,7.445-1.249,12.757A.483.483,0,0,1,184.252,438.244Z" transform="translate(-171.274 -387.715)" fill="#f6eee3"/>
            </g>
            <g id="Grupo_1121654" data-name="Grupo 1121654" transform="translate(10.699)">
              <path id="Trazado_910673" data-name="Trazado 910673" d="M238.948,119.314a19.816,19.816,0,0,0-6.561-11.936c-.807-.841-1.571-1.6-2.272-2.267-2.445-2.325-5.788-4.654-5.961-7.839-.586-10.975-17.7-19.357-23.228-14.573a20.859,20.859,0,0,0-11.393-.941,10.662,10.662,0,1,0-15.25,12.368c-.154.466-.312.941-.485,1.417-2.094,5.735-5.533,9.885-10.605,14.275l-.687.6c-9.356,8.1-8.6,21.686-1.431,27.613l2.07,1.724c.322.269.648.524.985.764a3.824,3.824,0,0,1,1.7,3.6,18.538,18.538,0,0,0,.74,7.978c3.208,10.01,14.621,16.556,26.955,15.38a28.593,28.593,0,0,0,20.125-10.682c5.192-6.83,11.513-13.007,18.05-18.968,5.341-4.875,8.247-11.585,7.248-18.506Z" transform="translate(-155.591 -74.05)" fill="#111"/>
              <g id="Grupo_1121653" data-name="Grupo 1121653" transform="translate(25.267 24.222)">
                <g id="Grupo_1121648" data-name="Grupo 1121648">
                  <g id="Grupo_1121647" data-name="Grupo 1121647">
                    <path id="Trazado_910674" data-name="Trazado 910674" d="M251.906,149.956l-1.729-19.073-8.463-.154-.341-6.249-2.57,5.932-7.454-.86-1.715-2.954a1.93,1.93,0,0,0-1.854-.97c-.586,6.854-3.833,12.853-7.142,13.386l-4.467-.97v-.086l-1.4.034a6.744,6.744,0,0,0-6.571,6.868v.154a6.751,6.751,0,0,0,6.873,6.571l2.743-.062-.985,24.64c-.038,6.647,5.917,10.466,12.1,10.5h.255c6.177.034,11.263-5.375,11.3-12.022l.048-8.67a15.1,15.1,0,0,0,11.383-16.018Z" transform="translate(-208.197 -124.48)" fill="#ffa485"/>
                    <path id="Trazado_910675" data-name="Trazado 910675" d="M220.043,166.182a.482.482,0,0,1-.408-.221.477.477,0,0,1,.149-.663l1.739-1.1-1.94-2.214a.48.48,0,0,1,.72-.634l2.31,2.637a.486.486,0,0,1,.115.384.476.476,0,0,1-.216.336l-2.209,1.4A.467.467,0,0,1,220.043,166.182Z" transform="translate(-214.052 -143.555)" fill="#e06a4b"/>
                  </g>
                  <path id="Trazado_910676" data-name="Trazado 910676" d="M257.807,204.478s-13.185.543-15.365-4.159h0s-.639,7.157,15.231,10.98l.135-6.816Z" transform="translate(-225.49 -162.806)" fill="#e06a4b"/>
                </g>
                <path id="Trazado_910677" data-name="Trazado 910677" d="M216.267,180.225a2.34,2.34,0,0,1-.259-.01,3.483,3.483,0,1,1,.259.01Zm0-5.043a1.573,1.573,0,1,0,.11,0h-.115Z" transform="translate(-210.579 -149.831)" fill="#f6eee3"/>
                <g id="Grupo_1121652" data-name="Grupo 1121652" transform="translate(8.463 6.987)">
                  <path id="Trazado_910678" data-name="Trazado 910678" d="M291.523,155.655a1.3,1.3,0,1,1-1.268-1.335A1.3,1.3,0,0,1,291.523,155.655Z" transform="translate(-258.61 -146.974)" fill="#111"/>
                  <path id="Trazado_910679" data-name="Trazado 910679" d="M262.853,155.655a1.3,1.3,0,1,1-1.268-1.335A1.3,1.3,0,0,1,262.853,155.655Z" transform="translate(-243.71 -146.974)" fill="#111"/>
                  <g id="Grupo_1121650" data-name="Grupo 1121650" transform="translate(0 4.646)">
                    <path id="Trazado_910680" data-name="Trazado 910680" d="M253.2,159.934c-3.415,0-6.21-3.208-6.234-7.176-.014-2.354,3.1-3.429,6.2-3.449s6.23,1.013,6.249,3.372h0c.024,3.977-2.747,7.233-6.182,7.253Zm.053-9.184h-.077c-2.68.019-4.779.893-4.769,2,.019,3.175,2.171,5.745,4.794,5.745h.024c2.637-.014,4.769-2.623,4.745-5.8h0C257.969,151.6,255.9,150.751,253.257,150.751Z" transform="translate(-236.809 -149.016)" fill="#fff"/>
                    <path id="Trazado_910681" data-name="Trazado 910681" d="M284.754,159.324a5.79,5.79,0,0,1-4.419-2.128,7.822,7.822,0,0,1-1.816-5.048c-.014-2.354,3.1-3.429,6.206-3.449a10.556,10.556,0,0,1,4.078.706,3.042,3.042,0,0,1,2.171,2.666,7.8,7.8,0,0,1-1.753,5.067,5.8,5.8,0,0,1-4.428,2.185h-.034Zm.058-9.184h-.077c-2.68.019-4.779.893-4.769,2a6.378,6.378,0,0,0,1.465,4.116,4.216,4.216,0,0,0,6.686-.038,6.36,6.36,0,0,0,1.417-4.135c0-1.1-2.075-1.94-4.717-1.94Z" transform="translate(-253.205 -148.699)" fill="#fff"/>
                    <g id="Grupo_1121649" data-name="Grupo 1121649" transform="translate(21.9 1.268)">
                      <path id="Trazado_910682" data-name="Trazado 910682" d="M273.746,152.33l.086,4.318a.966.966,0,0,0,.985.946l.961-.019a1.314,1.314,0,0,1,1.34,1.287h0a3.259,3.259,0,0,1-3.189,3.319l-1.5.029" transform="translate(-271.94 -151.854)" fill="#ffa485"/>
                      <path id="Trazado_910683" data-name="Trazado 910683" d="M271.89,162.176a.48.48,0,0,1-.01-.961l1.5-.029a2.772,2.772,0,0,0,2.719-2.829.828.828,0,0,0-.85-.817l-.961.019a1.443,1.443,0,0,1-1.47-1.417l-.086-4.313a.482.482,0,0,1,.471-.49h.01a.48.48,0,0,1,.48.471l.086,4.318a.465.465,0,0,0,.149.341.456.456,0,0,0,.346.134l.961-.019a1.8,1.8,0,0,1,1.83,1.758,3.74,3.74,0,0,1-3.66,3.809l-1.5.029h-.01Z" transform="translate(-271.41 -151.34)" fill="#e06a4b"/>
                    </g>
                    <path id="Trazado_910684" data-name="Trazado 910684" d="M236.634,154.258a.668.668,0,0,1-.211-.034l-10.1-3.069a.72.72,0,1,1,.418-1.378l10.1,3.069a.719.719,0,0,1-.207,1.407Z" transform="translate(-225.815 -149.243)" fill="#fff"/>
                    <path id="Trazado_910685" data-name="Trazado 910685" d="M270.457,157.713a.731.731,0,0,1-.591-.3.715.715,0,0,1,.168-1,4.341,4.341,0,0,1,5.144,0,.721.721,0,0,1-.9,1.129,2.966,2.966,0,0,0-3.41.053.725.725,0,0,1-.413.13Z" transform="translate(-248.639 -152.261)" fill="#fff"/>
                  </g>
                  <path id="Trazado_910686" data-name="Trazado 910686" d="M274.1,196.467a.3.3,0,0,1-.183-.01,2.311,2.311,0,0,0-2.55.519.272.272,0,0,1-.4-.365,2.892,2.892,0,0,1,3.165-.648.274.274,0,0,1,.139.355.287.287,0,0,1-.173.154Z" transform="translate(-249.242 -168.502)" fill="#e06a4b"/>
                  <g id="Grupo_1121651" data-name="Grupo 1121651" transform="translate(12.573)">
                    <path id="Trazado_910687" data-name="Trazado 910687" d="M252.592,142.64a4.114,4.114,0,0,0,1.705-.231c.591-.163,1.191-.307,1.715-.418s1.133-.216,1.739-.307a4.09,4.09,0,0,0,1.652-.476c.408-.283.48-.869-.2-1.427a4.75,4.75,0,0,0-3.833-.624,4.617,4.617,0,0,0-3.218,2.1C251.785,142.04,252.1,142.544,252.592,142.64Z" transform="translate(-251.992 -139.026)" fill="#111"/>
                    <path id="Trazado_910688" data-name="Trazado 910688" d="M292,143.149a3.26,3.26,0,0,1-1.35-.13c-.471-.11-.946-.207-1.359-.274s-.9-.134-1.379-.187a3.215,3.215,0,0,1-1.311-.322c-.331-.211-.4-.668.11-1.129a3.751,3.751,0,0,1,3-.61,3.61,3.61,0,0,1,2.594,1.556C292.615,142.655,292.384,143.063,292,143.149Z" transform="translate(-269.84 -139.757)" fill="#111"/>
                  </g>
                  <path id="Trazado_910689" data-name="Trazado 910689" d="M265.286,179.938h-.029l-3.746-.231a2.722,2.722,0,0,1-2.55-2.728v-.509a.482.482,0,0,1,.48-.48h0a.482.482,0,0,1,.48.48v.514a1.751,1.751,0,0,0,1.647,1.763l3.746.231a.481.481,0,0,1-.029.961Z" transform="translate(-243.04 -158.236)" fill="#e06a4b"/>
                </g>
              </g>
            </g>
            <g id="Grupo_1121676" data-name="Grupo 1121676" transform="translate(0 75.049)">
              <g id="Grupo_1121656" data-name="Grupo 1121656">
                <path id="Trazado_910690" data-name="Trazado 910690" d="M217.771,252.2l27.008-.154.168-.418,8.228-20.677a.259.259,0,0,1,.226-.154l-44.15-.01,8.29,20.841.231.576Z" transform="translate(-172.778 -230.555)" fill="#ffa485"/>
                <path id="Trazado_910691" data-name="Trazado 910691" d="M276.708,235.556l-9.049,4.424a16.519,16.519,0,0,0-6.777,6.138l-3.242,5.25,1.071,1,3.213-5.207a16.427,16.427,0,0,1,6.777-6.138l8.093-3.958.735-1.854a6.8,6.8,0,0,0-.826.341Z" transform="translate(-197.926 -232.852)" fill="#e06a4b" opacity="0.46"/>
                <path id="Trazado_910692" data-name="Trazado 910692" d="M238.983,305.343a1.562,1.562,0,0,0,2.959,0L254,275.04l-27.008.154,11.993,30.144Z" transform="translate(-181.997 -253.551)" fill="#eb8d2e"/>
                <g id="Grupo_1121655" data-name="Grupo 1121655">
                  <path id="Trazado_910693" data-name="Trazado 910693" d="M255.019,267.361,233.1,241.779c-6.316-7.19-9.332-10.769-18.747-10.99h-.178a.241.241,0,0,0-.226.154l-8.228,20.677-.168.418-12.056,30.3a1.562,1.562,0,0,1-2.959,0L178.549,252.2l-.231-.576-8.29-20.841h-.293c-8.535.149-18.357,3.67-25.841,9.356a25.932,25.932,0,0,0-9.9,23.881,26.235,26.235,0,0,0,1.34,5.471l.48,1.364q2.414,6.859,5.418,13.5c.725,1.6,1.3,2.863,1.311,2.872l5.327.97a.25.25,0,0,0,.375-.01l14.121,17.882a.255.255,0,0,0,.163.235l11.057,4.073a57.956,57.956,0,0,0,36.878,0l13.727-5.351a.257.257,0,0,0,.154-.293s11.734-16.427,11.84-16.537L255.01,267.7a.256.256,0,0,0,0-.336Z" transform="translate(-133.561 -230.55)" fill="#5800ff"/>
                  <path id="Trazado_910694" data-name="Trazado 910694" d="M191.311,313.379a55.117,55.117,0,0,1-18.045-3.026L162.2,306.28a.491.491,0,0,1-.312-.365L147.943,288.25a.909.909,0,0,1-.12.019.527.527,0,0,1-.3-.1l-5.259-.956a.234.234,0,0,1-.13-.072q-.038-.043-1.354-2.939c-2-4.409-3.823-8.953-5.428-13.516l-.48-1.364a26.076,26.076,0,0,1,8.65-29.621c7.435-5.653,17.392-9.256,25.98-9.4l.058.24v-.24h.231a.24.24,0,0,1,.231.154l20.514,51.561a1.317,1.317,0,0,0,2.507,0l20.452-51.4a.485.485,0,0,1,.413-.3.208.208,0,0,1,.077,0h.125c9.419.226,12.522,3.756,18.7,10.8l.245.279,21.917,25.586h0a.491.491,0,0,1-.01.653L236.128,288.12c-.178.226-7.743,10.812-11.768,16.446a.488.488,0,0,1-.312.451l-13.727,5.351a54.981,54.981,0,0,1-18.53,3.031h-.466Zm.466-.48a54.428,54.428,0,0,0,18.362-3l13.718-5.346a.277.277,0,0,1,.043-.211c2.757-3.857,11.753-16.451,11.854-16.561l18.833-20.495.183-.173-.183.159L232.43,241.41c-6.086-6.931-9.14-10.413-18.324-10.629h-.154l-8.42,21.1-12.056,30.3a1.8,1.8,0,0,1-3.4,0L169.62,230.776h-.125c-8.492.149-18.338,3.713-25.7,9.308a25.752,25.752,0,0,0-9.813,23.66,26.135,26.135,0,0,0,1.326,5.423l.48,1.364c1.6,4.544,3.42,9.078,5.413,13.478.845,1.864,1.153,2.531,1.254,2.757l5.2.946a.247.247,0,0,1,.134.072.285.285,0,0,1,.2-.086.246.246,0,0,1,.192.091L162.3,305.67a.245.245,0,0,1,.053.149l11.066,4.083a54.409,54.409,0,0,0,18.353,3Z" transform="translate(-133.316 -230.3)" fill="#5800ff"/>
                </g>
              </g>
              <g id="Grupo_1121668" data-name="Grupo 1121668" transform="translate(53.067 27.709)">
                <g id="Grupo_1121667" data-name="Grupo 1121667">
                  <g id="Grupo_1121659" data-name="Grupo 1121659">
                    <rect id="Rectángulo_410307" data-name="Rectángulo 410307" width="36.518" height="46.686" rx="6.99" transform="translate(0 3.862)" fill="#231f20"/>
                    <g id="Grupo_1121657" data-name="Grupo 1121657" transform="translate(11.076)">
                      <rect id="Rectángulo_410308" data-name="Rectángulo 410308" width="13.9" height="4.121" rx="2.061" transform="translate(0.235 0.235)" fill="#f6eee3"/>
                      <path id="Trazado_910695" data-name="Trazado 910695" d="M279.545,292.587H268.551a1.693,1.693,0,0,1-1.691-1.691v-1.215a1.693,1.693,0,0,1,1.691-1.691h10.994a1.693,1.693,0,0,1,1.691,1.691V290.9A1.693,1.693,0,0,1,279.545,292.587Zm-11-4.121a1.211,1.211,0,0,0-1.21,1.21v1.215a1.211,1.211,0,0,0,1.21,1.21H279.54a1.211,1.211,0,0,0,1.21-1.21v-1.215a1.211,1.211,0,0,0-1.21-1.21Z" transform="translate(-266.86 -287.99)" fill="#231f20"/>
                    </g>
                    <g id="Grupo_1121658" data-name="Grupo 1121658" transform="translate(8.646 3.689)">
                      <rect id="Rectángulo_410309" data-name="Rectángulo 410309" width="18.751" height="1.931" rx="0.96" transform="translate(0.24 0.235)" fill="#f6eee3"/>
                      <path id="Trazado_910696" data-name="Trazado 910696" d="M280.33,298.081H262.5a.7.7,0,0,1-.7-.7v-1.009a.7.7,0,0,1,.7-.7H280.33a.7.7,0,0,1,.7.7v1.009A.7.7,0,0,1,280.33,298.081ZM262.5,296.146a.224.224,0,0,0-.221.221v1.009a.224.224,0,0,0,.221.221H280.33a.223.223,0,0,0,.221-.221v-1.009a.223.223,0,0,0-.221-.221Z" transform="translate(-261.8 -295.67)" fill="#231f20"/>
                    </g>
                  </g>
                  <g id="Grupo_1121666" data-name="Grupo 1121666" transform="translate(7.714 9.168)">
                    <g id="Grupo_1121661" data-name="Grupo 1121661" transform="translate(0 9.016)">
                      <g id="Grupo_1121660" data-name="Grupo 1121660">
                        <path id="Trazado_910697" data-name="Trazado 910697" d="M265.98,359.687c.264-.077.509-.144.725-.187C266.494,359.563,266.244,359.625,265.98,359.687Z" transform="translate(-263.041 -343.337)" fill="none"/>
                        <path id="Trazado_910698" data-name="Trazado 910698" d="M260.316,340.364c.461,1.835,2.142,1.748,3.785,1.33-.98.413-1.705,1.066-1.35,2.281.384,2.243,2.517,2.334,4.3,1.835-1.537.975.418,3.333,2.805,3.3,3.348.12,6.662.23,10.01.418a11.943,11.943,0,0,0,6.686-1.129l2.546.106-.538-17.623-4.184.773c-.49-.336-.994-.658-1.5-.946,0,0-8.847-3.967-12.07-4.731a3.141,3.141,0,0,0-1.052-.12,1.14,1.14,0,0,0-.884.519,1.528,1.528,0,0,0,.082,1.335c.567,1.316,1.071,2.459,1.58,3.463-1.249.062-1.595.077-3.055.125-3.079.322-8.218.231-7.56,4.232.346,1.369,1.465,1.585,2.622,1.431-1.58.533-3,1.479-2.214,3.4ZM262.8,342.2c.264-.077.509-.144.725-.187C263.314,342.074,263.064,342.137,262.8,342.2Z" transform="translate(-259.86 -325.849)" fill="#ffa485"/>
                      </g>
                      <path id="Trazado_910699" data-name="Trazado 910699" d="M281.062,334.812l8.026.187s-7.685-2.238-8.958-2.161l.932,1.979Z" transform="translate(-270.394 -329.48)" fill="#e06a4b" opacity="0.36"/>
                    </g>
                    <rect id="Rectángulo_410310" data-name="Rectángulo 410310" width="6.446" height="23.473" rx="2.47" transform="translate(34.155 34.842) rotate(-179.88)" fill="#f2f1ec"/>
                    <g id="Grupo_1121662" data-name="Grupo 1121662" transform="translate(31.297)">
                      <path id="Trazado_910700" data-name="Trazado 910700" d="M325.5,318.719V342.47a1.95,1.95,0,0,0,2.291,1.921l19-3.357a18.849,18.849,0,0,0,9.957-31.532l-1.835-1.912-27.411,8.415a2.839,2.839,0,0,0-2.008,2.714Z" transform="translate(-325.269 -307.343)" fill="#5800ff"/>
                      <path id="Trazado_910701" data-name="Trazado 910701" d="M333.22,372.081a1.291,1.291,0,1,1-1.729-.586A1.291,1.291,0,0,1,333.22,372.081Z" transform="translate(-328.009 -340.484)" fill="#f2f1ec"/>
                      <path id="Trazado_910702" data-name="Trazado 910702" d="M327.21,344.394a2.194,2.194,0,0,1-2.19-2.2V318.447A3.065,3.065,0,0,1,327.2,315.5l27.411-8.415a.243.243,0,0,1,.245.062l1.835,1.912A19.087,19.087,0,0,1,346.6,340.993l-19.006,3.357a2.08,2.08,0,0,1-.384.034Zm27.392-36.8-27.267,8.372a2.581,2.581,0,0,0-1.835,2.483V342.2a1.71,1.71,0,0,0,2.008,1.686l19-3.357a18.608,18.608,0,0,0,9.827-31.129l-1.729-1.806Z" transform="translate(-325.02 -307.077)" fill="#5800ff"/>
                    </g>
                    <g id="Grupo_1121663" data-name="Grupo 1121663" transform="translate(2.135 19.198)">
                      <line id="Línea_3271" data-name="Línea 3271" x1="4.918" y2="0.72" transform="translate(0.238 0.242)" fill="#c0644b"/>
                      <path id="Trazado_910703" data-name="Trazado 910703" d="M264.543,348.249a.238.238,0,0,1-.235-.207.243.243,0,0,1,.2-.274l4.918-.72a.246.246,0,0,1,.274.2.243.243,0,0,1-.2.274l-4.918.721h-.034Z" transform="translate(-264.305 -347.047)" fill="#f16f5f"/>
                    </g>
                    <g id="Grupo_1121664" data-name="Grupo 1121664" transform="translate(4 23.68)">
                      <line id="Línea_3272" data-name="Línea 3272" x1="4.035" y2="0.941" transform="translate(0.241 0.241)" fill="#c0644b"/>
                      <path id="Trazado_910704" data-name="Trazado 910704" d="M268.429,357.8a.245.245,0,0,1-.235-.187.239.239,0,0,1,.178-.288l4.035-.941a.239.239,0,1,1,.111.466l-4.035.941s-.038,0-.053,0Z" transform="translate(-268.187 -356.377)" fill="#f16f5f"/>
                    </g>
                    <g id="Grupo_1121665" data-name="Grupo 1121665" transform="translate(6.74 27.856)">
                      <line id="Línea_3273" data-name="Línea 3273" x1="3.871" y2="1.061" transform="translate(0.239 0.234)" fill="#c0644b"/>
                      <path id="Trazado_910705" data-name="Trazado 910705" d="M274.132,366.609a.241.241,0,0,1-.231-.178.236.236,0,0,1,.168-.293l3.871-1.057a.239.239,0,0,1,.125.461l-3.871,1.057A.433.433,0,0,1,274.132,366.609Z" transform="translate(-273.893 -365.073)" fill="#f16f5f"/>
                    </g>
                  </g>
                </g>
                <path id="Trazado_910706" data-name="Trazado 910706" d="M325.25,326.7a.238.238,0,0,1-.24-.24v-3.593a3.624,3.624,0,0,1,2.68-3.5l15.749-4.251a.239.239,0,0,1,.125.461l-15.749,4.251a3.151,3.151,0,0,0-2.325,3.036v3.593a.238.238,0,0,1-.24.24Z" transform="translate(-286.004 -302.086)" fill="#111"/>
                <path id="Trazado_910707" data-name="Trazado 910707" d="M329.493,312.146a.238.238,0,0,1-.207-.12l-5.913-10a.239.239,0,1,1,.413-.24l5.913,10a.237.237,0,0,1-.086.327A.228.228,0,0,1,329.493,312.146Z" transform="translate(-285.137 -295.095)" fill="#111"/>
              </g>
              <g id="Grupo_1121675" data-name="Grupo 1121675" transform="translate(4.773 2.055)">
                <g id="Grupo_1121672" data-name="Grupo 1121672" transform="translate(54.096)">
                  <path id="Trazado_910708" data-name="Trazado 910708" d="M255.89,255.136l5.125-8.3a16.427,16.427,0,0,1,6.777-6.138l9.049-4.424a7.453,7.453,0,0,1,4.188-.7l17.44-.994a.569.569,0,0,1,.552.8c0,.01-.01.019-.014.029a3.16,3.16,0,0,1-2.526,1.868l-8.194,1,.4.038a2.864,2.864,0,0,1,2.43,1.873l.672,1.849.572.61a2.959,2.959,0,0,1,.6,3.112L288.9,256.087a1.166,1.166,0,0,1-1.595.62h0a3.326,3.326,0,0,1-1.7-4.054l1.162-3.449-5.615,6.893a9.247,9.247,0,0,1-3.444,2.622l-4.328,1.9-3.05,8.545L255.88,255.141Z" transform="translate(-255.88 -234.578)" fill="#ffa485"/>
                  <g id="Grupo_1121669" data-name="Grupo 1121669" transform="translate(26.1 3.618)">
                    <line id="Línea_3274" data-name="Línea 3274" y1="0.259" x2="5.965" transform="translate(0.284 0.293)" fill="#c0644b"/>
                    <path id="Trazado_910709" data-name="Trazado 910709" d="M316.6,242.662a.241.241,0,0,1-.115.029l-5.961.264a.29.29,0,0,1-.3-.279.294.294,0,0,1,.279-.3l5.961-.264a.291.291,0,0,1,.3.279A.3.3,0,0,1,316.6,242.662Z" transform="translate(-310.22 -242.11)" fill="#e06a4b"/>
                  </g>
                  <g id="Grupo_1121670" data-name="Grupo 1121670" transform="translate(28.135 7.194)">
                    <line id="Línea_3275" data-name="Línea 3275" y1="0.754" x2="7.253" transform="translate(0.294 0.29)" fill="#c0644b"/>
                    <path id="Trazado_910710" data-name="Trazado 910710" d="M322.134,250.11a.309.309,0,0,1-.1.029l-7.253.754a.292.292,0,1,1-.062-.581l7.253-.754a.3.3,0,0,1,.322.259A.291.291,0,0,1,322.134,250.11Z" transform="translate(-314.457 -249.556)" fill="#e06a4b"/>
                  </g>
                  <g id="Grupo_1121671" data-name="Grupo 1121671" transform="translate(30.6 12.349)">
                    <line id="Línea_3276" data-name="Línea 3276" x1="0.788" y2="1.984" transform="translate(0.289 0.289)" fill="#c0644b"/>
                    <path id="Trazado_910711" data-name="Trazado 910711" d="M320.007,262.825a.287.287,0,0,1-.235.01.294.294,0,0,1-.163-.379l.788-1.984a.292.292,0,1,1,.543.216l-.788,1.984A.268.268,0,0,1,320.007,262.825Z" transform="translate(-319.589 -260.289)" fill="#e06a4b"/>
                  </g>
                </g>
                <g id="Grupo_1121674" data-name="Grupo 1121674" transform="translate(0 16.211)">
                  <path id="Trazado_910712" data-name="Trazado 910712" d="M1.186,0H5.6A1.189,1.189,0,0,1,6.782,1.186v22.32A1.189,1.189,0,0,1,5.6,24.693H1.186A1.189,1.189,0,0,1,0,23.506V1.186A1.189,1.189,0,0,1,1.186,0Z" transform="matrix(0.682, -0.731, 0.731, 0.682, 49.983, 4.961)" fill="#f2f1ec"/>
                  <g id="Grupo_1121673" data-name="Grupo 1121673" transform="translate(0 2.11)">
                    <path id="Trazado_910713" data-name="Trazado 910713" d="M149.538,313.216c.85,1.6,2.07,3.727,3.463,6.052a18.618,18.618,0,0,0,20.24,8.593,18.428,18.428,0,0,0,7.771-3.929c3.977-3.377,8.247-7.123,12.411-10.836,8.66-7.728,16.873-15.312,21.1-19.121a2.1,2.1,0,0,0,.024-3.1L195.96,273.629a1.571,1.571,0,0,0-2.094-.034l-22.575,19.688-27.531,5.38s3.381,10,5.778,14.544Z" transform="translate(-143.516 -272.977)" fill="#5800ff"/>
                    <path id="Trazado_910714" data-name="Trazado 910714" d="M168.693,328.346a18.8,18.8,0,0,1-16.167-9.208c-1.518-2.541-2.685-4.582-3.468-6.066h0c-2.382-4.505-5.759-14.481-5.793-14.582a.235.235,0,0,1,.019-.2.254.254,0,0,1,.163-.115l27.469-5.365,22.522-19.645a1.8,1.8,0,0,1,2.416.038l18.588,17.243a2.344,2.344,0,0,1-.024,3.458c-1.451,1.306-3.372,3.064-5.624,5.115-4.361,3.982-9.794,8.934-15.476,14.006-4.75,4.236-8.809,7.781-12.416,10.841a18.613,18.613,0,0,1-7.872,3.977,19.134,19.134,0,0,1-4.332.5ZM143.808,298.6c.548,1.6,3.525,10.187,5.677,14.251h0c.778,1.475,1.94,3.506,3.453,6.042a18.348,18.348,0,0,0,27.652,4.606c3.6-3.055,7.661-6.6,12.406-10.836,5.682-5.072,11.114-10.024,15.476-14,2.248-2.051,4.174-3.809,5.624-5.115a1.862,1.862,0,0,0,.019-2.747l-18.588-17.243a1.324,1.324,0,0,0-1.772-.029l-22.57,19.688a.215.215,0,0,1-.11.053L143.813,298.6Z" transform="translate(-143.252 -272.722)" fill="#5800ff"/>
                  </g>
                  <path id="Trazado_910715" data-name="Trazado 910715" d="M192.651,373.488c-.437,0-.879-.01-1.316-.034a.235.235,0,0,1-.226-.255.232.232,0,0,1,.255-.226,24.3,24.3,0,0,0,17.786-6.451l7.109-6.624a.241.241,0,0,1,.327.355l-7.109,6.624a24.786,24.786,0,0,1-16.821,6.614Z" transform="translate(-168.123 -315.884)" fill="#111"/>
                  <path id="Trazado_910716" data-name="Trazado 910716" d="M181.6,307.282a.237.237,0,0,1-.183-.086.243.243,0,0,1,.029-.341l24.2-20.6a.239.239,0,1,1,.307.365l-24.2,20.6a.236.236,0,0,1-.154.058Z" transform="translate(-163.057 -277.617)" fill="#111"/>
                  <path id="Trazado_910717" data-name="Trazado 910717" d="M184.675,300.361a.238.238,0,0,1-.207-.12l-9.534-16.47a.239.239,0,0,1,.413-.24L184.881,300a.237.237,0,0,1-.086.327A.216.216,0,0,1,184.675,300.361Z" transform="translate(-159.7 -276.167)" fill="#111"/>
                </g>
                <path id="Trazado_910718" data-name="Trazado 910718" d="M277.6,310.951a1.291,1.291,0,1,1-1.729-.586A1.291,1.291,0,0,1,277.6,310.951Z" transform="translate(-211.798 -273.894)" fill="#f2f1ec"/>
              </g>
            </g>
          </g>
          <g id="Grupo_1121686" data-name="Grupo 1121686" transform="translate(6.82 34.847)">
            <g id="Grupo_1121680" data-name="Grupo 1121680">
              <path id="Trazado_910719" data-name="Trazado 910719" d="M14.2,102.73v56.633c0,8.684,23.8,16.225,58.694,20V122.725C38,118.955,14.2,111.414,14.2,102.73Z" transform="translate(-14.2 -102.73)" fill="#eb8d2e"/>
              <path id="Trazado_910720" data-name="Trazado 910720" d="M73.136,151.822h-.024c-28.78-3.112-46.662-9.265-46.662-16.062a.24.24,0,0,1,.48,0c0,6.431,18.146,12.546,46.235,15.586a.241.241,0,0,1-.029.48Z" transform="translate(-20.566 -119.771)" fill="#f6eee3"/>
              <path id="Trazado_910721" data-name="Trazado 910721" d="M59.49,176.385a.26.26,0,0,1-.053,0,88.159,88.159,0,0,1-11.566-3.425.241.241,0,0,1-.139-.312.245.245,0,0,1,.312-.139,88.919,88.919,0,0,0,11.5,3.405.235.235,0,0,1,.178.288.241.241,0,0,1-.235.187Z" transform="translate(-31.618 -138.984)" fill="#f6eee3"/>
              <path id="Trazado_910722" data-name="Trazado 910722" d="M104.89,185.767h-.024c-6.143-.663-11.9-1.484-17.118-2.43a.239.239,0,0,1,.086-.471c5.207.946,10.956,1.763,17.085,2.426a.241.241,0,0,1-.029.48Z" transform="translate(-52.32 -144.374)" fill="#111"/>
              <g id="Grupo_1121678" data-name="Grupo 1121678" transform="translate(7.214 40.207)">
                <path id="Trazado_910723" data-name="Trazado 910723" d="M29.72,209.1l6.628,2.123v-9.453L29.72,199.22Z" transform="translate(-29.48 -193.082)" fill="#111"/>
                <path id="Trazado_910724" data-name="Trazado 910724" d="M36.329,204.9l-7.109-2.277V186.44l7.109,2.733ZM29.7,202.276l6.148,1.969V189.5L29.7,187.141Z" transform="translate(-29.22 -186.44)" fill="#f6eee3"/>
                <path id="Trazado_910725" data-name="Trazado 910725" d="M56.219,218.849l-7.109-2.277V207.59l7.109,2.733Zm-6.628-2.627,6.148,1.969v-7.536l-6.148-2.363Z" transform="translate(-39.557 -197.431)" fill="#f6eee3"/>
              </g>
              <path id="Trazado_910726" data-name="Trazado 910726" d="M424.119,102.73v56.633c0,7.176-16.249,13.569-41.571,17.7-.716.115-.855-56.494-.245-56.6C407.765,116.337,424.119,109.925,424.119,102.73Z" transform="translate(-205.299 -102.73)" fill="#eb8d2e"/>
              <g id="Grupo_1121679" data-name="Grupo 1121679" transform="translate(200.946 18.294)">
                <path id="Trazado_910727" data-name="Trazado 910727" d="M432.809,146.16a.238.238,0,0,1-.058-.471c6.018-1.431,10.524-3.055,13.4-4.837a.246.246,0,0,1,.331.077.242.242,0,0,1-.077.331c-2.92,1.806-7.478,3.453-13.545,4.894-.019,0-.038,0-.058,0Z" transform="translate(-432.567 -140.818)" fill="#111"/>
                <path id="Trazado_910728" data-name="Trazado 910728" d="M433.529,162.4a.241.241,0,0,1-.235-.183.239.239,0,0,1,.178-.288c5.86-1.393,10.255-2.978,13.06-4.712a.241.241,0,1,1,.255.408c-2.848,1.763-7.286,3.367-13.2,4.769C433.567,162.4,433.548,162.4,433.529,162.4Z" transform="translate(-432.942 -149.323)" fill="#f6eee3"/>
              </g>
            </g>
            <g id="Grupo_1121681" data-name="Grupo 1121681" transform="translate(33.91 50.039)">
              <path id="Trazado_910729" data-name="Trazado 910729" d="M97.843,221.036l-9.323-9.616a.72.72,0,0,1,1.033-1l8.333,8.6,9.64-9.044,11.868,9.2a.719.719,0,0,1-.879,1.138l-10.9-8.453-9.774,9.169Z" transform="translate(-86.627 -208.5)" fill="#1b1f38" opacity="0.69"/>
              <path id="Trazado_910730" data-name="Trazado 910730" d="M89.632,209.326a2.416,2.416,0,1,1-2.416-2.416A2.415,2.415,0,0,1,89.632,209.326Z" transform="translate(-84.8 -206.91)" fill="#bcc5f6"/>
              <path id="Trazado_910731" data-name="Trazado 910731" d="M128.222,209.326a2.416,2.416,0,1,1-2.416-2.416A2.415,2.415,0,0,1,128.222,209.326Z" transform="translate(-104.855 -206.91)" fill="#bcc5f6"/>
              <path id="Trazado_910732" data-name="Trazado 910732" d="M108.012,227.706a2.416,2.416,0,1,1-2.416-2.416A2.415,2.415,0,0,1,108.012,227.706Z" transform="translate(-94.352 -216.462)" fill="#5f73d3"/>
              <path id="Trazado_910733" data-name="Trazado 910733" d="M151.922,227.706a2.416,2.416,0,1,1-2.416-2.416A2.415,2.415,0,0,1,151.922,227.706Z" transform="translate(-117.171 -216.462)" fill="#5f73d3"/>
            </g>
            <g id="Grupo_1121685" data-name="Grupo 1121685" transform="translate(160.385 20.24)">
              <g id="Grupo_1121682" data-name="Grupo 1121682" transform="translate(0 12.608)">
                <rect id="Rectángulo_410311" data-name="Rectángulo 410311" width="3.895" height="27.714" transform="translate(0.24 0.24)" fill="#5800ff"/>
                <path id="Trazado_910734" data-name="Trazado 910734" d="M352.5,199.314H348.12V171.12H352.5Zm-3.9-.48h3.415V171.6H348.6Z" transform="translate(-348.12 -171.12)" fill="#5800ff"/>
              </g>
              <path id="Trazado_910735" data-name="Trazado 910735" d="M367.976,191.192H363.6v-35.7h4.376Zm-3.9-.48h3.415V155.97h-3.415Z" transform="translate(-356.165 -150.389)" fill="#111"/>
              <path id="Trazado_910736" data-name="Trazado 910736" d="M400.136,191.192H395.76v-35.7h4.376Zm-3.9-.48h3.415V155.97h-3.415Z" transform="translate(-372.878 -150.389)" fill="#111"/>
              <rect id="Rectángulo_410312" data-name="Rectángulo 410312" width="3.895" height="40.562" transform="translate(30.336)" fill="#fff" opacity="0.46"/>
              <g id="Grupo_1121683" data-name="Grupo 1121683" transform="translate(30.096 13.833)">
                <rect id="Rectángulo_410313" data-name="Rectángulo 410313" width="3.895" height="26.489" transform="translate(0.24 0.24)" fill="#5800ff"/>
                <path id="Trazado_910737" data-name="Trazado 910737" d="M415.156,200.639H410.78V173.67h4.376Zm-3.9-.48h3.415V174.15H411.26Z" transform="translate(-410.78 -173.67)" fill="#5800ff"/>
              </g>
              <g id="Grupo_1121684" data-name="Grupo 1121684" transform="translate(15.375 15.495)">
                <rect id="Rectángulo_410314" data-name="Rectángulo 410314" width="3.895" height="24.827" transform="translate(0.24 0.24)" fill="#5800ff"/>
                <path id="Trazado_910738" data-name="Trazado 910738" d="M384.506,202.438H380.13V177.13h4.376Zm-3.9-.48h3.415V177.61H380.61Z" transform="translate(-380.13 -177.13)" fill="#5800ff"/>
              </g>
            </g>
          </g>
        </g>
      </g>
    </g>
  </g>
</svg>
