<svg xmlns="http://www.w3.org/2000/svg" xmlns:xlink="http://www.w3.org/1999/xlink" width="295.289" height="313" viewBox="0 0 295.289 313">
  <defs>
    <clipPath id="clip-path">
      <rect id="Rectángulo_410539" data-name="Rectángulo 410539" width="295" height="313" transform="translate(915.289 5500)" fill="#fff" stroke="#707070" stroke-width="1"/>
    </clipPath>
    <clipPath id="clip-path-2">
      <rect id="Rectángulo_410538" data-name="Rectángulo 410538" width="272.069" height="307.296" fill="none"/>
    </clipPath>
    <clipPath id="clip-path-4">
      <rect id="Rectángulo_410530" data-name="Rectángulo 410530" width="86.806" height="64.398" fill="none"/>
    </clipPath>
    <clipPath id="clip-path-5">
      <rect id="Rectángulo_410531" data-name="Rectángulo 410531" width="87.339" height="64.931" fill="none"/>
    </clipPath>
    <clipPath id="clip-path-6">
      <rect id="Rectángulo_410532" data-name="Rectángulo 410532" width="68.694" height="61.372" fill="none"/>
    </clipPath>
    <clipPath id="clip-path-7">
      <rect id="Rectángulo_410533" data-name="Rectángulo 410533" width="69.228" height="61.906" fill="none"/>
    </clipPath>
    <clipPath id="clip-path-8">
      <rect id="Rectángulo_410534" data-name="Rectángulo 410534" width="66.263" height="70.42" fill="none"/>
    </clipPath>
    <clipPath id="clip-path-9">
      <rect id="Rectángulo_410535" data-name="Rectángulo 410535" width="57.236" height="104.969" fill="none"/>
    </clipPath>
    <clipPath id="clip-path-10">
      <rect id="Rectángulo_410536" data-name="Rectángulo 410536" width="109.319" height="77.7" fill="none"/>
    </clipPath>
  </defs>
  <g id="img3" transform="translate(-390 -1475)">
    <path id="Trazado_911364" data-name="Trazado 911364" d="M128.573,10.008c94.019,20.451,59.5,90.958,79.1,138.734s61.477,69.7,19,126.951S64.355,310.278,15.444,222.366,41.861-8.853,128.573,10.008" transform="translate(406 1480.613)" fill="#ebf3ff"/>
    <rect id="Rectángulo_410528" data-name="Rectángulo 410528" width="171.355" height="99.088" transform="translate(390 1642.574)" fill="#2020a8"/>
    <g id="Grupo_1122213" data-name="Grupo 1122213" transform="translate(433.344 1731.494)">
      <path id="Trazado_875761" data-name="Trazado 875761" d="M329.3,357.061H302.1L284.53,325.34h27.2Z" transform="translate(-260.051 -325.34)" fill="#2020a8"/>
      <rect id="Rectángulo_403164" data-name="Rectángulo 403164" width="69.254" height="2.21" transform="translate(0 31.721)" fill="#2020a8"/>
    </g>
    <rect id="Rectángulo_410529" data-name="Rectángulo 410529" width="171.355" height="84.476" transform="translate(390 1642.574)" fill="#141482"/>
    <path id="Trazado_911365" data-name="Trazado 911365" d="M296.89,347.66h27.2l5.515,9.959h-27.2Z" transform="translate(166.566 1394.007)" fill="#141482"/>
    <g id="Enmascarar_grupo_1100043" data-name="Enmascarar grupo 1100043" transform="translate(-525 -4025)" clip-path="url(#clip-path)">
      <g id="Grupo_1122238" data-name="Grupo 1122238" transform="translate(931 5505.704)">
        <g id="Grupo_1122237" data-name="Grupo 1122237" clip-path="url(#clip-path-2)">
          <g id="Grupo_1122236" data-name="Grupo 1122236">
            <g id="Grupo_1122235" data-name="Grupo 1122235" clip-path="url(#clip-path-2)">
              <path id="Trazado_911366" data-name="Trazado 911366" d="M91.59,7.305C85.261-3.251,62.247-2.585,59.3,10.729S40.944,25.565,42.561,34.314s-11.888,1.9-13.314,15.121,27.1,38.249,56.82,22.738,7.278-28.442,9.75-36.384S101.552,22.331,98.067,19s1.089-10.272-6.477-11.7" transform="translate(-0.319 0)" fill="#4a0945"/>
              <path id="Trazado_911367" data-name="Trazado 911367" d="M96.191,276.991l-.032.075c0-.048.01-.075.01-.075Z" transform="translate(-1.05 -3.024)" fill="#2b022b"/>
              <path id="Trazado_911368" data-name="Trazado 911368" d="M126.137,286.938l-7.07,8.41-24.921-4.008c.71-5.929,1.862-13.448,1.991-14.274l.032-.074h18.9s4.984,4.386,11.067,9.946" transform="translate(-1.028 -3.024)" fill="#ff94a9"/>
              <path id="Trazado_911369" data-name="Trazado 911369" d="M147.876,309.722c-1.045,2.85-27.295-3.709-35.187-5.325s-19.024-2.663-19.114-6.372a59.151,59.151,0,0,1,.565-6.574l24.921,4.008,7.07-8.41c9.776,8.933,22.391,20.913,21.745,22.674" transform="translate(-1.022 -3.134)" fill="#2b022b"/>
              <path id="Trazado_911370" data-name="Trazado 911370" d="M82.836,256.361,71.9,257.426,56.892,237.133c4.654-3.741,10.735-8.308,11.406-8.81l.075-.032,13.509,13.219s.495,6.621.953,14.85" transform="translate(-0.621 -2.493)" fill="#ff94a9"/>
              <path id="Trazado_911371" data-name="Trazado 911371" d="M82.459,287.873c-2.741,1.306-16.914-21.74-21.425-28.416S49.3,244.249,51.829,241.535a59.45,59.45,0,0,1,5-4.3L71.84,257.525l10.935-1.066c.739,13.222,1.377,30.607-.317,31.414" transform="translate(-0.56 -2.59)" fill="#2b022b"/>
              <path id="Trazado_911372" data-name="Trazado 911372" d="M93.973,106.807s36.011,54.065,38.8,63.7-49.452,74.559-49.452,74.559-20.288-13.187-19.273-16.231,36.714-56.954,36.714-56.954S64.5,124.608,67.193,116.745s13.993-16,13.993-16" transform="translate(-0.699 -1.1)" fill="#2b022b"/>
              <path id="Trazado_911373" data-name="Trazado 911373" d="M42.7,112c-5.326,37.9,19.108,64.276,37.957,88.369,3.634,38.04,12.763,81.913,13.524,81.152s22.824-3.043,22.063-5.579S111.68,194.03,109.4,187.69s-34.489-79.243-34.489-79.243l-24.98,6.512" transform="translate(-0.458 -1.184)" fill="#4a0945"/>
              <path id="Trazado_911374" data-name="Trazado 911374" d="M137.861,114.787c.729-8.827,1.3-13.815-2.061-9.314a23.863,23.863,0,0,0-4.184,8.5" transform="translate(-1.437 -1.133)" fill="#ff94a9"/>
              <path id="Trazado_911375" data-name="Trazado 911375" d="M58.561,116.924,59.7,100.99l.453-6.334.523-7.375.453-6.328.529-7.375.453-6.329.5-7.012,1.858-15.683,16.345,1.008,9.237,12.871s.416,2.332,1.051,6.046c.3,1.782.656,3.879,1.041,6.19.373,2.236.773,4.669,1.179,7.209.325,2.012.651,4.093.976,6.19.374,2.407.737,4.841,1.084,7.22.309,2.129.6,4.215.859,6.206.491,3.67.88,7.021,1.116,9.728,1.264,14.776-15.977,9.317-38.8,9.7" transform="translate(-0.639 -0.486)" fill="#fff"/>
              <path id="Trazado_911376" data-name="Trazado 911376" d="M96.258,98.01l-36.543,3.5.454-6.334L95.4,91.8c.31,2.129.6,4.216.86,6.206" transform="translate(-0.652 -1.002)" fill="#eaeaea"/>
              <path id="Trazado_911377" data-name="Trazado 911377" d="M94.326,84.437,60.7,87.649l.453-6.329L93.35,78.247c.325,2.012.651,4.093.976,6.19" transform="translate(-0.663 -0.854)" fill="#eaeaea"/>
              <path id="Trazado_911378" data-name="Trazado 911378" d="M92.18,70.89,61.695,73.8l.454-6.328L91.14,64.7c.3,1.782.657,3.879,1.041,6.19" transform="translate(-0.674 -0.706)" fill="#eaeaea"/>
              <path id="Trazado_911379" data-name="Trazado 911379" d="M134.724,101.368l-12.775,8.261-16.51-25.022c3.409-5.864,8.943-9.946,12.871-12.294,6.729,11.659,16.414,29.055,16.414,29.055" transform="translate(-1.151 -0.79)" fill="#ff94a9"/>
              <path id="Trazado_911380" data-name="Trazado 911380" d="M118.023,72.006c-3.928,2.348-9.461,6.43-12.871,12.294l-3.746-5.677c.234.395,1.691,3.378-1.238,13.484-3.17,10.939,2.156,24.761,1.777,24.509A37.846,37.846,0,0,1,91.295,97.7C88.755,86.184,83.472,50.256,79.2,44.252c19.252,2.62,30.283,14.5,32.758,17.695.753.966,3.127,4.968,6.062,10.059" transform="translate(-0.865 -0.483)" fill="#4ca1ff"/>
              <path id="Trazado_911381" data-name="Trazado 911381" d="M40.371,93.665s-11.6-15.723-7.032-30.939S63.22,44.254,63.22,44.254a106.507,106.507,0,0,1,6.51,43.515c-1.522,24.409-10.017,52.939-12.553,52.178s-22.8-6.922-24.9-15.633c.938-5.669,10.184-24.055,8.1-30.649" transform="translate(-0.352 -0.483)" fill="#4ca1ff"/>
              <path id="Trazado_911382" data-name="Trazado 911382" d="M104.563,122.249l14.713-32.891a2.239,2.239,0,0,1,2.261-1.143l19.76,2.732c.909.126,2.626,2.078,2.287,2.836l-15.967,31.655a2.241,2.241,0,0,1-2.261,1.144l-19.2-1.262c-.909-.126-1.937-2.312-1.6-3.07" transform="translate(-1.141 -0.963)" fill="#90a6ff"/>
              <path id="Trazado_911383" data-name="Trazado 911383" d="M106.754,125.527l19.76,2.732a2.238,2.238,0,0,0,2.26-1.143l14.714-32.891a1.128,1.128,0,0,0-1.034-1.6l-19.76-2.733a2.241,2.241,0,0,0-2.26,1.144l-14.713,32.891a1.128,1.128,0,0,0,1.033,1.6" transform="translate(-1.153 -0.981)" fill="#c7ddff"/>
              <path id="Trazado_911384" data-name="Trazado 911384" d="M136.243,101.593h0A2.336,2.336,0,0,0,138.6,100.4l1.706-3.813a1.177,1.177,0,0,0-1.078-1.67,2.338,2.338,0,0,0-2.36,1.195l-1.705,3.813a1.177,1.177,0,0,0,1.078,1.67" transform="translate(-1.474 -1.036)" fill="#4a0945"/>
              <path id="Trazado_911385" data-name="Trazado 911385" d="M40.46,94.105c4.38-8.115,15.158-9.51,15.158-9.51l7.692,17.879,35.04,6.075s3.676-2.6,5.912-2.889,8.511-4.089,10.081-3.233-4.612,6.658-4.612,6.658a60.3,60.3,0,0,0,6.7,1c3.946.381,8.892-1.521,8.417.857s-6.373,10.08-11.6,10.366-15.216-2.346-15.216-2.346l-38.94-.688A9.935,9.935,0,0,1,50.5,113Z" transform="translate(-0.442 -0.924)" fill="#ff94a9"/>
              <line id="Línea_3284" data-name="Línea 3284" x1="5.706" y1="15.859" transform="translate(49.47 67.812)" fill="none" stroke="#0063bc" stroke-linecap="round" stroke-linejoin="round" stroke-width="1.079"/>
              <path id="Trazado_911386" data-name="Trazado 911386" d="M101.576,78.82c-5.9-9.114-6.754-16.532-6.754-16.532" transform="translate(-1.035 -0.68)" fill="none" stroke="#0063bc" stroke-linecap="round" stroke-linejoin="round" stroke-width="1.079"/>
              <path id="Trazado_911387" data-name="Trazado 911387" d="M130.4,124.193c-4.882-.634-3.34-6.817-3.34-9.923s.063-5.9,1.711-6.087,6.658,3.424,8.179,3.3,2.453,6.943-6.55,12.713" transform="translate(-1.385 -1.181)" fill="#ff94a9"/>
              <path id="Trazado_911388" data-name="Trazado 911388" d="M80.894,38.838c-.4,2.1-.715,4.365-.987,6.249-.064.448-.129.874-.187,1.27a20.315,20.315,0,0,1-.491,2.625c-.416,1.276-3.656,3.869-8.122,1.9s-7.475-4.195-7.545-6.809a114.228,114.228,0,0,0,3.271-13.122c.08-.533.144-1.041.192-1.509.038-.443.058-.855.053-1.217l1.025.784.635.486Z" transform="translate(-0.694 -0.308)" fill="#ff94a9"/>
              <path id="Trazado_911389" data-name="Trazado 911389" d="M80.93,38.851c-.4,2.1-.715,4.365-.987,6.249-.064.448-.129.874-.187,1.27-9.429,2.215-12.871-4.787-12.887-15.4,0-.5,0-1,.022-1.515l.17.006,1.713.053Z" transform="translate(-0.73 -0.322)" fill="#d9568e"/>
              <path id="Trazado_911390" data-name="Trazado 911390" d="M91.941,15.23c-9.052,8-21.917,4.214-21.917,4.214s-.145,8.166-1.252,8.976-.167-6.715-4.932-5.98-2.164,9.565,2.842,8.316c0,0,3.289,12.312,13.924,11.818S91.434,30.644,91.941,15.23" transform="translate(-0.67 -0.166)" fill="#ff94a9"/>
              <path id="Trazado_911391" data-name="Trazado 911391" d="M81.189,36.606a2.377,2.377,0,1,1-4.736-.422Z" transform="translate(-0.835 -0.395)" fill="#fff"/>
              <path id="Trazado_911392" data-name="Trazado 911392" d="M64.866,28.836c2.122-.047,1.211-4.066-1-3.418" transform="translate(-0.697 -0.277)" fill="none" stroke="#d9568e" stroke-linecap="round" stroke-linejoin="round" stroke-width="0.54"/>
              <path id="Trazado_911393" data-name="Trazado 911393" d="M82.323,26.328c.087.162,1.306,2.716,2.2,4.583A1.565,1.565,0,0,1,83.3,33.138l-2.794.353" transform="translate(-0.879 -0.287)" fill="none" stroke="#d9568e" stroke-linecap="round" stroke-linejoin="round" stroke-width="0.54"/>
              <path id="Trazado_911394" data-name="Trazado 911394" d="M75.97,28.714a1,1,0,1,0,1.194-.761,1,1,0,0,0-1.194.761" transform="translate(-0.829 -0.305)" fill="#4a0945"/>
              <path id="Trazado_911395" data-name="Trazado 911395" d="M87.064,27.761A1,1,0,1,0,88.258,27a1,1,0,0,0-1.194.761" transform="translate(-0.95 -0.295)" fill="#4a0945"/>
              <path id="Trazado_911396" data-name="Trazado 911396" d="M78.8,25.119s-2.522-1.469-4.251.615" transform="translate(-0.814 -0.269)" fill="none" stroke="#4a0945" stroke-linecap="round" stroke-miterlimit="10" stroke-width="0.54"/>
              <path id="Trazado_911397" data-name="Trazado 911397" d="M89.781,24.684s-2.522-1.469-4.251.615" transform="translate(-0.934 -0.264)" fill="none" stroke="#4a0945" stroke-linecap="round" stroke-miterlimit="10" stroke-width="0.54"/>
              <g id="Grupo_1122216" data-name="Grupo 1122216" transform="translate(157.552 65.019)" opacity="0.41">
                <g id="Grupo_1122215" data-name="Grupo 1122215">
                  <g id="Grupo_1122214" data-name="Grupo 1122214" clip-path="url(#clip-path-4)">
                    <path id="Trazado_911398" data-name="Trazado 911398" d="M233.2,116.333l-71.584,13.746c-1.553.3-2.569-.617-2.27-2.044l9.5-45.37a4.478,4.478,0,0,1,3.351-3.125l71.584-13.746c1.552-.3,2.569.617,2.27,2.044l-9.5,45.371a4.475,4.475,0,0,1-3.351,3.124" transform="translate(-159.291 -65.737)" fill="#6d4aff"/>
                  </g>
                </g>
              </g>
              <g id="Grupo_1122219" data-name="Grupo 1122219" transform="translate(160.328 68.111)" opacity="0.41">
                <g id="Grupo_1122218" data-name="Grupo 1122218">
                  <g id="Grupo_1122217" data-name="Grupo 1122217" clip-path="url(#clip-path-5)">
                    <path id="Trazado_911399" data-name="Trazado 911399" d="M236.273,119.728l-71.584,13.746c-1.553.3-2.569-.617-2.27-2.044l9.5-45.37a4.478,4.478,0,0,1,3.351-3.125l71.584-13.746c1.552-.3,2.569.617,2.27,2.044l-9.5,45.371A4.475,4.475,0,0,1,236.273,119.728Z" transform="translate(-162.101 -68.866)" fill="none" stroke="#6d4aff" stroke-miterlimit="10" stroke-width="0.54"/>
                  </g>
                </g>
              </g>
              <path id="Trazado_911400" data-name="Trazado 911400" d="M172.69,108.368c7.289-1.4,6.89,4.216,13.571,2.933s8.929-11.1,13.789-12.028,2.912,3.729,6.859,2.971,3.541-8.1,11.538-9.631,7.018-9.388,18.052-11.508" transform="translate(-1.885 -0.886)" fill="none" stroke="#fff" stroke-linecap="round" stroke-linejoin="round" stroke-width="1.619"/>
              <line id="Línea_3285" data-name="Línea 3285" y1="1.129" x2="5.875" transform="translate(175.11 85.782)" fill="none" stroke="#fff" stroke-linecap="round" stroke-linejoin="round" stroke-width="1.619"/>
              <line id="Línea_3286" data-name="Línea 3286" y1="2.1" x2="10.932" transform="translate(174.233 89)" fill="none" stroke="#fff" stroke-linecap="round" stroke-linejoin="round" stroke-width="1.619"/>
              <path id="Trazado_911401" data-name="Trazado 911401" d="M187.828,212.769l-23.441,8.976-20.328-18.466L167.5,194.3Z" transform="translate(-1.573 -2.121)" fill="#a275ff"/>
              <path id="Trazado_911402" data-name="Trazado 911402" d="M194.776,188.308,188.087,212.5l-20.328-18.465,6.689-24.193Z" transform="translate(-1.832 -1.854)" fill="#6d4aff"/>
              <path id="Trazado_911403" data-name="Trazado 911403" d="M144.059,203.011,150.95,179l23.239-9.16L167.5,194.037Z" transform="translate(-1.573 -1.854)" fill="#cab1ff"/>
              <path id="Trazado_911404" data-name="Trazado 911404" d="M230.212,175.5,225.192,150.9l21.541-17.034,5.021,24.594Z" transform="translate(-2.459 -1.462)" fill="#a275ff"/>
              <path id="Trazado_911405" data-name="Trazado 911405" d="M253.041,186.322l-22.774-10.555,21.541-17.034,22.774,10.555Z" transform="translate(-2.514 -1.733)" fill="#6d4aff"/>
              <path id="Trazado_911406" data-name="Trazado 911406" d="M246.97,133.868l22.559,10.726,5.235,24.423-22.774-10.555Z" transform="translate(-2.696 -1.462)" fill="#cab1ff"/>
              <g id="Grupo_1122222" data-name="Grupo 1122222" transform="translate(110.337 112.467)" opacity="0.41">
                <g id="Grupo_1122221" data-name="Grupo 1122221">
                  <g id="Grupo_1122220" data-name="Grupo 1122220" clip-path="url(#clip-path-6)">
                    <path id="Trazado_911407" data-name="Trazado 911407" d="M166.87,164.906l-52.64,10.108c-1.788.343-2.96-.711-2.615-2.357l9.456-45.176a5.158,5.158,0,0,1,3.862-3.6l52.64-10.108c1.789-.344,2.96.711,2.616,2.356L170.733,161.3a5.157,5.157,0,0,1-3.862,3.6" transform="translate(-111.555 -113.708)" fill="#6d4aff"/>
                  </g>
                </g>
              </g>
              <g id="Grupo_1122225" data-name="Grupo 1122225" transform="translate(106.149 107.829)" opacity="0.41">
                <g id="Grupo_1122224" data-name="Grupo 1122224">
                  <g id="Grupo_1122223" data-name="Grupo 1122223" clip-path="url(#clip-path-7)">
                    <path id="Trazado_911408" data-name="Trazado 911408" d="M162.906,160.487,110.266,170.6c-1.789.343-2.96-.711-2.615-2.357l9.456-45.176a5.158,5.158,0,0,1,3.862-3.6l52.64-10.108c1.789-.344,2.96.711,2.616,2.357l-9.457,45.176A5.158,5.158,0,0,1,162.906,160.487Z" transform="translate(-107.324 -109.022)" fill="none" stroke="#6d4aff" stroke-miterlimit="10" stroke-width="0.54"/>
                  </g>
                </g>
              </g>
              <path id="Trazado_911409" data-name="Trazado 911409" d="M162.693,141.377c-1.765,8.43-10.63,16.69-19.792,18.449s-15.168-3.645-13.4-12.075,10.624-16.689,19.792-18.449L146.1,144.564,161,132.487c1.763,2.178,2.45,5.249,1.688,8.89" transform="translate(-1.411 -1.412)" fill="#fff"/>
              <path id="Trazado_911410" data-name="Trazado 911410" d="M161.191,132.483,146.282,144.56l3.195-15.262c5.209-1,9.392.317,11.715,3.185" transform="translate(-1.597 -1.408)" fill="#6d4aff"/>
              <g id="Grupo_1122228" data-name="Grupo 1122228" transform="translate(109.42 81.531)" opacity="0.41">
                <g id="Grupo_1122227" data-name="Grupo 1122227">
                  <g id="Grupo_1122226" data-name="Grupo 1122226" clip-path="url(#clip-path-8)">
                    <path id="Trazado_911411" data-name="Trazado 911411" d="M110.87,152.737l26.6-54.616L176.8,82.682" transform="translate(-110.631 -82.434)" fill="none" stroke="#6d4aff" stroke-miterlimit="10" stroke-width="0.54"/>
                  </g>
                </g>
              </g>
              <g id="Grupo_1122231" data-name="Grupo 1122231" transform="translate(135.934 96.204)" opacity="0.41">
                <g id="Grupo_1122230" data-name="Grupo 1122230">
                  <g id="Grupo_1122229" data-name="Grupo 1122229" clip-path="url(#clip-path-9)">
                    <path id="Trazado_911412" data-name="Trazado 911412" d="M143.991,202.23,137.766,98.292l56.682,89.236" transform="translate(-137.438 -97.277)" fill="none" stroke="#6d4aff" stroke-miterlimit="10" stroke-width="0.54"/>
                  </g>
                </g>
              </g>
              <g id="Grupo_1122234" data-name="Grupo 1122234" transform="translate(135.037 96.538)" opacity="0.41">
                <g id="Grupo_1122233" data-name="Grupo 1122233">
                  <g id="Grupo_1122232" data-name="Grupo 1122232" clip-path="url(#clip-path-10)">
                    <path id="Trazado_911413" data-name="Trazado 911413" d="M245.778,133.479,137.766,98.291l91.491,76.816" transform="translate(-136.542 -97.611)" fill="none" stroke="#6d4aff" stroke-miterlimit="10" stroke-width="0.54"/>
                  </g>
                </g>
              </g>
            </g>
          </g>
        </g>
      </g>
    </g>
    <text id="_" data-name="@" transform="translate(421.996 1692.655) rotate(-23.9)" fill="#57e5de" font-size="37" font-family="Montserrat-Black, Montserrat" font-weight="800"><tspan x="0" y="0">@</tspan></text>
    <g id="Grupo_1122239" data-name="Grupo 1122239" transform="translate(538.372 1516.258)">
      <path id="Trazado_875879" data-name="Trazado 875879" d="M492.3,121.112a24.334,24.334,0,0,0-28.23,0,2.221,2.221,0,0,0-.483,3.145l.155.205a2.206,2.206,0,0,0,3.04.465,19.661,19.661,0,0,1,22.8,0,2.206,2.206,0,0,0,3.04-.465l.155-.205a2.221,2.221,0,0,0-.483-3.145Z" transform="translate(-463.138 -116.6)" fill="#57e5de"/>
      <path id="Trazado_875880" data-name="Trazado 875880" d="M493.134,135.2a17.314,17.314,0,0,0-19.744,0,2.2,2.2,0,0,0-.469,3.127l.159.21a2.19,2.19,0,0,0,2.981.51,12.621,12.621,0,0,1,14.4,0,2.19,2.19,0,0,0,2.981-.51l.16-.21A2.2,2.2,0,0,0,493.134,135.2Z" transform="translate(-468.216 -125.041)" fill="#57e5de"/>
      <path id="Trazado_875881" data-name="Trazado 875881" d="M493.84,149.3a10.181,10.181,0,0,0-10.856,0,2.224,2.224,0,0,0-.606,3.222l.16.21a2.244,2.244,0,0,0,2.994.5,5.509,5.509,0,0,1,5.77,0,2.245,2.245,0,0,0,2.994-.5l.16-.21a2.224,2.224,0,0,0-.606-3.222Z" transform="translate(-473.366 -133.542)" fill="#57e5de"/>
    </g>
    <g id="Grupo_1122240" data-name="Grupo 1122240" transform="translate(600 1704)">
      <path id="Trazado_875883" data-name="Trazado 875883" d="M193.291,41.59l-10.525,8.635-13.023-3.963c-6.673-2.033-11.479-7.02-12.7-13.181l-4-20.192L172.8,0l23.186,4.365,4,20.192c1.221,6.161-1.316,12.605-6.712,17.025Z" transform="translate(-153.04)" fill="#4a28db"/>
      <path id="Trazado_875884" data-name="Trazado 875884" d="M174.63,30l8.13,5.263L197.02,12.52" transform="translate(-157.621 -2.656)" fill="none" stroke="#57e5de" stroke-linecap="round" stroke-linejoin="round" stroke-width="8"/>
    </g>
  </g>
</svg>
