<svg xmlns="http://www.w3.org/2000/svg" width="70" height="70" viewBox="0 0 70 70">
  <g id="img5" transform="translate(-269 -958)">
    <circle id="Elipse_5614" data-name="Elipse 5614" cx="35" cy="35" r="35" transform="translate(269 958)" fill="#fff"/>
    <g id="Icon" transform="translate(281.266 971.943)">
      <path id="Trazado_910739" data-name="Trazado 910739" d="M32.6,10.828H29.684V6.457a1.457,1.457,0,0,0-2.914,0v4.371H23.855V6.457a1.457,1.457,0,0,0-2.914,0v4.371H18.027V6.457a1.457,1.457,0,0,0-2.914,0v4.371H12.2V6.457a1.457,1.457,0,0,0-2.914,0v4.371H6.371A4.373,4.373,0,0,0,2,15.2V26.855a4.373,4.373,0,0,0,4.371,4.371H9.285V35.6a1.457,1.457,0,0,0,2.914,0V31.227h2.914V35.6a1.457,1.457,0,0,0,2.914,0V31.227h2.914V35.6a1.457,1.457,0,0,0,2.914,0V31.227H26.77V35.6a1.457,1.457,0,0,0,2.914,0V31.227H32.6V35.6a1.457,1.457,0,0,0,2.914,0V31.227h2.914A4.373,4.373,0,0,0,42.8,26.855V15.2a4.373,4.373,0,0,0-4.371-4.371H35.512V6.457a1.457,1.457,0,0,0-2.914,0ZM39.883,15.2V26.855a1.458,1.458,0,0,1-1.457,1.457H6.371a1.458,1.458,0,0,1-1.457-1.457V15.2a1.458,1.458,0,0,1,1.457-1.457H38.426A1.458,1.458,0,0,1,39.883,15.2ZM38.426,19.57a2.915,2.915,0,0,0-2.914-2.914H10.742A2.915,2.915,0,0,0,7.828,19.57v2.914A2.915,2.915,0,0,0,10.742,25.4h24.77a2.915,2.915,0,0,0,2.914-2.914Z" fill="#0720ac" fill-rule="evenodd"/>
    </g>
  </g>
</svg>
