<svg xmlns="http://www.w3.org/2000/svg" width="70" height="70" viewBox="0 0 70 70">
  <g id="img6" transform="translate(-269 -958)">
    <circle id="Elipse_5614" data-name="Elipse 5614" cx="35" cy="35" r="35" transform="translate(269 958)" fill="#fff"/>
    <g id="Grupo_1121692" data-name="Grupo 1121692" transform="translate(224.879 972.839)">
      <g id="Grupo_1121691" data-name="Grupo 1121691" transform="translate(64)">
        <g id="Grupo_1121690" data-name="Grupo 1121690">
          <path id="Trazado_910740" data-name="Trazado 910740" d="M224.346,277.5a.839.839,0,0,0-.274,1.015s3.318,7.6,4.374,10.157a3.442,3.442,0,0,0,.74,1.123,3.36,3.36,0,1,0,4.712-4.789l-8.5-7.459A.844.844,0,0,0,224.346,277.5Z" transform="translate(-211.401 -255.498)" fill="#0720ac"/>
          <circle id="Elipse_11579" data-name="Elipse 11579" cx="3.36" cy="3.36" r="3.36" transform="translate(11.761 13.441)" fill="#0720ac"/>
          <path id="Trazado_910741" data-name="Trazado 910741" d="M90.881,0H67.36A3.364,3.364,0,0,0,64,3.36v33.6a3.364,3.364,0,0,0,3.36,3.36H90.882a3.364,3.364,0,0,0,3.36-3.36V3.36A3.364,3.364,0,0,0,90.881,0ZM70.72,35.282A1.68,1.68,0,1,1,72.4,33.6,1.682,1.682,0,0,1,70.72,35.282Zm15.742-9.331a.832.832,0,0,0-.02,1.274l1.163,1.02.12.112a5.043,5.043,0,0,1-.174,7.3,5.074,5.074,0,0,1-4.116,1.2,4.861,4.861,0,0,1-3.939-3.034c-.451-1.089-1.311-3.092-2.15-5.033a.838.838,0,0,0-.606-.483,11.795,11.795,0,1,1,9.724-2.354Z" transform="translate(-64)" fill="#0720ac"/>
        </g>
      </g>
    </g>
  </g>
</svg>
