<svg xmlns="http://www.w3.org/2000/svg" width="70" height="70" viewBox="0 0 70 70">
  <g id="img7" transform="translate(-269 -958)">
    <circle id="Elipse_5614" data-name="Elipse 5614" cx="35" cy="35" r="35" transform="translate(269 958)" fill="#fff"/>
    <g id="Grupo_1121694" data-name="Grupo 1121694" transform="translate(279 968)">
      <g id="Grupo_1121693" data-name="Grupo 1121693">
        <path id="Trazado_910742" data-name="Trazado 910742" d="M25.555,11.909c-1.216,0-2.207,1.963-2.207,4.4s.991,4.4,2.207,4.4,2.2-1.972,2.2-4.4S26.762,11.909,25.555,11.909Z" fill="#0720ac"/>
        <path id="Trazado_910743" data-name="Trazado 910743" d="M18.22,5.842c4.432,0,6.227.335,6.227,3.653h2.207c0-5.851-4.875-5.851-8.433-5.851-4.422,0-6.227-.326-6.227-3.644H9.8C9.8,5.842,14.671,5.842,18.22,5.842Z" fill="#0720ac"/>
        <path id="Trazado_910744" data-name="Trazado 910744" d="M29.62,9.495a6.461,6.461,0,0,1,.331,2.031v9.548c0,2.681-1.562,4.91-3.608,5.387a.582.582,0,0,1,.021.1v7.67a.813.813,0,0,1-1.626,0v-7.67a.717.717,0,0,1,.022-.1c-2.046-.477-3.609-2.706-3.609-5.387V11.526A6.437,6.437,0,0,1,21.482,9.5,14.166,14.166,0,0,0,10.9,23.127V35.843A14.2,14.2,0,0,0,25.051,50h1A14.2,14.2,0,0,0,40.206,35.843V23.127A14.167,14.167,0,0,0,29.62,9.495Z" fill="#0720ac"/>
      </g>
    </g>
  </g>
</svg>
